<svg xmlns="http://www.w3.org/2000/svg" width="21" height="19" fill="none"><path fill="url(#a)" fill-rule="evenodd" d="m12.887 9.559.039-.157 1.14 3.5-.137.197v-.02l-.04.079c-3.283 4.365-10.245 3.52-12.82-.925C-1.666 7.513 1.107 1.28 6.455.16A9.661 9.661 0 0 1 8.148.002c2.536 0 5.21 1.101 6.568 3.323l1.061-2.89h3.304l-2.497 6.941 1.612 4.484c.177.452.669.708 1.12.59l.139-.04.884 2.97-1.061.275c-1.515.374-3.068-.393-3.638-1.848a5.27 5.27 0 0 1-.374-.826l-.59-1.554-.04-.059v-.02L13.32 7.357c-.727-2.203-2.084-3.265-3.166-3.697a4.636 4.636 0 0 0-1.966-.413c-2.733 0-4.936 2.183-4.936 4.857 0 2.674 2.203 4.857 4.936 4.857a4.932 4.932 0 0 0 4.7-3.402Z" clip-rule="evenodd"/><defs><linearGradient id="a" x1=".026" x2="19.691" y1=".226" y2=".226" gradientUnits="userSpaceOnUse"><stop stop-color="#7A5FFF"/><stop offset="1" stop-color="#00E824"/></linearGradient></defs></svg>