<svg xmlns="http://www.w3.org/2000/svg" width="335" height="186" fill="none"><path fill="url(#a)" fill-opacity=".5" d="M0 169.5c0 5.601 0 8.401 1.09 10.54a10 10 0 0 0 4.37 4.37C7.6 185.5 10.4 185.5 16 185.5h298.676c8.697 0 13.046 0 15.639-1.831a10.004 10.004 0 0 0 4.14-6.81c.431-3.146-1.571-7.006-5.576-14.726L272.54 53.523c-4.271-8.235-6.407-12.352-9.474-15.515a30.01 30.01 0 0 0-9.526-6.605c-4.037-1.763-8.642-2.32-17.852-3.432L17.918 1.665C11.724.916 8.627.542 6.226 1.52A10 10 0 0 0 1.26 5.922C0 8.188 0 11.31 0 17.55V169.5Z"/><defs><linearGradient id="a" x1="170.5" x2="170.5" y1="185.5" y2="-.5" gradientUnits="userSpaceOnUse"><stop stop-color="#C54AFE"/><stop offset="1" stop-color="#9945FF"/></linearGradient></defs></svg>