<svg xmlns="http://www.w3.org/2000/svg" width="1395" height="605" fill="none"><path fill="url(#a)" fill-opacity=".5" d="M0 588.015c0 5.6 0 8.4 1.09 10.54a10.004 10.004 0 0 0 4.37 4.37c2.14 1.09 4.94 1.09 10.54 1.09h1357.37c9.63 0 14.45 0 17.12-2.012a10.005 10.005 0 0 0 3.97-7.341c.21-3.337-2.43-7.366-7.72-15.425l-300.81-458.462c-4.64-7.073-6.96-10.61-10.01-13.287a29.972 29.972 0 0 0-9.14-5.516c-3.79-1.441-8-1.843-16.42-2.647L17.521.688C11.447.108 8.41-.182 6.064.823a10 10 0 0 0-4.84 4.4C0 7.463 0 10.513 0 16.616v571.399Z"/><defs><linearGradient id="a" x1="701.5" x2="701.5" y1="604.015" y2="-.985" gradientUnits="userSpaceOnUse"><stop stop-color="#C54AFE"/><stop offset="1" stop-color="#9945FF"/></linearGradient></defs></svg>