<svg xmlns="http://www.w3.org/2000/svg" width="30" height="20" fill="none"><path fill="url(#a)" d="M1.667 20c-.473 0-.869-.16-1.189-.48-.32-.32-.48-.715-.478-1.187 0-.472.16-.868.48-1.188.32-.32.716-.48 1.187-.478h26.666c.473 0 .869.16 1.189.48.32.32.48.715.478 1.186 0 .473-.16.869-.48 1.189-.32.32-.715.48-1.187.478H1.667Zm0-8.333c-.473 0-.869-.16-1.189-.48-.32-.32-.48-.716-.478-1.187 0-.472.16-.868.48-1.188.32-.32.716-.48 1.187-.479h26.666c.473 0 .869.16 1.189.48.32.32.48.716.478 1.187 0 .472-.16.868-.48 1.188-.32.32-.715.48-1.187.479H1.667Zm0-8.334c-.473 0-.869-.16-1.189-.48-.32-.32-.48-.715-.478-1.186C0 1.194.16.798.48.478.8.158 1.196-.002 1.667 0h26.666c.473 0 .869.16 1.189.48.32.32.48.716.478 1.187 0 .472-.16.868-.48 1.188-.32.32-.715.48-1.187.478H1.667Z" style="mix-blend-mode:screen"/><defs><linearGradient id="a" x1="33.297" x2=".625" y1="-5.918" y2="-3.151" gradientUnits="userSpaceOnUse"><stop stop-color="#fff"/><stop offset=".524" stop-color="#D795FF"/><stop offset="1" stop-color="#7BC2FE"/></linearGradient></defs></svg>