<svg xmlns="http://www.w3.org/2000/svg" width="91" height="100" fill="none"><path fill="url(#a)" fill-opacity=".5" fill-rule="evenodd" d="m17.177 12.36 2.045.326 2.106.594 41.971 15.258 1.837.75 1.764.951 1.676 1.133 1.576 1.293 1.461 1.434 1.334 1.557 1.19 1.66 1.032 1.744.858 1.81.668 1.86.462 1.888.236 1.9.748 41.444-.252 2.014-.496 1.862-.727 1.695-.945 1.51-1.15 1.309-1.343 1.087-1.519.846-1.68.587-1.828.306-1.957.007-2.068-.314-46.374-9.888-2.266-.524-2.383-1.021-2.279-1.48-2.04-1.538-1.862-1.757-1.661-1.944-1.436-2.103-1.189-2.229-.92-2.324-.629-2.389-.32-2.42.006-2.423 3.683-44.624.296-1.943.575-1.752.83-1.553 1.06-1.345 1.266-1.128 1.45-.903 1.611-.671 1.75-.433 1.868-.186 1.965.066Zm60.964 75.602-.748-41.444.743 39.296.005 2.148Z" clip-rule="evenodd"/><path fill="url(#b)" fill-rule="evenodd" d="m13.753 8.538-.296 1.942-3.494 48.135-.007 2.422.32 2.421.63 2.389.92 2.324 1.188 2.23 1.436 2.102 1.662 1.944 1.862 1.757 2.04 1.538 2.19 1.292 2.318 1.017 2.418.716L76.535 92l2.068.313 1.957-.006L82.388 92l1.68-.586-1.673.992-1.513.843-1.6.949 1.599-.948 1.514-.844 1.673-.992 1.52-.847-3.192 1.838h-.001l-1.513.844-1.6.949-3.036 1.748-2.963 1.707-1.498.835-1.65.587-1.785.32-1.905.031-2.007-.274-47.855-10.113-2.322-.653-2.219-.942-2.093-1.207-1.942-1.446-1.769-1.658-1.572-1.84-1.353-1.997L2.2 77.175l-.853-2.218-.572-2.283-.275-2.32.04-2.329L4.598 21.5l.314-1.889.582-1.712 2.955-4.208L9.5 12.36l2.185-2.754 2.238-2.823 2.293-2.892-1.057 1.342-.83 1.553-.575 1.753Z" clip-rule="evenodd"/><g filter="url(#c)"><path fill="url(#d)" fill-opacity=".3" fill-rule="evenodd" d="m26.128.633 2.045.326 2.106.594 43.353 14.872 1.837.75 1.763.951 1.676 1.133 1.576 1.293 1.462 1.434 1.333 1.557 1.19 1.66 1.032 1.744.858 1.81.669 1.86.461 1.888.237 1.9L90.5 81.089v.002l-.252 2.013-.496 1.862-.727 1.695-.945 1.51-1.15 1.309-1.343 1.087-1.519.846-1.68.587-1.828.306-1.957.007-2.068-.314L26.94 80.767l-2.266-.524-2.383-1.022-2.279-1.48-2.04-1.537-1.862-1.757-1.66-1.945-1.437-2.102-1.189-2.23-.919-2.324-.63-2.388-.32-2.421.006-2.422 3.495-48.135.296-1.942.575-1.753.83-1.553 1.06-1.345 1.266-1.127 1.45-.904 1.611-.67 1.75-.433 1.868-.187 1.965.067ZM90.5 81.09l-2.774-46.685 2.769 44.537.005 2.148Z" clip-rule="evenodd"/><path stroke="url(#e)" d="m89.998 81.074-.242 1.934-.478 1.795-.697 1.626-.904 1.443-1.095 1.246-1.276 1.033-1.443.805-1.6.558-1.746.292-1.877.007-2.013-.305-49.573-11.229h-.003l-2.22-.513-2.303-.987-2.228-1.447-2.003-1.511-1.823-1.72-1.626-1.903-1.406-2.057-1.162-2.18-.898-2.27-.614-2.33-.312-2.356.006-2.372 3.492-48.097.287-1.882.548-1.672.788-1.475 1.006-1.275 1.202-1.07 1.38-.86 1.537-.64 1.678-.415 1.8-.18 1.9.064 1.986.317 2.064.583 43.326 14.863 1.799.734 1.718.926 1.636 1.106 1.54 1.264 1.431 1.404 1.305 1.524 1.165 1.624 1.01 1.706.837 1.767.651 1.811.448 1.835.232 1.856 2.77 46.623Z"/></g><g fill-rule="evenodd" clip-rule="evenodd" filter="url(#f)"><path fill="url(#g)" d="m30.729 38.797 1.948-2.086-2.31 2.473.362-.387Zm47.007 1.709L51.515 59.933l-.003.002-.461.285-.499.204-.529.124-.55.046-.566-.031-.574-.107-.573-.18-.566-.254-.55-.323-.817 1.053-.817 1.053.56.248.567.176.568.103.56.029.547-.048.524-.125.496-.205.459-.284L75.429 42.32h.001l2.306-1.814ZM32.314 37.1l-1.946 2.084-.289.438-.216.482-.141.52-.067.547.008.57.085.584.161.59.239.59.316.579.394.563 12.147 15.488.451.515.49.452.52.385.544.318.817-1.053.817-1.053-.527-.392-.496-.459-.457-.523-12.33-15.706-.401-.571-.322-.587-.243-.596-.165-.598-.088-.59-.011-.575.065-.553.14-.523.216-.486.29-.44Zm0 0 .363-.39-2.31 2.474 1.948-2.084Z"/><path fill="url(#h)" d="m77.522 35.078.348.499.29.51.23.518.17.517.112.511.05.5-.009.48-.07.454-.133.424-.195.386-.258.34-.321.29-26.222 19.427-.002.002-.461.285-.499.204-.528.125-.551.045-.566-.031-.574-.107-.573-.18-.566-.254-.55-.323-.527-.392 2.425-9.728 23.657-16.272.38-.212.413-.138.438-.068.458.001.472.066.479.13.48.191.474.25.464.307.447.362.423.415.395.466ZM31.669 38.55l.14-.523.216-.485 1.578-1.416 2.224-.227.584.129.58.199.568.266.55.331.524.395.491.456.45.515 8.968 11.39-2.425 9.728-.496-.459-.457-.523-12.33-15.706-.4-.57-.322-.588-.244-.597-.165-.596-.088-.59-.011-.576.065-.553Zm4.158-2.651-.58-.058-.569.017-.55.094-.525.174 2.224-.227Zm-2.224.227-.49.256-.436.33-.362.389-.29.44 1.578-1.415Z"/></g><defs><linearGradient id="a" x1="3.06" x2="73.765" y1="104.64" y2="18.714" gradientUnits="userSpaceOnUse"><stop offset=".321" stop-color="#9400FF" stop-opacity=".66"/><stop offset=".581" stop-color="#9400FF" stop-opacity=".76"/><stop offset=".894" stop-color="#9400FF"/></linearGradient><linearGradient id="b" x1="-20.396" x2="78.484" y1="16.838" y2="115.587" gradientUnits="userSpaceOnUse"><stop stop-color="#1E092E" stop-opacity=".1"/><stop offset=".359" stop-color="#9400FF" stop-opacity=".63"/><stop offset=".684" stop-color="#9E00FF"/><stop offset="1" stop-color="#393009"/></linearGradient><linearGradient id="d" x1="12.516" x2="83.221" y1="95.766" y2="9.839" gradientUnits="userSpaceOnUse"><stop offset=".321" stop-color="#FE6543"/><stop offset=".685" stop-color="#FD6344"/><stop offset=".894" stop-color="#F3335A"/></linearGradient><linearGradient id="e" x1="9.811" x2="88.054" y1="83.472" y2="17.832" gradientUnits="userSpaceOnUse"><stop offset=".181" stop-color="#fff" stop-opacity=".35"/><stop offset=".533" stop-color="#fff" stop-opacity="0"/></linearGradient><linearGradient id="g" x1="27.412" x2="27.976" y1="17.832" y2="68.208" gradientUnits="userSpaceOnUse"><stop offset=".302" stop-color="#D795FF"/><stop offset=".993" stop-color="#7FB8C0" stop-opacity=".63"/></linearGradient><linearGradient id="h" x1="51.371" x2="76.748" y1="69.097" y2="23.92" gradientUnits="userSpaceOnUse"><stop stop-color="#fff"/><stop offset=".645" stop-color="#fff" stop-opacity=".57"/></linearGradient><filter id="c" width="106.544" height="117.747" x="-3.044" y="-12.434" color-interpolation-filters="sRGB" filterUnits="userSpaceOnUse"><feFlood flood-opacity="0" result="BackgroundImageFix"/><feGaussianBlur in="BackgroundImageFix" stdDeviation="6.5"/><feComposite in2="SourceAlpha" operator="in" result="effect1_backgroundBlur_1_1986"/><feBlend in="SourceGraphic" in2="effect1_backgroundBlur_1_1986" result="shape"/></filter><filter id="f" width="75.054" height="55.456" x="12.95" y="28.25" color-interpolation-filters="sRGB" filterUnits="userSpaceOnUse"><feFlood flood-opacity="0" result="BackgroundImageFix"/><feColorMatrix in="SourceAlpha" result="hardAlpha" values="0 0 0 0 0 0 0 0 0 0 0 0 0 0 0 0 0 0 127 0"/><feOffset dx="-3.712" dy="8.353"/><feGaussianBlur stdDeviation="6.497"/><feComposite in2="hardAlpha" operator="out"/><feColorMatrix values="0 0 0 0 0.103333 0 0 0 0 0.4104 0 0 0 0 0.43 0 0 0 0.25 0"/><feBlend in2="BackgroundImageFix" result="effect1_dropShadow_1_1986"/><feBlend in="SourceGraphic" in2="effect1_dropShadow_1_1986" result="shape"/></filter></defs></svg>