<svg xmlns="http://www.w3.org/2000/svg" width="539" height="271" fill="none"><rect width="470.845" height="269" x="36.058" y=".515" stroke="url(#a)" stroke-dasharray="5 5" rx="19.5"/><rect width="419.417" height="214.078" x="61.773" y="27.978" fill="#9945FF" rx="20"/><path fill="url(#b)" d="M453.995 108.631c7.783 4.745 17.298 48.987 23.465 84.402 2.096 12.038-7.251 22.905-19.469 22.928l-387.347.746c-1.846.004-3.247-1.83-2.492-3.513.161-.359.25-.669.314-1.057.449-2.761 2.035-5.811 6.498-13.193.868-1.436 1.904-2.78 3.184-3.865 9.398-7.965 17.666-6.274 20.778-4.279.936.652 3.373 2.319 6.634 4.476 1.515 1.002 3.173 1.964 4.986 1.868 4.54-.24 7.565-4.853 8.626-7.54 1.029-2.127 4.117-9.808 8.235-23.523 2.802-11.665 7.126-10.889 9.764-8.271.911.904 1.669 1.954 2.576 2.861.523.522 1.149 1.145 1.857 1.844 2.381 2.352 5.851 4.442 8.305 2.167 3.126-2.897 5.181-9.153 5.979-12.954 2.402-9.169 7.961-29.502 10.981-37.476 3.578-6.929 8.279-4.926 10.951-2.364.758.727 1.313 1.626 1.823 2.545 3.56 6.407 9.98 17.895 12.275 21.747 2.471 4.146 5.376 4.12 6.52 3.588.85-.439 2.871-1.73 5.095-3.784.976-.9 1.94-1.897 3.22-2.25 1.556-.429 3.043-.12 4.085.321.685.29 1.245.797 1.767 1.326.548.555 1.241 1.255 1.98 2 1.492 1.502 3.869 2.99 5.434 1.564.444-.405.988-.943 1.323-1.443 2.011-3.007 5.159-14.016 6.606-19.662.466-1.731 1.766-5.824 3.715-10.384.905-2.117 2.219-4.816 4.506-4.546 5.616.664 9.137 19.304 10.309 30.08 1.373 11.429 4.186 35.404 4.461 39.869.315 5.12 1.784 10.239 3.085 15.359.234.921.809 2.555 1.436 3.27 2.181 2.486 4.289-2.374 6-5.205 2.315-3.834 5.054-6.708 6.984-8.364.88-.754 1.896-1.315 2.939-1.82 4.42-2.142 11.744-6.001 14.9-8.822 2.63-2.351 5.422-2.391 7.304-1.878 1.131.309 2.04 1.106 3.047 1.707 1.446.862 3.633 1.766 6.12 1.766 4.941 0 8.693-8.24 9.951-12.359 1.944-4.519 6.176-14.512 7.549-18.34 1.51-4.211 3.286-7.804 6.498-12.139.905-1.222 1.952-2.385 3.316-3.055 4.332-2.128 7.502.952 10.015 4.102 1.212 1.52 2.521 3.225 4.445 3.494 2.593.363 4.519-1.889 6.221-4.963.506-.916 1.05-1.812 1.512-2.751 2.8-5.694 6.952-21.751 8.827-29.74.915-2.923 3.775-11.481 7.892-22.325 5.765-10.526 12.239.398 14.756 7.176 5.49 15.017 16.951 46.008 18.873 49.835 2.402 4.785 3.774 5.183 7.892 5.183 3.725.271 9.689-6.515 13.368-11.501 1.183-1.602 2.451-3.285 4.346-3.897a5.1 5.1 0 0 1 .314-.092c1.72-.448 3.021 1.151 4.361 2.32 2.97 2.594 5.229 1.238 6.092.014 2.292-2.561 6.759-7.238 9.943-9.686 1.494-1.147 3.462-2.497 5.07-1.517Z"/><rect width="261.361" height="110.117" x=".248" y="49.335" fill="#fff" rx="20"/><path fill="#005893" d="M171.283 116.489H190.3v-4.2h-12.534c1.729-6.891 12.318-8.398 12.318-16.043 0-4.092-2.809-7.107-8.752-7.107-3.674 0-6.915 1.077-9.076 2.154l1.296 3.876c1.945-.97 4.214-1.83 7.024-1.83 2.161 0 4.214.969 4.214 3.445 0 5.599-12.426 6.03-13.507 19.705Zm19.558-6.676h12.209v6.676h4.863v-6.676h4.106v-4.092h-4.106V89.139h-3.566l-13.506 17.444v3.23Zm5.51-3.876 6.915-9.26c0 .753-.216 3.122-.216 5.276v3.876h-3.241c-.973 0-2.81.108-3.458.108Z"/><path fill="#0BBBEF" d="M33.193 112.399v-8.507h2.053c1.837 0 3.35.216 4.43.862 1.08.646 1.729 1.723 1.729 3.446 0 2.907-1.729 4.199-5.835 4.199h-2.377Zm-4.97 4.092h7.239c8.104 0 11.021-3.554 11.021-8.507 0-3.338-1.404-5.599-3.89-6.891-1.945-1.077-4.43-1.4-7.455-1.4h-1.945v-6.46h10.913l1.297-3.984H28.115v27.242h.108Zm21.61 0h4.754l6.159-8.83c1.189-1.615 2.053-3.23 2.593-4.092h.108c-.108 1.185-.216 2.692-.216 4.2v8.614h4.863V97.001h-4.755l-6.159 8.83c-1.08 1.615-2.053 3.23-2.593 4.091h-.108c.108-1.184.216-2.692.216-4.199v-8.614h-4.862v19.382Zm26.58 0h4.97v-15.398h5.836l1.296-4.092H70.471v4.092h5.942v15.398Zm13.831 9.798h4.862v-9.798c.973.323 1.945.43 3.026.43 6.159 0 10.157-4.199 10.157-10.229 0-6.245-3.674-10.23-10.698-10.23-2.7 0-5.294.54-7.455 1.185v28.642h.108Zm4.862-13.998v-11.413a7.681 7.681 0 0 1 2.27-.323c3.565 0 5.834 1.938 5.834 6.137 0 3.769-1.837 6.138-5.51 6.138-.973 0-1.73-.216-2.594-.539Zm16.1 4.2h4.754l6.159-8.83c1.189-1.615 2.053-3.23 2.593-4.092h.108c-.108 1.185-.216 2.692-.216 4.2v8.614h4.863V97.001h-4.755l-6.159 8.83c-1.08 1.615-2.052 3.23-2.593 4.091h-.108c.108-1.184.216-2.692.216-4.199v-8.614h-4.862v19.382Zm22.151 0h4.97v-8.076h2.917c.541 0 1.081.538 1.729 1.83l2.485 6.246h5.295l-3.566-7.43c-.648-1.292-1.297-2.046-2.269-2.369v-.108c1.621-.969 1.837-3.768 2.809-5.168.325-.431.757-.646 1.405-.646.324 0 .756 0 1.081.215v-4.2c-.541-.215-1.513-.322-2.053-.322-1.729 0-2.81.646-3.566 1.723-1.621 2.369-1.621 6.46-3.998 6.46h-2.269v-7.645h-4.97v19.49Zm28.417.43c2.701 0 5.187-.861 6.699-1.938l-1.404-3.338c-1.405.754-2.702 1.292-4.539 1.292-3.349 0-5.51-2.153-5.51-6.137 0-3.554 2.161-6.353 5.835-6.353 1.944 0 3.349.538 4.754 1.507v-4.2c-1.081-.645-2.81-1.291-5.295-1.291-5.834 0-10.373 4.307-10.373 10.444 0 5.6 3.458 10.014 9.833 10.014Z"/><path stroke="#005893" stroke-width="1.769" d="M228.12 109.815c5.295 0 9.617-4.307 9.617-9.583s-4.322-9.583-9.617-9.583c-5.294 0-9.616 4.307-9.616 9.583.108 5.276 4.322 9.583 9.616 9.583Z"/><path fill="#005893" d="M234.171 100.23h-5.295v-5.276h-1.404v6.676h6.699v-1.4Z"/><path fill="#fff" d="M317.98 159.171c0-11.046 8.955-20 20-20h180.194c11.046 0 20 8.954 20 20v42.136c0 11.046-8.954 20-20 20H337.98c-11.045 0-20-8.954-20-20v-42.136Z"/><mask id="c" width="151" height="29" x="352" y="166" maskUnits="userSpaceOnUse" style="mask-type:luminance"><path fill="#fff" d="M503 166.013H353v28h150v-28Z"/></mask><g mask="url(#c)"><path fill="#005893" d="M376.37 184.296c.454 0 .636.521.636 1.651a4.447 4.447 0 0 1-.727 2.172 10.386 10.386 0 0 1-2.092 2.345 11.575 11.575 0 0 1-2.818 1.738 7.215 7.215 0 0 1-3.001.695c-1.364 0-2.182-1.129-2.637-3.388a7.164 7.164 0 0 1-2.636 2.519 7.927 7.927 0 0 1-4.274.956 6.541 6.541 0 0 1-2.273-.348 6.789 6.789 0 0 1-2-1.216 5.395 5.395 0 0 1-1.182-1.738 4.896 4.896 0 0 1-.364-1.998c0-4.083 1.455-7.298 4.274-9.643a8.585 8.585 0 0 1 3.364-1.912 10.609 10.609 0 0 1 3.273-.434 6.33 6.33 0 0 1 2.819.608c.363-.695.727-1.043 1.182-1.043.479-.008.952.112 1.364.348.446.179.849.445 1.181.782a3.081 3.081 0 0 1 1.183 2.085c-.455.956-1.001 1.911-1.546 2.867a20.316 20.316 0 0 0-.273 4.691c0 1.999.273 3.041.818 3.041.546 0 2.273-1.216 4.728-3.736.455-.781.819-1.042 1.001-1.042Zm-17.822 2.172c0 1.824.728 2.78 2.183 2.78a4.55 4.55 0 0 0 2.249-.667 4.282 4.282 0 0 0 1.569-1.679c.341-.62.645-1.258.91-1.911a29.616 29.616 0 0 1 .727-6.95 10.55 10.55 0 0 0-5.364 2.78 8.234 8.234 0 0 0-1.728 2.606 8.605 8.605 0 0 0-.546 3.041Z"/><path fill="#005893" d="M393.277 181.975c0-.783-.454-1.218-1.453-1.218-.606 0-1.333.609-2.181 1.827a12.679 12.679 0 0 0-1.726 3.917v.087c.026.851.147 1.697.364 2.524.208.59.33 1.205.363 1.827 0 .783-1.09 1.567-3.18 2.437-.29.107-.597.166-.908.174a1.5 1.5 0 0 1-.818-.261 1.182 1.182 0 0 1-.454-.696 7.76 7.76 0 0 1-.364-2.524c0-1.044 0-2.089.091-3.046.091-.958.091-1.828.182-2.611.091-.783.091-1.48.182-2.176a9.76 9.76 0 0 0 .091-1.479c0-.784-.364-1.219-1.181-1.219-.818 0-1.727.871-2.726 2.611a9.374 9.374 0 0 0-1.544 4.178c-.014.968.108 1.934.363 2.872a6.5 6.5 0 0 1 .363 1.827c0 .783-1.09 1.567-3.179 2.437a2.846 2.846 0 0 1-.909.174 1.506 1.506 0 0 1-.818-.261 1.191 1.191 0 0 1-.454-.696 10.372 10.372 0 0 1-.363-2.872 40.537 40.537 0 0 1 .454-7.398 16.22 16.22 0 0 1 2.544-6.353c.162-.27.378-.507.636-.696.278-.168.586-.286.908-.348.818 0 1.636.609 2.272 1.914.205.293.358.617.454.958a4.433 4.433 0 0 1 1.817-1.567 5.584 5.584 0 0 1 2.362-.609 4.397 4.397 0 0 1 2.907 1.044c.379.315.688.7.909 1.132.223.431.317.913.272 1.392v.435a5.991 5.991 0 0 1 2.453-2.001 8.035 8.035 0 0 1 3.18-.697 5.267 5.267 0 0 1 1.635.174c.53.175 1.023.44 1.454.784.352.318.63.703.817 1.131.186.442.279.916.273 1.393 0 .87-.091 1.827-.182 2.697-.091.871-.363 1.567-.545 2.263a24.162 24.162 0 0 1-.545 1.828 6.47 6.47 0 0 0-.182 1.305c0 .261.091.436.273.436a2.54 2.54 0 0 0 1.362-.697c.546-.435 1.091-.957 1.636-1.479l1.544-1.48c.454-.435.818-.696 1-.696.363 0 .545.435.545 1.218 0 1.654-.909 3.308-2.635 4.961-1.481 1.475-3.498 2.347-5.633 2.437-1.817 0-2.725-1.567-2.725-4.7.017-1.115.169-2.225.454-3.307.301-1.081.483-2.189.545-3.307Z"/><path fill="#005893" d="M413.703 189.757a7.874 7.874 0 0 1-3.179 2.435 9.198 9.198 0 0 1-3.996.869c-2.816 0-4.814-.695-6.267-2.087a6.66 6.66 0 0 1-1.544-2.347 5.846 5.846 0 0 1-.454-2.782c-.095-2.72.914-5.369 2.815-7.391a8.917 8.917 0 0 1 3.361-2.347 10.99 10.99 0 0 1 4.087-.783 10.868 10.868 0 0 1 3.361.522c1.453.608 2.18 1.13 2.18 1.652 0 .521-.999.608-3.088.608a7.7 7.7 0 0 0-2.816.522 6.17 6.17 0 0 0-2.362 1.565 6.932 6.932 0 0 0-1.634 2.348 6.094 6.094 0 0 0-.273 2.869 4.141 4.141 0 0 0 .999 2.695c.362.366.794.661 1.272.87a4.427 4.427 0 0 0 1.544.261 5.863 5.863 0 0 0 2.997-.696 5.205 5.205 0 0 1-1.998-2.174 5.153 5.153 0 0 1-.636-2.869 4.297 4.297 0 0 1 1.272-3.13 4.382 4.382 0 0 1 1.544-1.043 4.924 4.924 0 0 1 1.907-.348 3.68 3.68 0 0 1 1.641.22c.521.196.986.508 1.356.91.612.841.93 1.845.909 2.869a9.074 9.074 0 0 1-.909 3.739h.182a4.136 4.136 0 0 0 1.525-.297 4.012 4.012 0 0 0 1.291-.833l.817-.783.273-.261c.09-.086.181-.086.363-.086.363 0 .545.434.545 1.217a4.253 4.253 0 0 1-.273 1.826 3.765 3.765 0 0 1-1.09 1.478 4.662 4.662 0 0 1-2.997 1.043 15.181 15.181 0 0 1-2.725-.261Zm-.272-4.173c.392-.79.608-1.648.636-2.522 0-.782-.273-1.217-.818-1.217a.688.688 0 0 0-.337.143.651.651 0 0 0-.208.292 1.5 1.5 0 0 0-.181.869c.002.448.094.891.272 1.305.021.219.089.432.198.627.109.194.258.365.438.503Z"/><path fill="#C1E9FB" d="M499.146 193.19a3.94 3.94 0 0 0 2.126-.62 3.707 3.707 0 0 0 1.409-1.649c.289-.671.364-1.41.217-2.122a3.634 3.634 0 0 0-1.046-1.882 3.874 3.874 0 0 0-1.959-1.005 3.969 3.969 0 0 0-2.21.209 3.796 3.796 0 0 0-1.717 1.353 3.567 3.567 0 0 0-.645 2.041 3.752 3.752 0 0 0 1.161 2.56 4.049 4.049 0 0 0 2.664 1.115ZM460.259 184.96c.454 0 .636.522.636 1.653a4.545 4.545 0 0 1-.818 2.176c-.57.88-1.275 1.673-2.092 2.35a11.567 11.567 0 0 1-2.82 1.741c-.9.444-1.896.682-2.91.696a4.7 4.7 0 0 1-2.183-.522 3.209 3.209 0 0 1-1.273-1.392c-.455-.784-.728-2.35-1.091-4.701a40.74 40.74 0 0 0-.819-4.787 3.439 3.439 0 0 1-1.728-.783 1.183 1.183 0 0 1-.546-.609 2.475 2.475 0 0 1-.182-.784.911.911 0 0 1 .182-.696l.546-.522a4.213 4.213 0 0 1 1.819-.348 4.266 4.266 0 0 1 1.819.435 7.02 7.02 0 0 0 1.728-1.915c.48-.947.699-1.996.637-3.047a4.88 4.88 0 0 0-.273-1.653 3.979 3.979 0 0 0-1.001-1.393 5.768 5.768 0 0 0-3.911-1.132 15.256 15.256 0 0 0-4.001.436c-.809.237-1.599.528-2.365.87-.637.348-1.273.609-1.819.87-.45.236-.945.384-1.455.436-.455 0-.637-.174-.637-.436.111-.517.362-.997.728-1.392a8.187 8.187 0 0 1 2.092-1.828 15.403 15.403 0 0 1 7.494-2.337c2.672-.122 5.33.444 7.694 1.641a6.485 6.485 0 0 1 2.547 2.35c.63.992.917 2.15.818 3.307a7.533 7.533 0 0 1-1.727 5.136 9.625 9.625 0 0 1-4.275 2.959c.398.838.702 1.713.909 2.611.273.958.455 1.741.728 2.524.177.672.453 1.317.819 1.915.123.195.276.371.454.523.182.174.364.174.637.261a3.539 3.539 0 0 0 1.546-.697 9.572 9.572 0 0 0 1.728-1.566c.546-.523 1.091-1.045 1.546-1.567.272-.609.637-.783.819-.783Zm-16.371-13.057c.363 0 .454.436.454 1.219a20.53 20.53 0 0 1-.181 2.35 20.337 20.337 0 0 1-.91 3.917 41.493 41.493 0 0 0-1.364 5.745v5.309a2.376 2.376 0 0 1-.364 1.567c-.297.46-.702.847-1.182 1.131l-1.365.61a3.61 3.61 0 0 1-1.455.261c-1.091 0-1.546-1.132-1.546-3.482.117-2.996.7-5.959 1.728-8.791a32.474 32.474 0 0 1 3.547-8.095 4.331 4.331 0 0 1 1.092-1.131c.201-.196.442-.352.707-.456.266-.105.551-.157.839-.154Z"/><path fill="#C1E9FB" d="M492.774 184.969c.454 0 .636.522.636 1.653a4.548 4.548 0 0 1-.818 2.173 10.396 10.396 0 0 1-2.091 2.348 11.567 11.567 0 0 1-2.818 1.739 8.488 8.488 0 0 1-3.274.696 3.915 3.915 0 0 1-1.454-.261 2.729 2.729 0 0 1-1.182-.783 3.494 3.494 0 0 1-1-2.434c.011-1.001.164-1.996.454-2.957.364-1.13.637-2.261 1-3.478a26.479 26.479 0 0 0 1.455-6.783 6.391 6.391 0 0 0-.182-1.304.696.696 0 0 0-.364-.348 1.204 1.204 0 0 0-.545-.087 3.813 3.813 0 0 0-2.455 1.305 22.609 22.609 0 0 0-2.454 3.304 19.874 19.874 0 0 0-2.727 9.043l.181 1.044c.076.343.106.693.091 1.043.008.432-.118.855-.363 1.218a2.763 2.763 0 0 1-.818.956 4.074 4.074 0 0 1-2.637.957 1.065 1.065 0 0 1-.727-.261 1.562 1.562 0 0 1-.455-.609 4.974 4.974 0 0 1-.454-2c.086-1.085.268-2.162.545-3.217.364-1.391.818-2.87 1.273-4.348 1.182-4.087 1.818-7.13 1.818-9.13a7.519 7.519 0 0 0-.363-2.435 1.574 1.574 0 0 0-.637-.696 1.164 1.164 0 0 0-.909-.174c-1.364 0-2.727.957-4 2.783-1.273 1.826-2.545 4.696-3.545 8.609-.273 1.043-.455 1.913-.637 2.608v.696c.382 1.425.625 2.88.728 4.348a2.674 2.674 0 0 1-.323 1.62 2.84 2.84 0 0 1-1.224 1.162l-1.364.609a3.932 3.932 0 0 1-1.454.261c-1.273 0-1.909-1.131-1.909-3.478 0-2.348.636-6.783 1.909-13.479.454-2.434.727-3.739.727-4.086 0-1.913-.545-2.957-1.545-2.957a2.146 2.146 0 0 0-1 .261 8.002 8.002 0 0 1-.909.609 6.227 6.227 0 0 0-.909.695 1.88 1.88 0 0 1-1 .261c-.364 0-.546-.348-.546-.956a3.593 3.593 0 0 1 .546-1.913 4.114 4.114 0 0 1 1.363-1.392 7.414 7.414 0 0 1 4.455-1.304c2.272 0 3.637 1.043 4.001 3.043.109.633.17 1.272.182 1.913 1.818-3.304 4.181-5.043 7.09-5.043 3.091 0 4.91 1.391 5.273 4.261.151.861.213 1.735.182 2.608v.261c1.636-2.174 3.545-3.217 5.818-3.217 3.183 0 4.728 1.826 4.728 5.478a19.21 19.21 0 0 1-.818 5.565c-.545 2.174-.909 3.653-1.091 4.609a8.335 8.335 0 0 0-.363 2.174c0 .956.363 1.391 1 1.391.636 0 2.272-1.217 4.818-3.739a3.978 3.978 0 0 1 1.091-.435ZM439.055 180.124c.636 0 1 .609 1 1.741a8.963 8.963 0 0 1-.819 3.741 13.543 13.543 0 0 1-2.546 3.829 13.69 13.69 0 0 1-4.274 3.133 12.413 12.413 0 0 1-6.093 1.305c-2.283.005-4.487-.801-6.185-2.262-1.727-1.479-2.637-3.655-2.637-6.527a22.703 22.703 0 0 1 1.273-7.744 19.513 19.513 0 0 1 3.274-6.005 17.287 17.287 0 0 1 4.547-3.742 9.777 9.777 0 0 1 5.002-1.392c2.729 0 4.093 1.131 4.093 3.481a5.636 5.636 0 0 1-.728 3.219c-.545.784-1 1.219-1.546 1.219a3.426 3.426 0 0 1-1-.174 1.974 1.974 0 0 1-.819-.609 1.973 1.973 0 0 0-.818-.61 1.89 1.89 0 0 0-1.001-.261c-.636 0-2.364-.087-3.819 2.176a8.322 8.322 0 0 0-1.273 2.524 18.229 18.229 0 0 0-1.274 6.613 5.98 5.98 0 0 0 .802 2.279 6.247 6.247 0 0 0 1.654 1.811 4.43 4.43 0 0 0 2.728.696 6.778 6.778 0 0 0 2.464-.705 6.53 6.53 0 0 0 1.992-1.557l2.456-2.611a45.5 45.5 0 0 0 2.182-2.524c.546-.609 1.001-1.044 1.365-1.044Z"/></g><defs><linearGradient id="a" x1="271.48" x2="271.48" y1=".015" y2="270.015" gradientUnits="userSpaceOnUse"><stop stop-color="#00FFB7"/><stop offset="1" stop-color="#D795FF"/></linearGradient><linearGradient id="b" x1="274.101" x2="274.101" y1="66.423" y2="216.714" gradientUnits="userSpaceOnUse"><stop stop-color="#EB00FF"/><stop offset="1" stop-color="#D3FFFC" stop-opacity="0"/></linearGradient></defs></svg>