<svg xmlns="http://www.w3.org/2000/svg" width="999" height="1089" fill="none"><g filter="url(#a)"><ellipse cx="564.5" cy="544.499" fill="#D7A7FF" rx="264.5" ry="244.5"/></g><path fill="url(#b)" d="M571.623 732.932c101.035 0 182.94-81.904 182.94-182.939s-81.905-182.939-182.94-182.939c-101.034 0-182.939 81.904-182.939 182.939s81.905 182.939 182.939 182.939Z"/><g filter="url(#c)" opacity=".747"><path fill="url(#d)" d="M674.714 573.235c31.594 0 57.206-25.612 57.206-57.206 0-31.594-25.612-57.206-57.206-57.206-31.594 0-57.206 25.612-57.206 57.206 0 31.594 25.612 57.206 57.206 57.206Z"/></g><mask id="e" width="367" height="366" x="388" y="367" maskUnits="userSpaceOnUse" style="mask-type:luminance"><path fill="#fff" d="M571.347 732.932c100.882 0 182.663-81.904 182.663-182.939s-81.781-182.939-182.663-182.939-182.663 81.904-182.663 182.939 81.781 182.939 182.663 182.939Z"/></mask><g filter="url(#f)" mask="url(#e)"><path fill="url(#g)" d="M625.253 723.399c58.91 0 106.665-47.755 106.665-106.665 0-58.909-47.755-106.665-106.665-106.665-58.909 0-106.665 47.756-106.665 106.665 0 58.91 47.756 106.665 106.665 106.665Z"/></g><g filter="url(#h)" opacity=".396"><path fill="url(#i)" d="M692.593 620.903c21.721 0 39.329-17.608 39.329-39.329s-17.608-39.329-39.329-39.329-39.329 17.608-39.329 39.329 17.608 39.329 39.329 39.329Z"/></g><g filter="url(#j)" opacity=".747"><path fill="url(#k)" d="M611.551 663.807c19.746 0 35.753-16.007 35.753-35.754 0-19.746-16.007-35.753-35.753-35.753s-35.754 16.007-35.754 35.753c0 19.747 16.008 35.754 35.754 35.754Z"/></g><g filter="url(#l)" opacity=".747"><path fill="url(#m)" d="M631.809 667.383c14.481 0 26.22-11.739 26.22-26.219 0-14.481-11.739-26.22-26.22-26.22-14.48 0-26.219 11.739-26.219 26.22 0 14.48 11.739 26.219 26.219 26.219Z"/></g><g filter="url(#n)" opacity=".412"><path fill="url(#o)" d="M531.699 577.998c49.365 0 89.384-37.617 89.384-84.021 0-46.403-40.019-84.021-89.384-84.021-49.366 0-89.384 37.618-89.384 84.021 0 46.404 40.018 84.021 89.384 84.021Z"/></g><g filter="url(#p)" opacity=".453"><path fill="url(#q)" d="M470.324 593.495c13.494 0 24.432-10.938 24.432-24.432 0-13.493-10.938-24.431-24.432-24.431-13.493 0-24.431 10.938-24.431 24.431 0 13.494 10.938 24.432 24.431 24.432Z"/></g><g filter="url(#r)" opacity=".453"><path fill="url(#s)" d="M514.42 635.206c13.493 0 24.432-10.938 24.432-24.432 0-13.493-10.939-24.431-24.432-24.431-13.493 0-24.431 10.938-24.431 24.431 0 13.494 10.938 24.432 24.431 24.432Z"/></g><g filter="url(#t)" opacity=".453"><path fill="url(#u)" d="M462.575 632.821c7.899 0 14.302-6.403 14.302-14.302 0-7.898-6.403-14.301-14.302-14.301-7.898 0-14.301 6.403-14.301 14.301 0 7.899 6.403 14.302 14.301 14.302Z"/></g><path fill="url(#v)" d="M460.475 404.715c-13.405 10.352-11.702 11.495-6.8 11.111 4.902-.384 15.602-4.098 16.545-5.912.943-1.814 2.825 5.912 2.825 5.912l4.847 3.896s5.216 17.574-1.787 20.89c-7.003 3.315-4.28 8.783-4.28 8.783s6.5.145 6.064 4.921c-.436 4.777-1.788 12.871-1.788 12.871s-3.54-4.618-3.063-6.435c.477-1.818-4.58 12.411-7.151 14.579-2.571 2.168-9.311 27.988-9.311 27.988l4.254 15.612 5.056 5.379 2.695 18.393 3.246 3.582-3.246 3.111s12.25 23.12 13.099 24.06c.848.939 7.451 6.987 7.07 5.363-.381-1.625-12.642-32.536-12.642-32.536l-1.348-10.023-2.933-4.486h6.064V542.7l10.859 16.858 1.948-1.262v7.151l10.104 13.373 2.451 4.171-2.451 1.319v7.48l8.489 8.158 29.634 14.816h4.619l7.123 1.302 3.205 5.656 9.133 5.005 8.642 5.448 2.876 7.875 5.502 1.682 13.632 3.407 1.371 4.042h5.602l-2.29-4.042 4.713-3.407 3.614 1.697v2.922l4.714 1.509v4.148l-3.165 3.848v6.344l-3.274 1.691-1.889 4.252-8.029 1.863-4.107 9.11h4.107l-4.107 5.75v6.555l4.107 2.69 11.644 13.11 7.961 2.637h10.13s-1.45 11.587-7.94 12.902c-6.489 1.316-11.874 6.972-11.874 6.972s40.33-2.992 87.413-41.972c31.619-29.337 41.552-53.446 41.552-53.446s-18.699 5.939-23.09 5.735c-4.39-.204 0-11.322 0-11.322h-12.975l-4.677 5.59-8.517-5.59h-4.39v-10.368l-22.405 8.37-5.737 1.999-10.575-7.004 1.68 5.006-5.206 2v9.4l-4.792-3.813 2.245-9.821-10.708 5.666-10.131 11.571-9.685-5.782-8.386 4.099-10.167-5.735L588 614.764l-13.479-2.582-13.432 2.582 4.243-5.946v-4.29l4.422-1.527 1.893-7.92 2.876-3.285-15.152-2.549-2.845 5.834 2.845 4.873-13.52 4.575v-4.575h-6.926l-3.687-8.158v-18.324l3.687 1.747v-9.754l9.137-5.888 11.309-1.262h3.634l2.327-4.233h11.322l3.368 2.729 3.419-2.729 4.555 5.494v5.887l2.922 5.338 4.107 4.417h3.316l-1.788-27.013 6.497-5.482 3.614-2.968 4.713-5.917 5.437-2.041 1.597-7.467 6.342-13.312v-5.536h4.146l2.828-4.299h4.997v-3.246l-1.262-2.482 10.264-11.739 1.32 5.938 14.989-10.035-13.499-4.275-1.49-6.674h-9.038l3.527-6.391h14.228l8.581-7.956-15.808-10.598-7.001-3.106-9.809-12.241-2.828 5.939-4.146 1.6-6.342-7.539-20.075-4.792v12.333l4.714 4.7-4.714 8.783 2.29 11.363-6.977 4.505v-7.788l-2.742-10.021-27.916-8.332 4.449-8.284h4.193l1.275-7.259 7.103-6.317 3.42 9.71 10.211-1.34-7.262-5.905 2.801-8.319 7.367-7.031-1.532 5.539 1.532 5.913 18.071 5.915 12.844 1.837-7.542-7.746 7.542-2.693-24.418-12.823-15.06-8.788 8.563-3.366-10.167-3.97-9.738 3.97-22.786-3.97-5.81 2.089-19.88 5.244-3.337 3.511 1.788 3.583h6.544v4.052l5.748 4.296-5.748-1.391-19.519-6.957-8.067-1.899-4.791-5.195 2.452-3.365h-8.989l-5.512 5.311-.405-6.252a188.068 188.068 0 0 0-27.855 17.486Z"/><path fill="url(#w)" d="m577.633 589.835 14.495-6.621 34.248 9.349-14.616 5.869-2.522-5.869-15.255-2.728-13.171 2.728-3.179-2.728Z"/><path fill="url(#x)" d="m628.729 595.328 16.411-2.888 6.205 4.768-10.47 2.748-2.749 4.868-10.653-2.349 5.43-2.519-4.174-4.628Z"/><path stroke="url(#y)" d="M382.698 419.931c-34.472 45.798 332.747 334.577 353.462 267.693 20.714-66.884-318.994-313.489-353.462-267.693Z"/><path stroke="url(#z)" d="M377.928 424.7c-34.472 45.798 332.748 334.578 353.462 267.694 20.715-66.885-318.994-313.489-353.462-267.694Z"/><path stroke="url(#A)" d="M387.466 415.165c-34.473 45.798 332.747 334.578 353.461 267.693 20.715-66.884-318.994-313.489-353.461-267.693Z"/><path stroke="url(#B)" d="M377.183 684.541c33.718 46.357 417.244-220.386 359.339-259.751-57.906-39.364-393.056 213.4-359.339 259.751Z"/><path stroke="url(#C)" d="M380.347 690.498c33.718 46.357 417.244-220.386 359.339-259.751-57.906-39.364-393.056 213.4-359.339 259.751Z"/><path stroke="url(#D)" d="M374.019 678.592c33.718 46.356 417.244-220.386 359.339-259.751-57.906-39.364-393.056 213.4-359.339 259.751Z"/><g filter="url(#E)"><path fill="#E9CCFF" d="M727.863 708.79c8.556 0 15.493-6.936 15.493-15.493s-6.937-15.493-15.493-15.493c-8.557 0-15.494 6.936-15.494 15.493s6.937 15.493 15.494 15.493Z"/></g><g filter="url(#F)"><path fill="#E9CCFF" d="M384.628 429.911c8.557 0 15.493-6.936 15.493-15.493s-6.936-15.493-15.493-15.493c-8.556 0-15.493 6.936-15.493 15.493s6.937 15.493 15.493 15.493Z"/></g><g filter="url(#G)"><path fill="#E9CCFF" d="M737.396 438.255c8.557 0 15.493-6.937 15.493-15.493 0-8.557-6.936-15.493-15.493-15.493s-15.493 6.936-15.493 15.493c0 8.556 6.936 15.493 15.493 15.493Z"/></g><g filter="url(#H)"><path fill="#E9CCFF" d="M384.628 708.79c8.557 0 15.493-6.936 15.493-15.493s-6.936-15.493-15.493-15.493c-8.556 0-15.493 6.936-15.493 15.493s6.937 15.493 15.493 15.493Z"/></g><g filter="url(#I)"><rect width="165.746" height="165.746" x="292" y="326.999" fill="#9B5CD0" fill-opacity=".29" rx="82.873"/><rect width="165.746" height="165.746" x="292" y="326.999" stroke="#957AE0" stroke-width="3" rx="82.873"/></g><g filter="url(#J)"><path fill="url(#K)" stroke="url(#L)" stroke-width="2.171" d="M347.278 394.463c0 5.041-4.16 9.166-9.305 9.166s-9.305-4.125-9.305-9.166 4.16-9.166 9.305-9.166 9.305 4.125 9.305 9.166Zm72.735 0c0 5.041-4.16 9.166-9.305 9.166s-9.305-4.125-9.305-9.166 4.16-9.166 9.305-9.166 9.305 4.125 9.305 9.166Zm-8.697 34.795c-1.209-7.005-5.393-12.945-11.246-16.599a9.343 9.343 0 0 1 5.443-1.733h10.39c5.146 0 9.305 4.125 9.305 9.166v5.126c0 2.222-1.821 4.04-4.109 4.04h-9.783ZM391.439 391.9c0 9.302-7.635 16.855-17.099 16.855-9.463 0-17.098-7.553-17.098-16.855s7.635-16.854 17.098-16.854c9.464 0 17.099 7.552 17.099 16.854Zm-17.099 26.715c4.083 0 7.915-.962 11.364-2.563h1.105c9.74 0 17.618 7.793 17.618 17.368v4.613c0 3.631-2.991 6.603-6.707 6.603h-46.759c-3.716 0-6.707-2.972-6.707-6.603v-4.613c0-9.575 7.878-17.368 17.618-17.368h1.106c3.462 1.6 7.278 2.563 11.362 2.563Zm-31.172-7.689c2.035 0 3.911.642 5.442 1.733-5.853 3.654-10.037 9.595-11.259 16.599h-9.769c-2.288 0-4.109-1.818-4.109-4.04v-5.126c0-5.041 4.159-9.166 9.305-9.166h10.39Z"/></g><path stroke="url(#M)" stroke-width="2.171" d="M347.278 394.463c0 5.041-4.16 9.166-9.305 9.166s-9.305-4.125-9.305-9.166 4.16-9.166 9.305-9.166 9.305 4.125 9.305 9.166Zm72.735 0c0 5.041-4.16 9.166-9.305 9.166s-9.305-4.125-9.305-9.166 4.16-9.166 9.305-9.166 9.305 4.125 9.305 9.166Zm-8.697 34.795c-1.209-7.005-5.393-12.945-11.246-16.599a9.343 9.343 0 0 1 5.443-1.733h10.39c5.146 0 9.305 4.125 9.305 9.166v5.126c0 2.222-1.821 4.04-4.109 4.04h-9.783ZM391.439 391.9c0 9.302-7.635 16.855-17.099 16.855-9.463 0-17.098-7.553-17.098-16.855s7.635-16.854 17.098-16.854c9.464 0 17.099 7.552 17.099 16.854Zm-17.099 26.715c4.083 0 7.915-.962 11.364-2.563h1.105c9.74 0 17.618 7.793 17.618 17.368v4.613c0 3.631-2.991 6.603-6.707 6.603h-46.759c-3.716 0-6.707-2.972-6.707-6.603v-4.613c0-9.575 7.878-17.368 17.618-17.368h1.106c3.462 1.6 7.278 2.563 11.362 2.563Zm-31.172-7.689c2.035 0 3.911.642 5.442 1.733-5.853 3.654-10.037 9.595-11.259 16.599h-9.769c-2.288 0-4.109-1.818-4.109-4.04v-5.126c0-5.041 4.159-9.166 9.305-9.166h10.39Z"/><g filter="url(#N)"><rect width="91.16" height="91.16" x="687.028" y="409.874" fill="#9B5CD0" fill-opacity=".29" rx="45.58"/><rect width="91.16" height="91.16" x="687.028" y="409.874" stroke="#957AE0" stroke-width="3" rx="45.58"/></g><g filter="url(#O)"><path fill="url(#P)" stroke="url(#Q)" stroke-width="2.171" d="M716.94 446.979c0 2.497-2.063 4.553-4.629 4.553-2.566 0-4.629-2.056-4.629-4.553s2.063-4.553 4.629-4.553c2.566 0 4.629 2.056 4.629 4.553Zm40.004 0c0 2.497-2.063 4.553-4.629 4.553-2.566 0-4.629-2.056-4.629-4.553s2.063-4.553 4.629-4.553c2.566 0 4.629 2.056 4.629 4.553Zm-7.486 9.543h5.715c2.566 0 4.629 2.056 4.629 4.553v2.819c0 .946-.777 1.734-1.772 1.734h-4.975c-.723-3.555-2.797-6.597-5.676-8.621a4.66 4.66 0 0 1 2.079-.485Zm-8.23-10.953c0 4.84-3.973 8.782-8.915 8.782-4.942 0-8.915-3.942-8.915-8.782s3.973-8.781 8.915-8.781c4.942 0 8.915 3.941 8.915 8.781Zm-8.915 15.182c2.285 0 4.427-.529 6.357-1.41h.501c5.093 0 9.201 4.074 9.201 9.064v2.537c0 1.721-1.42 3.143-3.201 3.143h-25.717c-1.78 0-3.2-1.422-3.2-3.143v-2.537c0-4.99 4.108-9.064 9.201-9.064h.502c1.935.88 4.07 1.41 6.356 1.41Zm-17.145-4.229a4.66 4.66 0 0 1 2.079.485c-2.879 2.025-4.954 5.067-5.683 8.621h-4.968c-.995 0-1.772-.788-1.772-1.734v-2.819c0-2.497 2.063-4.553 4.629-4.553h5.715Z"/></g><path stroke="url(#R)" stroke-width="1.2" d="M717.428 446.979c0 2.771-2.287 5.038-5.115 5.038-2.829 0-5.115-2.267-5.115-5.038 0-2.771 2.286-5.038 5.115-5.038 2.828 0 5.115 2.267 5.115 5.038Zm40.004 0c0 2.771-2.287 5.038-5.115 5.038-2.828 0-5.115-2.267-5.115-5.038 0-2.771 2.287-5.038 5.115-5.038 2.828 0 5.115 2.267 5.115 5.038Zm-7.972 9.058h5.714c2.829 0 5.115 2.267 5.115 5.038v2.819c0 1.221-1 2.219-2.257 2.219h-5.378c-.666-3.851-2.965-7.117-6.182-9.127a5.134 5.134 0 0 1 2.988-.949Zm-7.744-10.468c0 5.115-4.197 9.268-9.401 9.268s-9.401-4.153-9.401-9.268c0-5.114 4.197-9.267 9.401-9.267s9.401 4.153 9.401 9.267Zm-9.401 14.696c2.246 0 4.353-.529 6.25-1.409h.608c5.355 0 9.687 4.285 9.687 9.549v2.537c0 1.996-1.644 3.629-3.687 3.629h-25.717c-2.042 0-3.686-1.633-3.686-3.629v-2.537c0-5.264 4.332-9.549 9.687-9.549h.608c1.904.88 4.003 1.409 6.25 1.409Zm-17.145-4.228c1.117 0 2.147.351 2.988.949-3.217 2.011-5.517 5.277-6.19 9.127h-5.37c-1.257 0-2.258-.998-2.258-2.219v-2.819c0-2.771 2.287-5.038 5.115-5.038h5.715Z"/><g filter="url(#S)"><rect width="74.526" height="74.526" x="347.25" y="655.726" fill="#9B5CD0" fill-opacity=".29" rx="37.263"/><rect width="74.526" height="74.526" x="347.25" y="655.726" stroke="#957AE0" stroke-width="3" rx="37.263"/></g><g filter="url(#T)"><path fill="url(#U)" stroke="url(#V)" stroke-width="2.171" d="M371.505 686.058c0 1.929-1.595 3.524-3.586 3.524-1.992 0-3.587-1.595-3.587-3.524s1.595-3.524 3.587-3.524c1.991 0 3.586 1.595 3.586 3.524Zm32.705 0c0 1.929-1.596 3.524-3.587 3.524s-3.586-1.595-3.586-3.524 1.595-3.524 3.586-3.524c1.991 0 3.587 1.595 3.587 3.524Zm-2.821 15.048c-.605-2.773-2.201-5.159-4.406-6.808a3.63 3.63 0 0 1 1.304-.24h4.672c1.991 0 3.587 1.595 3.587 3.524v2.305c0 .661-.544 1.219-1.251 1.219h-3.906Zm-10.028-16.2c0 3.845-3.157 6.981-7.09 6.981s-7.091-3.136-7.091-6.981c0-3.845 3.158-6.981 7.091-6.981 3.933 0 7.09 3.136 7.09 6.981Zm-7.09 12.609c1.883 0 3.649-.433 5.24-1.152h.366c4.058 0 7.324 3.244 7.324 7.211v2.075c0 1.295-1.069 2.371-2.418 2.371h-21.024c-1.349 0-2.419-1.076-2.419-2.371v-2.075c0-3.967 3.267-7.211 7.324-7.211h.368c1.595.719 3.354 1.152 5.239 1.152Zm-14.016-3.457c.46 0 .9.085 1.304.24a11.612 11.612 0 0 0-4.411 6.808h-3.902c-.706 0-1.25-.558-1.25-1.219v-2.305c0-1.929 1.595-3.524 3.586-3.524h4.673Z"/></g><path stroke="url(#W)" stroke-width="1.2" d="M371.995 686.062c0 2.203-1.819 4.009-4.073 4.009-2.253 0-4.072-1.806-4.072-4.009 0-2.204 1.819-4.01 4.072-4.01 2.254 0 4.073 1.806 4.073 4.01Zm32.704 0c0 2.203-1.819 4.009-4.072 4.009s-4.072-1.806-4.072-4.009c0-2.204 1.819-4.01 4.072-4.01s4.072 1.806 4.072 4.01Zm-3.705 15.533c-.559-3.084-2.39-5.705-4.947-7.355a4.092 4.092 0 0 1 2.244-.664h4.672c2.253 0 4.072 1.806 4.072 4.01v2.305c0 .936-.767 1.704-1.736 1.704h-4.305Zm-9.143-16.685c0 4.119-3.381 7.466-7.576 7.466s-7.576-3.347-7.576-7.466c0-4.12 3.381-7.467 7.576-7.467s7.576 3.347 7.576 7.467Zm-7.576 12.123a12.2 12.2 0 0 0 5.134-1.152h.472c4.319 0 7.81 3.455 7.81 7.697v2.075c0 1.569-1.293 2.857-2.904 2.857h-21.024c-1.611 0-2.904-1.288-2.904-2.857v-2.075c0-4.242 3.49-7.697 7.809-7.697h.473c1.564.719 3.288 1.152 5.134 1.152Zm-14.016-3.457c.83 0 1.6.244 2.243.664-2.556 1.65-4.388 4.271-4.953 7.355h-4.299c-.968 0-1.736-.768-1.736-1.704v-2.305c0-2.204 1.819-4.01 4.072-4.01h4.673Z"/><g filter="url(#X)"><rect width="125.691" height="125.691" x="666.311" y="648.819" fill="#9B5CD0" fill-opacity=".29" rx="62.845"/><rect width="125.691" height="125.691" x="666.311" y="648.819" stroke="#957AE0" stroke-width="3" rx="62.845"/></g><g filter="url(#Y)"><path fill="url(#Z)" stroke="url(#aa)" stroke-width="2.171" d="M707.965 699.985c0 3.674-3.033 6.688-6.794 6.688-3.76 0-6.794-3.014-6.794-6.688 0-3.675 3.034-6.689 6.794-6.689 3.761 0 6.794 3.014 6.794 6.689Zm55.157 0c0 3.674-3.033 6.688-6.793 6.688-3.761 0-6.794-3.014-6.794-6.688 0-3.675 3.033-6.689 6.794-6.689 3.76 0 6.793 3.014 6.793 6.689Zm-6.113 26.124c-.953-5.158-4.007-9.546-8.268-12.331a6.823 6.823 0 0 1 3.648-1.046h7.879c3.761 0 6.794 3.014 6.794 6.688v3.887c0 1.537-1.26 2.802-2.854 2.802h-7.199Zm-15.555-28.068c0 6.906-5.669 12.519-12.704 12.519-7.035 0-12.704-5.613-12.704-12.519 0-6.905 5.669-12.519 12.704-12.519 7.035 0 12.704 5.614 12.704 12.519Zm-12.704 20.521c3.117 0 6.042-.729 8.675-1.943h.78c7.245 0 13.098 5.795 13.098 12.908v3.498c0 2.606-2.147 4.745-4.824 4.745h-35.458c-2.677 0-4.824-2.139-4.824-4.745v-3.498c0-7.113 5.853-12.908 13.097-12.908h.782c2.642 1.213 5.555 1.943 8.674 1.943Zm-23.639-5.83c1.345 0 2.594.383 3.648 1.046-4.262 2.785-7.316 7.174-8.279 12.331h-7.188c-1.594 0-2.854-1.265-2.854-2.802v-3.887c0-3.674 3.033-6.688 6.793-6.688h7.88Z"/></g><path stroke="url(#ab)" stroke-width="1.5" d="M708.303 699.977c0 3.864-3.188 7.024-7.13 7.024-3.941 0-7.129-3.16-7.129-7.024s3.188-7.024 7.129-7.024c3.942 0 7.13 3.16 7.13 7.024Zm55.157 0c0 3.864-3.188 7.024-7.129 7.024-3.942 0-7.13-3.16-7.13-7.024s3.188-7.024 7.13-7.024c3.941 0 7.129 3.16 7.129 7.024Zm-6.73 26.46c-.906-5.354-4.111-9.891-8.598-12.657a7.157 7.157 0 0 1 4.259-1.392h7.879c3.942 0 7.13 3.16 7.13 7.024v3.888c0 1.726-1.415 3.137-3.19 3.137h-7.48Zm-14.939-28.403c0 7.095-5.823 12.854-13.039 12.854-7.217 0-13.039-5.759-13.039-12.854 0-7.096 5.822-12.855 13.039-12.855 7.216 0 13.039 5.759 13.039 12.855Zm-13.039 20.185c3.09 0 5.99-.73 8.601-1.944h.854c7.426 0 13.434 5.942 13.434 13.244v3.498c0 2.796-2.302 5.081-5.16 5.081h-35.458c-2.858 0-5.16-2.285-5.16-5.081v-3.498c0-7.302 6.008-13.244 13.433-13.244h.856c2.62 1.214 5.509 1.944 8.6 1.944Zm-23.639-5.831c1.598 0 3.069.517 4.258 1.392-4.487 2.766-7.692 7.303-8.608 12.657h-7.469c-1.775 0-3.19-1.411-3.19-3.137v-3.888c0-3.864 3.188-7.024 7.129-7.024h7.88Z"/><defs><linearGradient id="d" x1="674.714" x2="674.714" y1="458.823" y2="573.235" gradientUnits="userSpaceOnUse"><stop stop-color="#BDA0FF"/><stop offset="1" stop-color="#452EA3"/><stop offset="1"/></linearGradient><linearGradient id="g" x1="625.253" x2="625.253" y1="510.069" y2="723.399" gradientUnits="userSpaceOnUse"><stop stop-color="#BDA0FF"/><stop offset="1" stop-color="#452EA3"/><stop offset="1"/></linearGradient><linearGradient id="i" x1="616.042" x2="627.714" y1="438.634" y2="624.967" gradientUnits="userSpaceOnUse"><stop stop-color="#B195FF"/><stop offset="1" stop-color="#D795FF"/></linearGradient><linearGradient id="k" x1="611.551" x2="611.551" y1="592.3" y2="663.807" gradientUnits="userSpaceOnUse"><stop stop-color="#BDA0FF"/><stop offset="1" stop-color="#452EA3"/><stop offset="1"/></linearGradient><linearGradient id="m" x1="631.809" x2="631.809" y1="614.944" y2="667.383" gradientUnits="userSpaceOnUse"><stop stop-color="#BDA0FF"/><stop offset="1" stop-color="#452EA3"/><stop offset="1"/></linearGradient><linearGradient id="o" x1="531.699" x2="531.699" y1="409.956" y2="577.998" gradientUnits="userSpaceOnUse"><stop stop-color="#fff"/><stop offset=".537" stop-color="#D3D3D3"/><stop offset=".576" stop-color="#B5B5B5"/><stop offset="1" stop-color="#C1C1C1"/></linearGradient><linearGradient id="q" x1="470.324" x2="470.324" y1="544.632" y2="593.495" gradientUnits="userSpaceOnUse"><stop stop-color="#BDA0FF"/><stop offset="1" stop-color="#452EA3"/><stop offset="1"/></linearGradient><linearGradient id="s" x1="514.42" x2="514.42" y1="586.343" y2="635.206" gradientUnits="userSpaceOnUse"><stop stop-color="#BDA0FF"/><stop offset="1" stop-color="#452EA3"/><stop offset="1"/></linearGradient><linearGradient id="u" x1="462.575" x2="462.575" y1="604.218" y2="632.821" gradientUnits="userSpaceOnUse"><stop stop-color="#BDA0FF"/><stop offset="1" stop-color="#452EA3"/><stop offset="1"/></linearGradient><linearGradient id="v" x1="591.991" x2="591.991" y1="384.202" y2="729.732" gradientUnits="userSpaceOnUse"><stop stop-color="#BDA0FF"/><stop offset="1" stop-color="#452EA3"/><stop offset="1"/></linearGradient><linearGradient id="w" x1="599.47" x2="600.565" y1="555.898" y2="624.843" gradientUnits="userSpaceOnUse"><stop stop-color="#BDA0FF"/><stop offset="1" stop-color="#1A12ED"/><stop offset="1" stop-color="#1B1786"/><stop offset="1"/></linearGradient><linearGradient id="x" x1="638.167" x2="639.648" y1="570.211" y2="626.292" gradientUnits="userSpaceOnUse"><stop stop-color="#BDA0FF"/><stop offset="1" stop-color="#1A12ED"/><stop offset="1" stop-color="#1B1786"/><stop offset="1"/></linearGradient><linearGradient id="y" x1="211.643" x2="245.092" y1="41.091" y2="713.234" gradientUnits="userSpaceOnUse"><stop stop-color="#B195FF"/><stop offset="1" stop-color="#E9C6FF"/></linearGradient><linearGradient id="z" x1="206.874" x2="240.322" y1="45.861" y2="718.004" gradientUnits="userSpaceOnUse"><stop stop-color="#B195FF"/><stop offset="1" stop-color="#E9C6FF"/></linearGradient><linearGradient id="A" x1="216.411" x2="249.859" y1="36.326" y2="708.469" gradientUnits="userSpaceOnUse"><stop stop-color="#B195FF"/><stop offset="1" stop-color="#E9C6FF"/></linearGradient><linearGradient id="B" x1="-35.114" x2="617.439" y1="737.36" y2="901.888" gradientUnits="userSpaceOnUse"><stop stop-color="#B195FF"/><stop offset="1" stop-color="#E9C6FF"/></linearGradient><linearGradient id="C" x1="-31.95" x2="620.603" y1="743.317" y2="907.845" gradientUnits="userSpaceOnUse"><stop stop-color="#B195FF"/><stop offset="1" stop-color="#E9C6FF"/></linearGradient><linearGradient id="D" x1="-38.279" x2="614.275" y1="731.411" y2="895.939" gradientUnits="userSpaceOnUse"><stop stop-color="#B195FF"/><stop offset="1" stop-color="#E9C6FF"/></linearGradient><linearGradient id="K" x1="273.217" x2="280.586" y1="279.433" y2="449.778" gradientUnits="userSpaceOnUse"><stop stop-color="#5A42B2"/><stop offset="1" stop-color="#DAB3FF"/></linearGradient><linearGradient id="L" x1="374.34" x2="374.34" y1="373.96" y2="445.722" gradientUnits="userSpaceOnUse"><stop stop-color="#BC6DFF"/><stop offset="1" stop-color="#714199"/></linearGradient><linearGradient id="M" x1="273.217" x2="280.586" y1="279.433" y2="449.778" gradientUnits="userSpaceOnUse"><stop stop-color="#E9CDFF"/><stop offset="1" stop-color="#E9C6FF"/></linearGradient><linearGradient id="P" x1="676.695" x2="680.748" y1="383.712" y2="477.402" gradientUnits="userSpaceOnUse"><stop stop-color="#5A42B2"/><stop offset="1" stop-color="#DAB3FF"/></linearGradient><linearGradient id="Q" x1="732.313" x2="732.313" y1="435.702" y2="475.171" gradientUnits="userSpaceOnUse"><stop stop-color="#BC6DFF"/><stop offset="1" stop-color="#714199"/></linearGradient><linearGradient id="R" x1="676.697" x2="680.75" y1="383.712" y2="477.402" gradientUnits="userSpaceOnUse"><stop stop-color="#E9CDFF"/><stop offset="1" stop-color="#E9C6FF"/></linearGradient><linearGradient id="U" x1="338.801" x2="342.115" y1="634.335" y2="710.93" gradientUnits="userSpaceOnUse"><stop stop-color="#5A42B2"/><stop offset="1" stop-color="#DAB3FF"/></linearGradient><linearGradient id="V" x1="384.271" x2="384.271" y1="676.839" y2="709.106" gradientUnits="userSpaceOnUse"><stop stop-color="#BC6DFF"/><stop offset="1" stop-color="#714199"/></linearGradient><linearGradient id="W" x1="338.805" x2="342.119" y1="634.339" y2="710.934" gradientUnits="userSpaceOnUse"><stop stop-color="#E9CDFF"/><stop offset="1" stop-color="#E9C6FF"/></linearGradient><linearGradient id="Z" x1="652.064" x2="657.653" y1="612.753" y2="741.932" gradientUnits="userSpaceOnUse"><stop stop-color="#5A42B2"/><stop offset="1" stop-color="#DAB3FF"/></linearGradient><linearGradient id="aa" x1="728.75" x2="728.75" y1="684.437" y2="738.856" gradientUnits="userSpaceOnUse"><stop stop-color="#BC6DFF"/><stop offset="1" stop-color="#714199"/></linearGradient><linearGradient id="ab" x1="652.066" x2="657.655" y1="612.746" y2="741.924" gradientUnits="userSpaceOnUse"><stop stop-color="#E9CDFF"/><stop offset="1" stop-color="#E9C6FF"/></linearGradient><filter id="a" width="1129" height="1089" x="0" y="-.001" color-interpolation-filters="sRGB" filterUnits="userSpaceOnUse"><feFlood flood-opacity="0" result="BackgroundImageFix"/><feBlend in="SourceGraphic" in2="BackgroundImageFix" result="shape"/><feGaussianBlur result="effect1_foregroundBlur_1_2399" stdDeviation="150"/></filter><filter id="c" width="154.412" height="154.412" x="597.508" y="438.823" color-interpolation-filters="sRGB" filterUnits="userSpaceOnUse"><feFlood flood-opacity="0" result="BackgroundImageFix"/><feBlend in="SourceGraphic" in2="BackgroundImageFix" result="shape"/><feGaussianBlur result="effect1_foregroundBlur_1_2399" stdDeviation="10"/></filter><filter id="f" width="259.33" height="259.33" x="495.588" y="487.069" color-interpolation-filters="sRGB" filterUnits="userSpaceOnUse"><feFlood flood-opacity="0" result="BackgroundImageFix"/><feBlend in="SourceGraphic" in2="BackgroundImageFix" result="shape"/><feGaussianBlur result="effect1_foregroundBlur_1_2399" stdDeviation="11.5"/></filter><filter id="h" width="124.658" height="124.658" x="630.264" y="519.245" color-interpolation-filters="sRGB" filterUnits="userSpaceOnUse"><feFlood flood-opacity="0" result="BackgroundImageFix"/><feBlend in="SourceGraphic" in2="BackgroundImageFix" result="shape"/><feGaussianBlur result="effect1_foregroundBlur_1_2399" stdDeviation="11.5"/></filter><filter id="j" width="97.507" height="97.507" x="562.797" y="579.3" color-interpolation-filters="sRGB" filterUnits="userSpaceOnUse"><feFlood flood-opacity="0" result="BackgroundImageFix"/><feBlend in="SourceGraphic" in2="BackgroundImageFix" result="shape"/><feGaussianBlur result="effect1_foregroundBlur_1_2399" stdDeviation="6.5"/></filter><filter id="l" width="78.439" height="78.439" x="592.59" y="601.944" color-interpolation-filters="sRGB" filterUnits="userSpaceOnUse"><feFlood flood-opacity="0" result="BackgroundImageFix"/><feBlend in="SourceGraphic" in2="BackgroundImageFix" result="shape"/><feGaussianBlur result="effect1_foregroundBlur_1_2399" stdDeviation="6.5"/></filter><filter id="n" width="204.768" height="194.042" x="429.315" y="396.956" color-interpolation-filters="sRGB" filterUnits="userSpaceOnUse"><feFlood flood-opacity="0" result="BackgroundImageFix"/><feBlend in="SourceGraphic" in2="BackgroundImageFix" result="shape"/><feGaussianBlur result="effect1_foregroundBlur_1_2399" stdDeviation="6.5"/></filter><filter id="p" width="76.863" height="76.863" x="431.893" y="530.632" color-interpolation-filters="sRGB" filterUnits="userSpaceOnUse"><feFlood flood-opacity="0" result="BackgroundImageFix"/><feBlend in="SourceGraphic" in2="BackgroundImageFix" result="shape"/><feGaussianBlur result="effect1_foregroundBlur_1_2399" stdDeviation="7"/></filter><filter id="r" width="76.863" height="76.863" x="475.989" y="572.343" color-interpolation-filters="sRGB" filterUnits="userSpaceOnUse"><feFlood flood-opacity="0" result="BackgroundImageFix"/><feBlend in="SourceGraphic" in2="BackgroundImageFix" result="shape"/><feGaussianBlur result="effect1_foregroundBlur_1_2399" stdDeviation="7"/></filter><filter id="t" width="56.603" height="56.603" x="434.274" y="590.218" color-interpolation-filters="sRGB" filterUnits="userSpaceOnUse"><feFlood flood-opacity="0" result="BackgroundImageFix"/><feBlend in="SourceGraphic" in2="BackgroundImageFix" result="shape"/><feGaussianBlur result="effect1_foregroundBlur_1_2399" stdDeviation="7"/></filter><filter id="E" width="58.987" height="58.986" x="698.369" y="663.804" color-interpolation-filters="sRGB" filterUnits="userSpaceOnUse"><feFlood flood-opacity="0" result="BackgroundImageFix"/><feBlend in="SourceGraphic" in2="BackgroundImageFix" result="shape"/><feGaussianBlur result="effect1_foregroundBlur_1_2399" stdDeviation="7"/></filter><filter id="F" width="58.987" height="58.986" x="355.135" y="384.925" color-interpolation-filters="sRGB" filterUnits="userSpaceOnUse"><feFlood flood-opacity="0" result="BackgroundImageFix"/><feBlend in="SourceGraphic" in2="BackgroundImageFix" result="shape"/><feGaussianBlur result="effect1_foregroundBlur_1_2399" stdDeviation="7"/></filter><filter id="G" width="58.987" height="58.986" x="707.903" y="393.269" color-interpolation-filters="sRGB" filterUnits="userSpaceOnUse"><feFlood flood-opacity="0" result="BackgroundImageFix"/><feBlend in="SourceGraphic" in2="BackgroundImageFix" result="shape"/><feGaussianBlur result="effect1_foregroundBlur_1_2399" stdDeviation="7"/></filter><filter id="H" width="58.987" height="58.986" x="355.135" y="663.804" color-interpolation-filters="sRGB" filterUnits="userSpaceOnUse"><feFlood flood-opacity="0" result="BackgroundImageFix"/><feBlend in="SourceGraphic" in2="BackgroundImageFix" result="shape"/><feGaussianBlur result="effect1_foregroundBlur_1_2399" stdDeviation="7"/></filter><filter id="I" width="318.746" height="318.746" x="215.5" y="250.499" color-interpolation-filters="sRGB" filterUnits="userSpaceOnUse"><feFlood flood-opacity="0" result="BackgroundImageFix"/><feGaussianBlur in="BackgroundImageFix" stdDeviation="37.5"/><feComposite in2="SourceAlpha" operator="in" result="effect1_backgroundBlur_1_2399"/><feBlend in="SourceGraphic" in2="effect1_backgroundBlur_1_2399" result="shape"/><feColorMatrix in="SourceAlpha" result="hardAlpha" values="0 0 0 0 0 0 0 0 0 0 0 0 0 0 0 0 0 0 127 0"/><feOffset dx="3" dy="3"/><feGaussianBlur stdDeviation="1.5"/><feComposite in2="hardAlpha" k2="-1" k3="1" operator="arithmetic"/><feColorMatrix values="0 0 0 0 0 0 0 0 0 0 0 0 0 0 0 0 0 0 0.15 0"/><feBlend in2="shape" result="effect2_innerShadow_1_2399"/></filter><filter id="J" width="175.907" height="143.762" x="286.387" y="337.96" color-interpolation-filters="sRGB" filterUnits="userSpaceOnUse"><feFlood flood-opacity="0" result="BackgroundImageFix"/><feGaussianBlur in="BackgroundImageFix" stdDeviation="18"/><feComposite in2="SourceAlpha" operator="in" result="effect1_backgroundBlur_1_2399"/><feBlend in="SourceGraphic" in2="effect1_backgroundBlur_1_2399" result="shape"/><feGaussianBlur result="effect2_foregroundBlur_1_2399" stdDeviation="5"/></filter><filter id="N" width="244.16" height="244.16" x="610.528" y="333.374" color-interpolation-filters="sRGB" filterUnits="userSpaceOnUse"><feFlood flood-opacity="0" result="BackgroundImageFix"/><feGaussianBlur in="BackgroundImageFix" stdDeviation="37.5"/><feComposite in2="SourceAlpha" operator="in" result="effect1_backgroundBlur_1_2399"/><feBlend in="SourceGraphic" in2="effect1_backgroundBlur_1_2399" result="shape"/><feColorMatrix in="SourceAlpha" result="hardAlpha" values="0 0 0 0 0 0 0 0 0 0 0 0 0 0 0 0 0 0 127 0"/><feOffset dx="3" dy="3"/><feGaussianBlur stdDeviation="1.5"/><feComposite in2="hardAlpha" k2="-1" k3="1" operator="arithmetic"/><feColorMatrix values="0 0 0 0 0 0 0 0 0 0 0 0 0 0 0 0 0 0 0.15 0"/><feBlend in2="shape" result="effect2_innerShadow_1_2399"/></filter><filter id="O" width="129.149" height="111.469" x="667.739" y="399.702" color-interpolation-filters="sRGB" filterUnits="userSpaceOnUse"><feFlood flood-opacity="0" result="BackgroundImageFix"/><feGaussianBlur in="BackgroundImageFix" stdDeviation="18"/><feComposite in2="SourceAlpha" operator="in" result="effect1_backgroundBlur_1_2399"/><feBlend in="SourceGraphic" in2="effect1_backgroundBlur_1_2399" result="shape"/><feGaussianBlur result="effect2_foregroundBlur_1_2399" stdDeviation="5"/></filter><filter id="S" width="227.526" height="227.526" x="270.75" y="579.226" color-interpolation-filters="sRGB" filterUnits="userSpaceOnUse"><feFlood flood-opacity="0" result="BackgroundImageFix"/><feGaussianBlur in="BackgroundImageFix" stdDeviation="37.5"/><feComposite in2="SourceAlpha" operator="in" result="effect1_backgroundBlur_1_2399"/><feBlend in="SourceGraphic" in2="effect1_backgroundBlur_1_2399" result="shape"/><feColorMatrix in="SourceAlpha" result="hardAlpha" values="0 0 0 0 0 0 0 0 0 0 0 0 0 0 0 0 0 0 127 0"/><feOffset dx="3" dy="3"/><feGaussianBlur stdDeviation="1.5"/><feComposite in2="hardAlpha" k2="-1" k3="1" operator="arithmetic"/><feColorMatrix values="0 0 0 0 0 0 0 0 0 0 0 0 0 0 0 0 0 0 0.15 0"/><feBlend in2="shape" result="effect2_innerShadow_1_2399"/></filter><filter id="T" width="118.721" height="104.267" x="324.91" y="640.839" color-interpolation-filters="sRGB" filterUnits="userSpaceOnUse"><feFlood flood-opacity="0" result="BackgroundImageFix"/><feGaussianBlur in="BackgroundImageFix" stdDeviation="18"/><feComposite in2="SourceAlpha" operator="in" result="effect1_backgroundBlur_1_2399"/><feBlend in="SourceGraphic" in2="effect1_backgroundBlur_1_2399" result="shape"/><feGaussianBlur result="effect2_foregroundBlur_1_2399" stdDeviation="5"/></filter><filter id="X" width="278.691" height="278.69" x="589.811" y="572.319" color-interpolation-filters="sRGB" filterUnits="userSpaceOnUse"><feFlood flood-opacity="0" result="BackgroundImageFix"/><feGaussianBlur in="BackgroundImageFix" stdDeviation="37.5"/><feComposite in2="SourceAlpha" operator="in" result="effect1_backgroundBlur_1_2399"/><feBlend in="SourceGraphic" in2="effect1_backgroundBlur_1_2399" result="shape"/><feColorMatrix in="SourceAlpha" result="hardAlpha" values="0 0 0 0 0 0 0 0 0 0 0 0 0 0 0 0 0 0 127 0"/><feOffset dx="3" dy="3"/><feGaussianBlur stdDeviation="1.5"/><feComposite in2="hardAlpha" k2="-1" k3="1" operator="arithmetic"/><feColorMatrix values="0 0 0 0 0 0 0 0 0 0 0 0 0 0 0 0 0 0 0.15 0"/><feBlend in2="shape" result="effect2_innerShadow_1_2399"/></filter><filter id="Y" width="150.796" height="126.419" x="653.352" y="648.437" color-interpolation-filters="sRGB" filterUnits="userSpaceOnUse"><feFlood flood-opacity="0" result="BackgroundImageFix"/><feGaussianBlur in="BackgroundImageFix" stdDeviation="18"/><feComposite in2="SourceAlpha" operator="in" result="effect1_backgroundBlur_1_2399"/><feBlend in="SourceGraphic" in2="effect1_backgroundBlur_1_2399" result="shape"/><feGaussianBlur result="effect2_foregroundBlur_1_2399" stdDeviation="5"/></filter><radialGradient id="b" cx="0" cy="0" r="1" gradientTransform="rotate(30.413 -747.225 1090.112) scale(312.317 299.564)" gradientUnits="userSpaceOnUse"><stop stop-color="#E0B9FF"/><stop offset="1" stop-color="#8161FF"/></radialGradient></defs></svg>