<svg xmlns="http://www.w3.org/2000/svg" width="119" height="120" fill="none"><path fill="#fff" d="M115.923 54.366a9.336 9.336 0 0 1-1.357-3.848 20.824 20.824 0 0 1-.168-1.536c-.059-.9.144-1.772.34-2.64.382-1.685.629-3.375.328-5.109a13.344 13.344 0 0 0-3.038-6.624c-.749-.862-1.662-1.527-2.578-2.185-1.036-.744-2.013-1.543-2.633-2.706-.043-.082-.112-.15-.163-.227-.574-.89-1.125-1.792-1.333-2.86-.068-.352-.133-.706-.214-1.056-.227-.987-.391-1.998-.71-2.954-.672-2.016-1.923-3.651-3.468-5.059a11.043 11.043 0 0 0-5.138-2.693 54.192 54.192 0 0 1-1.614-.38 6.701 6.701 0 0 1-2.253-.915c-.468-.325-.928-.663-1.408-.97a6.521 6.521 0 0 1-1.87-1.914c-.374-.554-.74-1.113-1.11-1.67a10.716 10.716 0 0 0-2.824-2.926c-2.147-1.485-4.5-2.356-7.111-2.354-.858.042-1.712.14-2.556.296-.654.09-1.302.216-1.955.312-.868.125-1.71-.086-2.555-.232a7.912 7.912 0 0 1-3.405-1.333 16.512 16.512 0 0 0-1.157-.768c-.54-.329-1.076-.67-1.64-.946A11.243 11.243 0 0 0 59.328.002c-2.19-.003-4.263.474-6.141 1.67-.482.306-.951.633-1.434.936-.472.295-.95.574-1.428.855a2.579 2.579 0 0 1-1.868.29c-.752-.15-1.508-.289-2.251-.475a11.162 11.162 0 0 0-5.377-.132c-2.492.589-4.717 1.682-6.46 3.64-.524.59-.972 1.248-1.462 1.87-.393.5-.794.993-1.197 1.485-.303.381-.735.632-1.211.705-.772.125-1.54.288-2.317.361a11.699 11.699 0 0 0-6.298 2.505c-2.11 1.671-3.624 3.755-4.338 6.406-.138.513-.295 1.02-.458 1.524a7.91 7.91 0 0 1-3.692 4.605c-.656.375-1.313.747-1.96 1.137a9.182 9.182 0 0 0-2.127 1.708C6.605 32.11 5.348 35.61 5.905 39.724c.127.942.235 1.902.032 2.849-.157.73-.388 1.444-.57 2.17a6.426 6.426 0 0 1-1.09 2.256c-.478.65-.972 1.29-1.453 1.938a10.046 10.046 0 0 0-1.71 3.506c-.206.769-.357 1.551-.45 2.342C.418 57.083.68 59.31 1.722 61.4c.333.669.688 1.327 1.031 1.99.323.624.664 1.258.742 1.96.1.896.437 1.751.39 2.674-.02.4.094.806.113 1.211.046.918-.183 1.798-.398 2.678-.308 1.26-.629 2.517-.647 3.836.078.698.116 1.404.244 2.092a12.853 12.853 0 0 0 2.91 6.23c.738.849 1.63 1.517 2.51 2.197a9.201 9.201 0 0 1 2.36 2.593 8.978 8.978 0 0 1 1.233 3.448c.159 1.191.271 2.402.702 3.53 1.51 3.954 4.172 6.676 8.228 7.876.825.244 1.657.464 2.47.744a5.047 5.047 0 0 1 2.701 2.156c.377.607.748 1.221 1.082 1.854a11.675 11.675 0 0 0 4.739 4.848c1.692.942 3.478 1.581 5.426 1.593.903.005 1.806-.1 2.709-.168.855-.066 1.71-.211 2.567-.041.45.09.897.203 1.342.318 1.121.29 2.21.654 3.134 1.403.42.34.864.652 1.284.992a11.223 11.223 0 0 0 5.919 2.485c2.417.277 4.747.008 6.924-1.177.663-.36 1.319-.737 1.98-1.098a6.224 6.224 0 0 1 2.018-.764 69.92 69.92 0 0 1 2.324-.318c.273-.042.55-.043.824-.002.904.168 1.812.328 2.7.563 1.731.458 3.47.637 5.238.283 3.194-.64 5.87-2.144 7.809-4.875.09-.126.19-.245.282-.371a9.727 9.727 0 0 1 2.795-2.674c1.24-.761 2.503-1.362 3.955-1.544a21.04 21.04 0 0 0 2.622-.491c3.402-.877 7.13-4.206 8.202-8.077.121-.436.248-.87.357-1.31.327-1.326.771-2.578 1.588-3.707.83-1.148 1.707-2.204 2.938-2.915.374-.216.735-.455 1.098-.689a11.76 11.76 0 0 0 2.08-1.62 13.036 13.036 0 0 0 3.156-5.435c.444-1.354.603-2.788.468-4.21-.102-.9-.226-1.798-.33-2.697a7.016 7.016 0 0 1 .054-2.38c.135-.592.283-1.182.409-1.776a5.45 5.45 0 0 1 .73-1.811c.384-.604.781-1.198 1.192-1.783a11.933 11.933 0 0 0 1.946-4.164c.224-.96.345-1.94.362-2.925.032-1.935-.273-3.803-1.159-5.536a23.33 23.33 0 0 0-1.152-2.03Zm-1.161 8.328a8.503 8.503 0 0 1-1.656 4.358c-.511.703-.979 1.44-1.434 2.18a8.194 8.194 0 0 0-.957 2.377c-.067.27-.174.53-.264.795a1.18 1.18 0 0 0-.065.174c-.099.662-.193 1.325-.292 1.986-.103.918-.084 1.846.057 2.758.108.93.253 1.859.321 2.793.167 2.27-1.263 5.814-3.702 7.382-.609.393-1.222.781-1.83 1.176a9.882 9.882 0 0 0-2.899 2.709c-.077.114-.195.198-.28.308a7.77 7.77 0 0 0-.369.52c-.084.13-.137.283-.23.404a9.47 9.47 0 0 0-1.564 3.216c-.185.645-.372 1.29-.525 1.944-.553 2.359-1.982 4.046-3.916 5.353a7.91 7.91 0 0 1-3.263 1.193c-.984.158-1.973.312-2.935.568-.67.218-1.325.485-1.958.798-.309.132-.609.288-.912.434-.07.032-.136.07-.2.113-.36.261-.712.537-1.08.786a10.09 10.09 0 0 0-2.27 2.177c-.364.464-.735.923-1.08 1.403-1.135 1.581-2.68 2.537-4.494 3.092a8.619 8.619 0 0 1-2.504.393 9.01 9.01 0 0 1-2.212-.336c-.987-.226-1.968-.499-2.968-.64-.705-.1-1.435-.016-2.154-.009-.122 0-.243.036-.366.04a2.811 2.811 0 0 0-.685.014c-1.072.314-2.218.347-3.23.885-.68.36-1.366.709-2.042 1.08-.824.451-1.63.953-2.56 1.146-2.678.557-5.187.225-7.424-1.502-.66-.51-1.32-1.02-2-1.505a8.666 8.666 0 0 0-2.736-1.308 6.11 6.11 0 0 1-.599-.23 1.569 1.569 0 0 0-.254-.106c-.645-.128-1.29-.258-1.938-.37a10.32 10.32 0 0 0-2.709-.03c-.764.072-1.526.162-2.291.212-1.75.115-3.327-.447-4.81-1.336a7.782 7.782 0 0 1-2.866-2.917 97.872 97.872 0 0 0-1.184-2.064 8.983 8.983 0 0 0-5.39-4.19c-.62-.182-1.237-.37-1.861-.528-2.55-.65-4.296-2.308-5.565-4.574-.584-1.044-.76-2.203-.925-3.365-.159-1.114-.29-2.24-.728-3.283-.842-2.005-1.944-3.828-3.673-5.185-.474-.373-.934-.764-1.417-1.123-1.721-1.28-2.692-3.043-3.201-5.108a8.43 8.43 0 0 1 .025-4.083c.264-.995.477-2.004.638-3.022.083-.76.09-1.527.021-2.29a33.02 33.02 0 0 0-.154-1.7c-.06-.49-.112-.972-.173-1.373-.138-1.395-.73-2.544-1.373-3.763A52.445 52.445 0 0 1 4.7 59.65a7.931 7.931 0 0 1-.669-4.068c.048-.607.138-1.21.271-1.804a7.196 7.196 0 0 1 1.31-2.818c.504-.67 1.015-1.335 1.505-2.016a11.456 11.456 0 0 0 1.534-3.13c.201-.607.31-1.227.488-1.832.382-1.296.353-2.625.243-3.955-.046-.545-.095-1.09-.143-1.635-.176-2.002.405-3.798 1.445-5.465a7.695 7.695 0 0 1 2.758-2.703 76.54 76.54 0 0 0 2.197-1.28 10.326 10.326 0 0 0 2.579-2.31 12.013 12.013 0 0 0 2.34-4.577c.135-.497.306-.984.444-1.48.714-2.59 3.808-5.556 7.114-5.833.839-.07 1.672-.231 2.506-.348a5.965 5.965 0 0 0 4.011-2.334c.477-.612.97-1.215 1.404-1.857 1.51-2.232 3.657-3.36 6.223-3.765 1.142-.181 2.257.033 3.372.285.942.212 1.893.384 2.846.535 1.302.207 2.5-.16 3.62-.801.775-.444 1.535-.92 2.269-1.431 2.36-1.644 4.916-1.875 7.614-1.152.65.194 1.266.488 1.828.87.729.464 1.444.951 2.177 1.407.956.564 1.99.978 3.067 1.228.596.154 1.196.21 1.79.338 1.412.305 2.809.126 4.204-.131.905-.168 1.808-.402 2.734-.344 2.72.169 5.025 1.209 6.716 3.452.494.657.92 1.366 1.384 2.047a11.449 11.449 0 0 0 2.597 2.696c.53.4 1.098.72 1.636 1.095 1.053.738 2.255 1.118 3.487 1.41.433.101.867.204 1.302.298 2.498.535 4.283 2.064 5.639 4.194.623.98.877 2.085 1.101 3.209.171.952.39 1.895.656 2.824.244.656.532 1.294.864 1.909.118.253.25.499.377.747.036.085.079.167.129.244.249.335.518.654.754.997.679.95 1.507 1.78 2.449 2.457.419.316.838.635 1.267.936 1.787 1.25 2.788 3.028 3.357 5.11.413 1.507.298 2.997-.047 4.496-.188.82-.317 1.656-.445 2.49a7.408 7.408 0 0 0 .078 2.471c.016.044.024.09.025.138-.094.691.233 1.309.337 1.965.19 1.189.699 2.26 1.296 3.288.336.578.676 1.154 1.014 1.731.952 1.625 1.162 3.4 1.007 5.247h.001Z"/><path fill="#fff" d="M91.252 60.018c-.01-17.938-14.298-32.396-31.7-32.47-17.73-.077-31.966 14.654-31.995 32.405-.03 17.75 14.146 32.51 31.839 32.517 17.551.007 31.855-14.566 31.856-32.452ZM59.325 89.846c-16.229-.039-29.214-13.533-29.193-29.86.025-16.355 13.23-29.803 29.281-29.82 16.388.03 29.29 13.672 29.266 29.888-.023 16.18-12.93 29.831-29.354 29.792ZM92.968 39.962l-1.603.567c.055.19.089.325.133.456.248.74.511 1.473.743 2.218a.656.656 0 0 0 .534.49c2.303.596 4.602 1.21 6.9 1.818.156.041.31.09.464.137l.007.107c-.76.272-1.517.552-2.28.813-.778.264-1.538.586-2.348.793l-.306-.772-1.616.58 1.322 3.879 1.623-.576-.33-1.056a522.56 522.56 0 0 1 6.057-2.14l.397 1.036 1.615-.57c-.045-.164-.075-.298-.119-.428-.25-.739-.525-1.47-.746-2.217a.746.746 0 0 0-.626-.57c-2.338-.583-4.67-1.186-7.006-1.784-.132-.034-.26-.079-.39-.118l-.007-.111 4.689-1.656.32.756 1.618-.572-1.3-3.815-1.619.574.29 1.008-6.053 2.136-.363-.983ZM85.555 29.91l-1.334 1.064c.085.125.148.23.221.326.49.642.995 1.272 1.465 1.928.14.225.403.34.66.288.717-.072 1.436-.12 2.155-.176l4.22-.336c.403-.032.809-.05 1.213-.075l.041.103-3.856 3.066-.557-.654-1.346 1.073 2.483 3.245 1.35-1.075-.644-.903c1.694-1.353 3.36-2.69 5.056-4.016l.696.858 1.343-1.073c-.093-.14-.154-.244-.228-.34-.497-.655-1.003-1.303-1.493-1.964a.57.57 0 0 0-.582-.256c-2.23.203-4.46.388-6.692.576-.345.029-.692.044-1.036.065a12.557 12.557 0 0 1-.05-.096c1.305-1.037 2.602-2.082 3.93-3.119l.535.612 1.35-1.072-2.44-3.186-1.358 1.078.612.852-5.057 4.02-.657-.814ZM16.55 47.385c2.053.718 4.069 1.392 6.077 2.119l-.302.994 1.625.56 1.354-4.052-1.622-.56-.381 1-6.077-2.109c.434-1.372.877-2.691 1.341-4.029l6.09 2.112-.308 1.01 1.63.565 1.348-4.056-1.625-.564-.363 1.006-6.088-2.112.311-1.025-1.623-.556-3.375 10.115 1.617.561.371-.98ZM60.99 21.399c.75.048 1.5.113 2.25.121 1.403.025 2.63-.995 2.888-2.4.18-.902.029-1.71-.69-2.343a.72.72 0 0 1-.109-.157 6.18 6.18 0 0 0 .645-.7c.446-.661.473-1.414.303-2.162-.305-1.34-1.354-2.22-2.775-2.336-1.422-.116-2.845-.203-4.267-.3-.165-.01-.33-.001-.518-.001a9.376 9.376 0 0 0-.096 1.724l.965.134c-.134 2.193-.261 4.335-.433 6.496h-1.007l-.1 1.699c.15.02.24.037.328.043.872.062 1.744.126 2.616.182Zm.734-8.302c.57.037 1.09.038 1.601.111.631.09 1.011.919.767 1.594a.985.985 0 0 1-1.05.725c-.428-.018-.855-.058-1.283-.091a1.248 1.248 0 0 1-.194-.06l.159-2.279Zm-.272 4.11c.623.041 1.17.074 1.715.116.091.011.18.04.261.083.442.215.662.804.534 1.418-.068.53-.523.929-1.048.917-.488-.017-.975-.066-1.462-.104a.649.649 0 0 1-.159-.074l.16-2.356ZM76.724 23.584c-.344.48-.663.942-.966 1.446l3.445 2.412.968-1.442-.842-.637 1.928-2.858c.06.208.099.306.117.408.228 1.244.44 2.491.687 3.731.078.303.01.626-.183.87-.285.381-.536.79-.826 1.223l2.664 1.865 1.053-1.565a1.814 1.814 0 0 0-.297-.232.786.786 0 0 1-.419-.674c-.212-1.247-.437-2.491-.653-3.737a3.33 3.33 0 0 1-.02-.414c.22-.036.399-.074.58-.094.976-.108 1.955-.197 2.927-.321.51-.065 1.01-.168 1.43.338l1.07-1.594-2.74-1.916c-.32.47-.616.887-.89 1.318a.633.633 0 0 1-.519.318c-1.19.13-2.376.284-3.563.426a2.723 2.723 0 0 1-.374-.017l1.654-2.457.891.568.972-1.44-3.464-2.422-.968 1.445.797.609c-.456.853-3.397 5.146-3.674 5.362l-.785-.52ZM21.974 34.66l5.113 3.622-.568.894 1.407.997 4.49-6.588-2.877-2.036-1.178 1.73 1.447 1.04-1.503 2.2-1.945-1.382 1.107-1.67-1.491-1.054-1.148 1.644-1.663-1.18c.518-.765.986-1.486 1.504-2.19l1.166.794 1.17-1.73-2.735-1.93-4.485 6.584 1.553 1.102.636-.847ZM51.451 22.265c1.71.007 2.991-.589 3.864-1.637 1.915-2.295 1.544-5.905-.799-7.786a4.536 4.536 0 0 0-6.252.458c-1.477 1.584-1.787 4.176-.715 6.204.906 1.715 2.311 2.664 3.902 2.76ZM49.496 15.1a2.364 2.364 0 0 1 2.082-1.262c.552 0 1.087.196 1.512.556 1.254 1.105 1.633 2.941.921 4.467a2.383 2.383 0 0 1-2.142 1.364 2.36 2.36 0 0 1-1.665-.692 3.724 3.724 0 0 1-1.12-2.726 3.413 3.413 0 0 1 .412-1.707ZM69.57 22.777a4.458 4.458 0 0 0 5.688-.216c.186-.17.34-.379.53-.596l-1.742-1.203c-.139.118-.23.2-.326.277-1.425 1.132-3.299.521-3.821-1.245a3.426 3.426 0 0 1-.052-1.76c.254-1.105.818-1.987 1.848-2.487 1.132-.551 2.6-.116 3.038.989.178.511.618.883 1.143.968.104.025.203.07.307.102.228.07.457.139.716.216l.668-2.056c-.348-.12-.648-.237-.955-.327a1.003 1.003 0 0 1-.633-.489 2.803 2.803 0 0 0-1.107-1.097 4.497 4.497 0 0 0-3.952-.255c-2.05.816-3.39 2.985-3.294 5.316.065 1.589.68 2.904 1.944 3.863ZM34.45 31.168c2.08-.447 3.802-2.554 3.528-4.968a2.362 2.362 0 0 0-.334-1.115l-1.868.893c.028.168.047.275.064.383.029.15.043.302.043.455 0 1.307-1.055 2.382-2.337 2.382-.132 0-.264-.012-.395-.035-1.63-.224-3.008-1.852-2.991-3.531.015-1.484 1.244-2.688 2.697-2.407a.823.823 0 0 0 .812-.254c.267-.257.558-.489.834-.737.088-.079.163-.173.257-.275l-1.38-1.623c-.308.266-.58.492-.84.73a.792.792 0 0 1-.536.216 3.14 3.14 0 0 0-1.466.34 4.515 4.515 0 0 0-1.916 1.965c-.918 1.91-.71 3.756.51 5.432 1.317 1.808 3.107 2.623 5.318 2.149ZM38.567 19.675l-.535-1.193 1.14-.565 2.838 5.949-.912.499c.266.539.488 1.059.77 1.559.675-.336 1.298-.637 1.914-.952.61-.31 1.245-.572 1.838-.94l-.75-1.549-.952.445-2.845-5.963 1.297-.627.584 1.162 1.861-.927-1.297-2.714-8.1 4.02 1.299 2.713 1.85-.917ZM65.317 102.171l1.006-.08v-1.534c-.182 0-.302-.005-.422 0-.643.027-1.286.074-1.93.078a.699.699 0 0 0-.64.35c-.59.878-1.197 1.741-1.8 2.608-.075.107-.166.204-.266.325-.098-.107-.163-.172-.222-.243-.705-.845-1.413-1.688-2.11-2.541a.556.556 0 0 0-.509-.236c-.474.028-.95.026-1.425.049-.314.016-.627.053-.936.08 0 .312-.01.561.003.81.013.241.052.481.08.722h.957l.116 2.919-1 .087.079 1.546 3.381-.155v-1.514l-.698-.063-.089-1.757.111-.043 2.38 2.759c.384-.537.733-1.026 1.085-1.514.347-.482.676-.98 1.046-1.444l.102.041.076 1.765-.648.083.088 1.538 3.368-.157v-1.564h-1.06c-.04-.987-.08-1.932-.123-2.915ZM69.288 99.777c-.07.068-.15.128-.254.218a1.201 1.201 0 0 1 .275-1.21c.34-.366.767-.634 1.24-.778.509-.171 1.024-.325 1.535-.49.2-.064.395-.138.607-.213-.166-.597-.32-1.15-.495-1.773-.48.136-.907.254-1.332.38a.22.22 0 0 0-.135.101c.047.34-.239.322-.415.39a5.851 5.851 0 0 0-1.625.86c-.995.802-1.482 1.845-1.235 3.127a28.44 28.44 0 0 0 .8 3.024c.13.383.335.736.602 1.037 1.25 1.473 3.398 1.137 4.514.101 1.05-.975 1.293-2.455.643-3.87a2.909 2.909 0 0 0-2.663-1.778 2.88 2.88 0 0 0-2.062.874Zm1.972 4.051c-.848.023-1.616-.779-1.62-1.692.008-.862.692-1.572 1.537-1.596.828-.002 1.475.76 1.483 1.748l.002.068c0 .791-.626 1.449-1.403 1.472ZM90.354 92.71l-1.853-2.25.624-.6-.971-1.172-2.635 2.262.974 1.176.668-.52.485.596-2.015 1.728c-.17-.217-.319-.403-.494-.625l.61-.53-.976-1.186-2.638 2.262.971 1.178.708-.548 1.857 2.255-.649.616.97 1.175 2.637-2.263c-.345-.417-.656-.791-.975-1.179l-.649.51-.617-.761 2.02-1.73.609.764-.609.579.972 1.176 2.631-2.263-.966-1.174-.689.524ZM82.602 98.823l-1.31-2.588.608-.387-.703-1.364c-.582.307-1.117.608-1.669.87a.76.76 0 0 0-.463.627c-.23 1.322-.482 2.64-.728 3.959-.035.131-.077.259-.126.386l-.99-1.953.603-.39c-.23-.455-.452-.889-.69-1.358l-2.845 1.504.694 1.358.69-.297 1.32 2.6-.62.396c.224.483.442.92.696 1.353.581-.306 1.103-.606 1.646-.856a.84.84 0 0 0 .513-.698c.233-1.289.488-2.574.739-3.86.035-.124.08-.245.13-.363.35.68.674 1.268.948 1.889l-.626.397.696 1.36 2.844-1.51-.695-1.344-.662.27ZM23.995 82.434l1.326-.687-3.084-6.192c-.458.207-.904.44-1.336.7l.36.801c-.487.225-.923.453-1.378.63-.77.297-1.371.093-1.848-.587-.096-.136-.184-.276-.296-.445l-1.325.699c.17.338.304.619.451.892a2.416 2.416 0 0 0 2.702 1.312 7.396 7.396 0 0 0 2.033-.724c.144-.072.295-.131.462-.205.257.516.508.973.72 1.482l-2.6 1.342-.405-.77c-.75.293-1.132.519-1.316.778l1.62 3.26c.467-.199.92-.432 1.353-.696l-.449-.986c.885-.46 1.72-.906 2.587-1.325l.423.721ZM45.016 99.508c-.181.469-.639.598-1.002.842a.239.239 0 0 1-.175-.021c-.169-.064-.334-.138-.532-.222l.877-2.34-2.485-.986-.54 1.44c.175.077.3.13.424.187.134.062.267.127.427.203l-1.05 2.741-.884-.317-.549 1.443 3.066 1.215.544-1.428-.548-.288.275-.676a.783.783 0 0 1 .772.648c.218.732.48 1.451.736 2.17a.654.654 0 0 0 .246.362c.427.201.872.36 1.345.548l.55-1.446c-.214-.087-.387-.146-.55-.228a.596.596 0 0 1-.277-.22c-.24-.552-.457-1.114-.693-1.704.553-.325 1.05-.631 1.563-.907a.6.6 0 0 1 .388.017c.214.058.421.144.656.228.188-.498.358-.943.543-1.43l-2.652-1.053c-.171.44-.325.832-.475 1.222ZM104.257 63.503c-.399-.017-.798-.004-1.197-.005-.67-.003-.773-.081-.98-.742l-.28-.893a5.763 5.763 0 0 0-.076-.221.544.544 0 0 0-.527-.384.535.535 0 0 0-.519.393c-.142.413-.268.832-.407 1.245-.165.497-.295.595-.798.6-.43.006-.86-.006-1.289.006a.567.567 0 0 0-.607.402c-.08.258-.004.468.267.684.338.27.683.53 1.024.798.419.33.475.497.326 1.008-.127.434-.276.862-.397 1.298a.57.57 0 0 0 .21.704c.21.147.495.124.68-.055.259-.194.521-.385.781-.58.694-.518.769-.52 1.451-.021.262.192.52.388.787.572.282.195.506.203.722.04.216-.162.263-.372.169-.718-.021-.075-.046-.15-.069-.223-.108-.342-.223-.682-.324-1.026-.139-.472-.076-.667.309-.976.35-.28.706-.552 1.06-.826a.59.59 0 0 0 .283-.453l.002-.047a.578.578 0 0 0-.601-.58ZM18.062 67.57c.33.228.648.474.975.706.349.247.568.27.795.087.28-.226.239-.51.142-.809-.122-.37-.236-.742-.348-1.116-.162-.539-.11-.703.327-1.045.353-.276.714-.54 1.059-.826.33-.274.364-.643.07-.876a.94.94 0 0 0-.505-.168c-.412-.024-.827-.005-1.241-.01-.509-.006-.634-.1-.799-.598-.137-.414-.263-.832-.402-1.245a.552.552 0 0 0-.526-.397.551.551 0 0 0-.518.377c-.039.102-.071.206-.105.31l-.345 1.068a.63.63 0 0 1-.65.486c-.23-.002-.46 0-.69 0v.002h-.689a.61.61 0 0 0-.626.384c-.102.256-.014.48.282.72.325.26.66.511.987.768.458.357.505.512.329 1.085-.124.403-.267.8-.368 1.207a.903.903 0 0 0 .02.536c.137.316.5.382.82.163.37-.252.72-.532 1.083-.792a.67.67 0 0 1 .923-.016ZM99.042 80.66c-.894-.476-1.759-.925-2.615-1.447l.495-.9 1.025.508.799-1.529-2.31-1.26-3.422 6.503c.79.432 1.53.855 2.317 1.256l.796-1.52-.999-.576.477-.888c.891.488 1.758.934 2.6 1.438l-.402.856 1.328.723 1.763-3.347-1.335-.724-.517.906ZM95.635 86.447l-.646-.508c-.473-.373-.927-.773-1.422-1.114-.866-.595-1.69-.539-2.5.134-.564.465-1 1.072-1.264 1.76a3.78 3.78 0 0 0-.313 1.485l1.127.246c.058-.186.097-.319.141-.45a3.37 3.37 0 0 1 1.03-1.58c.438-.355.803-.311 1.21.11-.223.241-.423.455-.62.674-.428.43-.74.965-.908 1.553a1.747 1.747 0 0 0 .547 1.824c.498.499 1.252.63 1.883.328.33-.163.632-.378.895-.638.437-.412.701-.98.74-1.586a.834.834 0 0 0 .387-.09c.48-.583.938-1.185 1.423-1.807l-1.184-.962-.526.621Zm-1.308 2.208c-.108.222-.25.425-.42.602a.627.627 0 0 1-.481.228.64.64 0 0 1-.631-.642.65.65 0 0 1 .115-.37 3.06 3.06 0 0 1 .294-.414c.198-.256.4-.508.603-.76a.415.415 0 0 1 .11-.058c.697.474.763.676.41 1.414ZM24.464 86.287l2.749 3.54c.48-.345.894-.778 1.219-1.277.264-.406.415-.876.439-1.363.026-1.284-.58-2.228-1.622-2.85-2.037-1.215-4.282.34-4.715 2.166a3.02 3.02 0 0 0-.07 1.019c.17 1.468 1.398 2.846 2.877 3.238l.495-1.154c-.163-.114-.308-.2-.435-.308-.304-.26-.615-.515-.895-.802a1.73 1.73 0 0 1-.492-1.085c-.08-.432.097-.873.45-1.124Zm2.597-.292c.448.576.435 1.077-.084 1.621l-1.548-2c.593-.363 1.172-.215 1.632.379ZM51.324 99.844h-.007c-1.724 0-3.143 1.445-3.143 3.203v.068c0 1.701 1.2 3.177 3.268 3.192 2.116.015 3.123-1.752 3.123-3.234.012-1.812-1.392-3.212-3.241-3.23Zm.039 4.854h-.032c-.809 0-1.474-.678-1.474-1.501l.001-.048c-.007-.979.641-1.707 1.517-1.702.029-.002.057-.003.086-.003.774 0 1.412.649 1.412 1.439 0 .033-.002.067-.004.1-.01 1.148-.807 1.776-1.506 1.715ZM36.624 93.954c-1.61-.038-3.18 1.347-3.206 3.307-.023 1.703 1.536 3.198 3.279 3.209 1.692.01 3.132-1.486 3.14-3.264.01-1.754-1.45-3.21-3.213-3.252Zm-.056 4.88c-.804-.002-1.464-.677-1.464-1.497v-.036c0-.923.736-1.728 1.583-1.736.813 0 1.487.673 1.502 1.502-.005.924-.774 1.763-1.62 1.768ZM34.718 92.786a4.24 4.24 0 0 0-.396-.415 1.712 1.712 0 0 1-.575-.82 3.033 3.033 0 0 0-.957-1.294c-.97-.833-2.052-1.05-3.212-.534a3.195 3.195 0 0 0-1.98 2.872C27.474 94.6 29.37 96.31 31.323 96c.358-.023.7-.165.972-.405l-.4-.642c-.14-.222-.281-.441-.406-.637-.284.052-.573.08-.862.084-.782-.053-1.397-.723-1.397-1.52 0-.063.004-.126.011-.188.11-.906.962-1.617 1.802-1.503a1.71 1.71 0 0 1 1.408 1.466c.004.15.05.298.132.423.321.33.674.627 1.036.955l1.098-1.247ZM105.461 42.886a1.177 1.177 0 0 1-.483-.248 1.533 1.533 0 0 1-.203-2.022c.045-.06.085-.125.126-.185l-.504-1.462c-.696.535-1.17 1.136-1.219 1.995-.061.945.24 1.878.839 2.602.555.692 1.302.932 2.236.864-.147-.436-.287-.798-.388-1.17a.47.47 0 0 0-.404-.374Z"/><path fill="#fff" d="M66.692 61.818a17.632 17.632 0 0 0-1.732-.861c-.29-.133-.6-.218-.931-.336.019-.327.042-.637.052-.947.022-.643-.27-.948-.896-.989a6.567 6.567 0 0 1-1.136-.149c-1.702-.416-3.109-1.377-4.408-2.526-.223-.198-.241-.356-.067-.663.355-.62.692-1.256 1.097-1.842a31.475 31.475 0 0 1 4.874-5.416c1.162-1.047 2.365-2.043 3.768-2.752.11-.057.209-.131.295-.22.621-.627 1.248-1.25 1.854-1.892.255-.244.4-.584.4-.94a1.3 1.3 0 0 0-.345-.884 44.37 44.37 0 0 0-2.113-2.159 1.268 1.268 0 0 0-1.794.026c-.114.104-.22.218-.328.329L54.118 50.98a.994.994 0 0 1-.699.39c-.388.027-.75.208-1.01.504-1.096 1.117-2.2 2.226-3.286 3.353-.337.324-.53.776-.53 1.25 0 .465.187.912.517 1.235.7.746 1.425 1.467 2.146 2.192.34.378.841.561 1.339.489.446-.076.649.128.822.506-.165.074-.317.144-.47.21a7.202 7.202 0 0 0-1.979 1.176 3.157 3.157 0 0 0-1.147 2.5c.011 5.035.005 10.071.007 15.107a2.27 2.27 0 0 0 .047.512c.089.349.4.594.754.594a.773.773 0 0 0 .593-.279.91.91 0 0 0 .208-.65c-.003-.767-.003-1.533 0-2.3 0-.131.022-.264.037-.431.1.035.197.076.292.122 1.05.553 2.174.95 3.335 1.18.12.027.242.043.365.045h.02c.43 0 .785-.36.785-.8a.801.801 0 0 0-.51-.75c-.171-.065-.36-.082-.534-.139-.773-.252-1.555-.482-2.31-.78a4.33 4.33 0 0 1-1.009-.643 1.226 1.226 0 0 1-.478-1.063c.02-.75.004-1.5.008-2.252.008-.121.025-.242.049-.362.485.242.914.485 1.364.675 2.002.846 4.104 1.136 6.255 1.136.062.002.123-.002.184-.011a.781.781 0 0 0 .626-.554.766.766 0 0 0-.175-.781.843.843 0 0 0-.66-.269c-.765-.044-1.532-.078-2.294-.16a11.605 11.605 0 0 1-3.378-.87 5.062 5.062 0 0 1-1.447-.9 1.261 1.261 0 0 1-.5-.82c-.034-.693-.01-1.39-.01-2.16.4.214.726.406 1.069.565.348.162.707.302 1.069.43a12.259 12.259 0 0 0 2.183.562 18.185 18.185 0 0 0 3.388.286c.384 0 .768-.004 1.15-.024.384-.019.766-.051 1.147-.096.38-.044.76-.104 1.136-.174.377-.069.754-.146 1.125-.242a11.8 11.8 0 0 0 2.122-.762c.338-.157.664-.342 1.004-.518.019.05.034.102.044.155.003 1.438.006 2.877.007 4.316.002.318-.125.623-.351.842-.228.231-.478.44-.745.622-.6.38-1.252.668-1.935.854-.294.088-.593.159-.887.247a.763.763 0 0 0-.582.653.798.798 0 0 0 .774.941c.08 0 .16-.013.237-.037a10.605 10.605 0 0 0 3.09-1.184c.108-.064.226-.113.401-.2v5.429c-.005.156 0 .312.015.468a.79.79 0 0 0 .776.689.79.79 0 0 0 .776-.7c.016-.172.02-.344.014-.516V69.043c0-1.47-.01-2.94.004-4.41a2.695 2.695 0 0 0-.762-1.95 5.07 5.07 0 0 0-1.022-.865Zm-4.305-1.539c.01.123.009.246-.003.369a5.952 5.952 0 0 1-1.705 3.198.893.893 0 0 1-.693.289c-.948-.018-1.897-.007-2.892-.007a13.933 13.933 0 0 0-2.782-4.754l2.176-2.213c1.694 1.483 3.575 2.71 5.899 3.118Zm4.238-19.575 1.187 1.228c.096.1.187.203.302.328-.081.102-.148.201-.229.287-.7.786-1.51 1.462-2.405 2.005-1.217.704-2.27 1.652-3.305 2.61a34.504 34.504 0 0 0-4.651 5.184c-.297.415-.573.845-.834 1.231l-1.353-1.372 11.288-11.5ZM52.423 58.8c-.747-.75-1.5-1.512-2.2-2.248l3.46-3.524a19.76 19.76 0 0 1 2.206 2.239c-.17.315-3.043 3.26-3.466 3.534Zm14.28 6.252a3.9 3.9 0 0 1-.79.77A7.114 7.114 0 0 1 63.38 66.9c-3.172.751-6.325.727-9.44-.308a5.71 5.71 0 0 1-1.79-.943c-.94-.752-.954-1.457-.03-2.212a6.22 6.22 0 0 1 2.221-1.097.603.603 0 0 1 .168.007c.35.534.632 1.11.84 1.715-.149.04-.264.063-.375.102a.837.837 0 0 0-.556.828c.037.387.34.697.72.735.137.012.275.016.413.012h7.227c.138.004.276 0 .413-.013a.799.799 0 0 0 .69-.795.798.798 0 0 0-.701-.796c-.161-.02-.324-.024-.522-.038l.999-1.866c.99.3 1.947.657 2.73 1.378.123.116.233.249.324.393a.862.862 0 0 1-.009 1.052v-.001Z"/><path fill="#fff" d="M69.504 58.476a5.73 5.73 0 0 0-1.234.005.795.795 0 0 0-.688.808c.02.423.356.766.771.788.183.015.368.003.551.003.169 0 .338.009.506-.002a.823.823 0 0 0 .792-.76.79.79 0 0 0-.698-.842ZM63.562 52.464a.772.772 0 0 0-.827.707 5.71 5.71 0 0 0-.007 1.211.782.782 0 0 0 .851.732.812.812 0 0 0 .73-.818c.01-.17.002-.343.002-.514 0-.172.009-.344-.002-.515a.82.82 0 0 0-.747-.803ZM67.625 54.22a.64.64 0 0 0-.273.088 11.3 11.3 0 0 0-1.092 1.117c-.218.275-.105.688.15.934a.716.716 0 0 0 .966.085c.34-.29.657-.608.945-.952a.714.714 0 0 0 .049-.835.81.81 0 0 0-.745-.438ZM87.662 59.531h-.002a.404.404 0 0 0-.394.465V60a.394.394 0 0 0 .413.396.41.41 0 0 0 .377-.441v-.016a.405.405 0 0 0-.394-.407ZM31.463 56.041c.22 0 .404-.181.41-.406a.442.442 0 0 0-.382-.393h-.001a.408.408 0 0 0-.402.41.403.403 0 0 0 .375.39ZM40.646 81.125c-.22 0-.403.18-.411.403a.45.45 0 0 0 .38.396c.22-.003.4-.187.402-.411a.391.391 0 0 0-.37-.388ZM31.878 64.427a.398.398 0 0 0-.393-.388.399.399 0 0 0-.393.4v.012a.398.398 0 0 0 .393.389c.216 0 .393-.181.393-.4v-.013ZM79.768 79.563a.435.435 0 0 0-.397.425c.017.208.19.37.395.37a.39.39 0 0 0 .39-.37.41.41 0 0 0-.388-.425ZM81.217 77.922a.393.393 0 0 0-.398.36.416.416 0 0 0 .377.436.436.436 0 0 0 .405-.367.417.417 0 0 0-.384-.429ZM44.013 36.255a.419.419 0 0 0 .385-.384.427.427 0 0 0-.402-.418.419.419 0 0 0-.38.388v.011c0 .221.178.403.394.403h.003ZM47.834 85.915a.39.39 0 0 0-.353.403.414.414 0 0 0 .378.39.433.433 0 0 0 .405-.415.41.41 0 0 0-.43-.378ZM72.9 84.906a.399.399 0 0 0-.375.4.4.4 0 0 0 .359.399c.22.009.41-.165.426-.39a.427.427 0 0 0-.41-.409ZM54.069 87.883a.397.397 0 0 0-.415.4c0 .22.178.4.393.4.216 0 .394-.18.394-.4a.399.399 0 0 0-.372-.4ZM49.808 33.325c.2-.025.36-.184.39-.388a.416.416 0 0 0-.402-.414.394.394 0 0 0-.38.425c.023.205.19.365.392.377ZM60.409 31.628a.41.41 0 0 0 .4-.412.397.397 0 0 0-.419-.387.421.421 0 0 0-.363.405c.023.205.181.369.382.394ZM34.112 72.406a.42.42 0 0 0-.42.4.428.428 0 0 0 .376.401h.014a.4.4 0 0 0 .394-.4.4.4 0 0 0-.364-.4ZM60.511 88.367a.429.429 0 0 0-.396.378.414.414 0 0 0 .393.421.398.398 0 0 0 .392-.37.42.42 0 0 0-.389-.429ZM64.741 32.122a.422.422 0 0 0 .377-.396.418.418 0 0 0-.414-.406.406.406 0 0 0-.37.397v.002c0 .221.178.403.396.403h.011ZM85.633 70.375a.415.415 0 0 0-.399.415c.002.209.167.38.372.387.22.001.404-.18.408-.405a.452.452 0 0 0-.38-.397ZM87.18 57.702a.403.403 0 0 0 .371.395.42.42 0 0 0 .418-.4.428.428 0 0 0-.375-.4.42.42 0 0 0-.414.405ZM74.838 83.779a.4.4 0 0 0-.46.396.4.4 0 0 0 .395.401.4.4 0 0 0 .394-.401.4.4 0 0 0-.329-.396ZM87.575 61.805a.429.429 0 0 0-.393.379v.02c0 .22.177.4.392.4.216 0 .393-.18.393-.4 0-.218-.177-.399-.392-.4ZM82.522 76.164h-.003a.4.4 0 0 0-.394.402c0 .219.176.4.391.401a.415.415 0 0 0 .395-.374.422.422 0 0 0-.39-.429ZM45.925 84.914a.413.413 0 0 0-.386.392.395.395 0 0 0 .365.405h.011c.22 0 .403-.183.406-.408a.441.441 0 0 0-.396-.389ZM68.975 86.703a.426.426 0 0 0-.395.377v.012a.4.4 0 0 0 .394.401.398.398 0 0 0 .391-.361.428.428 0 0 0-.39-.429ZM64.81 87.883h-.006a.394.394 0 0 0-.388.412.414.414 0 0 0 .38.386.43.43 0 0 0 .4-.42.411.411 0 0 0-.386-.378ZM53.973 32.12a.398.398 0 0 0 .387-.375.422.422 0 0 0-.396-.425.435.435 0 0 0-.39.386v.006c0 .224.18.408.4.409ZM70.898 34.09a.418.418 0 0 0 .399-.417.399.399 0 0 0-.394-.392.4.4 0 0 0-.392.427.415.415 0 0 0 .387.383ZM45.82 35.102h.033a.405.405 0 0 0 .4-.397c0-.22-.177-.4-.392-.4a.397.397 0 0 0-.392.382.413.413 0 0 0 .351.415ZM42.246 37.538a.435.435 0 0 0 .392-.382.41.41 0 0 0-.398-.414.385.385 0 0 0-.382.373v.014c0 .22.173.402.388.41ZM35.088 45.733a.4.4 0 0 0 .39-.402.4.4 0 0 0-.38-.401h-.005a.4.4 0 0 0-.394.401.4.4 0 0 0 .39.401ZM34.047 47.67c.22-.006.4-.186.41-.41a.397.397 0 0 0-.392-.385.397.397 0 0 0-.391.4.41.41 0 0 0 .373.395ZM33.184 49.673a.393.393 0 0 0 .377-.38.411.411 0 0 0-.395-.418.447.447 0 0 0-.387.39.41.41 0 0 0 .405.408ZM31.839 53.886l.033.002a.4.4 0 0 0 .395-.383v-.011a.406.406 0 0 0-.395-.408.424.424 0 0 0-.388.385.42.42 0 0 0 .355.415ZM86.922 55.519c.014.222.193.4.411.408a.41.41 0 0 0 .373-.438.39.39 0 0 0-.4-.356.423.423 0 0 0-.384.386ZM86.522 53.357c0 .222.18.405.398.405h.016a.423.423 0 0 0 .357-.422.395.395 0 0 0-.399-.371h-.007a.371.371 0 0 0-.365.388ZM83.72 74.336a.405.405 0 0 0-.406.4c0 .218.177.398.391.398a.396.396 0 0 0 .39-.393.426.426 0 0 0-.375-.405ZM47.806 34.125a.39.39 0 0 0 .36-.39.389.389 0 0 0-.383-.391c-.2 0-.369.16-.383.364v.002c0 .227.183.414.406.415ZM83.678 45.597a.4.4 0 0 0 .362-.4.4.4 0 0 0-.381-.4.399.399 0 0 0-.384.4c0 .22.178.4.393.4h.01ZM36.273 43.85a.402.402 0 0 0 .386-.388.413.413 0 0 0-.408-.4h-.016a.4.4 0 0 0-.358.415.395.395 0 0 0 .396.374ZM39.007 40.465a.402.402 0 0 0 .4-.364.417.417 0 0 0-.376-.437h-.005a.399.399 0 0 0-.393.4c0 .213.166.39.374.4ZM37.645 77.953h-.002a.403.403 0 0 0-.397.418c.01.21.18.378.387.38a.413.413 0 0 0 .382-.392.419.419 0 0 0-.37-.406ZM76.46 37.455h.018c.216 0 .392-.18.392-.4 0-.218-.176-.398-.39-.399a.398.398 0 0 0-.382.4c0 .208.158.382.361.399ZM42.319 82.54h-.02a.404.404 0 0 0-.397.403c.018.21.184.377.39.392a.41.41 0 0 0 .387-.389.39.39 0 0 0-.36-.406ZM72.876 35.063a.405.405 0 0 0 .363-.407.396.396 0 0 0-.39-.375.397.397 0 0 0-.392.386.402.402 0 0 0 .419.396ZM51.962 87.407a.402.402 0 0 0-.415.352.416.416 0 0 0 .392.432.422.422 0 0 0 .394-.384.401.401 0 0 0-.37-.4ZM31.137 60.443h.003a.4.4 0 0 0 .393-.402.4.4 0 0 0-.366-.4.404.404 0 0 0-.403.36.42.42 0 0 0 .373.442ZM66.854 32.593a.416.416 0 0 0 .375-.402.426.426 0 0 0-.394-.386.397.397 0 0 0-.386.43c.016.21.198.371.405.358ZM56.134 31.797a.397.397 0 0 0 .359-.413.388.388 0 0 0-.391-.376.416.416 0 0 0-.391.386c.011.227.2.407.423.403ZM58.272 31.628a.433.433 0 0 0 .387-.386.41.41 0 0 0-.4-.414.387.387 0 0 0-.378.398c0 .22.176.4.391.402ZM86.345 51.644a.4.4 0 0 0 .364-.4.4.4 0 0 0-.376-.4.41.41 0 0 0-.39.411v.02a.4.4 0 0 0 .402.369ZM86.345 68.281a.396.396 0 0 0-.378.384.405.405 0 0 0 .346.416.409.409 0 0 0 .43-.381.417.417 0 0 0-.398-.419ZM85.56 49.57l.02.001c.216 0 .393-.18.393-.4v-.006a.39.39 0 0 0-.384-.392.39.39 0 0 0-.384.378c-.003.21.15.392.356.42ZM78.181 38.853a.414.414 0 0 0 .354-.42.386.386 0 0 0-.387-.378.396.396 0 0 0-.376.39v.005a.4.4 0 0 0 .395.403h.014ZM82.471 43.76a.385.385 0 0 0 .391-.402.387.387 0 0 0-.382-.39.386.386 0 0 0-.38.361.376.376 0 0 0 .367.431h.004ZM37.565 42.117h.002a.39.39 0 0 0 .383-.39.39.39 0 0 0-.383-.391.389.389 0 0 0-.383.387c.01.21.175.381.38.394ZM79.706 40.375a.385.385 0 0 0 .391-.374.412.412 0 0 0-.351-.422h-.018a.401.401 0 0 0-.396.402v.01c0 .21.168.382.374.384ZM81.166 42.007a.383.383 0 0 0 .38-.404.374.374 0 0 0-.367-.375.388.388 0 0 0-.415.389.388.388 0 0 0 .402.39ZM84.739 72.39a.4.4 0 0 0-.397.374c0 .223.18.406.398.406h.013a.388.388 0 0 0 .37-.397.394.394 0 0 0-.384-.382ZM68.92 33.24a.388.388 0 0 0 .365-.39.388.388 0 0 0-.382-.39l-.017.001a.412.412 0 0 0-.388.386.396.396 0 0 0 .422.393ZM51.848 32.644a.408.408 0 0 0 .403-.41.389.389 0 0 0-.375-.382h-.015a.4.4 0 0 0-.394.4.44.44 0 0 0 .381.392ZM86.925 66.18a.389.389 0 0 0-.372.39c0 .214.173.39.383.39.21 0 .383-.176.383-.39v-.006a.415.415 0 0 0-.394-.384ZM66.883 87.391a.39.39 0 0 0-.355.406c0 .206.166.375.367.375h.014c.207 0 .378-.17.383-.38v-.006a.394.394 0 0 0-.409-.395ZM39.024 79.596a.388.388 0 0 0-.354.388.387.387 0 0 0 .437.386.388.388 0 0 0 .342-.387.387.387 0 0 0-.425-.387ZM56.175 88.219a.415.415 0 0 0-.384.392v.007c0 .218.177.398.392.398.214 0 .39-.18.39-.398a.397.397 0 0 0-.39-.4h-.008ZM78.22 81.11a.394.394 0 0 0-.407.361v.008c0 .224.18.409.4.409h.003a.388.388 0 0 0 .377-.39v-.012a.374.374 0 0 0-.368-.376h-.005ZM58.357 88.367a.402.402 0 0 0-.394.426.389.389 0 0 0 .384.367.39.39 0 0 0 .383-.39v-.001a.413.413 0 0 0-.373-.402ZM76.515 82.524a.397.397 0 0 0-.372.398c.013.21.182.377.388.384a.401.401 0 0 0 .392-.38v-.013a.387.387 0 0 0-.408-.389ZM44.104 83.797h-.02a.397.397 0 0 0-.392.399v.006a.373.373 0 0 0 .367.392h.016c.203 0 .371-.167.377-.373a.41.41 0 0 0-.348-.424ZM40.589 38.929a.407.407 0 0 0 .366-.407.391.391 0 0 0-.424-.387.38.38 0 0 0-.34.42c.017.21.191.375.398.374ZM31.195 58.233a.387.387 0 0 0 .42-.382.383.383 0 0 0-.359-.397.407.407 0 0 0-.424.384c.002.207.16.38.363.395ZM74.73 36.18a.381.381 0 0 0 .364-.401.388.388 0 0 0-.387-.38h-.01a.39.39 0 0 0-.385.39.39.39 0 0 0 .419.39ZM87.333 64a.406.406 0 0 0-.381.391.386.386 0 0 0 .39.405.382.382 0 0 0 .376-.384v-.02a.414.414 0 0 0-.385-.392ZM70.999 85.9a.385.385 0 0 0-.406.405.39.39 0 0 0 .39.376h.008a.39.39 0 0 0 .384-.39.39.39 0 0 0-.376-.392ZM32.276 66.588a.387.387 0 0 0-.382-.377.388.388 0 0 0-.382.385.41.41 0 0 0 .404.408h.008a.394.394 0 0 0 .352-.416ZM31.62 62.251a.39.39 0 0 0-.384-.384.41.41 0 0 0-.396.413v.011c.025.21.207.366.414.355a.374.374 0 0 0 .366-.395ZM32.495 68.353a.384.384 0 0 0-.407.404c.002.207.17.377.374.377h.013a.387.387 0 0 0 .388-.38.393.393 0 0 0-.368-.401ZM36.292 76.203a.395.395 0 0 0-.358.408.38.38 0 0 0 .375.378h.02c.202 0 .368-.17.368-.375V76.6a.396.396 0 0 0-.39-.397h-.015ZM33.221 70.408a.368.368 0 0 0-.397.39c0 .213.173.389.383.389.21 0 .382-.176.382-.39a.388.388 0 0 0-.367-.39ZM84.726 47.529a.412.412 0 0 0 .368-.407.398.398 0 0 0-.398-.372h-.014c-.203 0-.37.17-.37.376v.013a.39.39 0 0 0 .414.39ZM32.437 51.739h.024a.377.377 0 0 0 .37-.41.383.383 0 0 0-.392-.368.378.378 0 0 0-.373.38v.008a.384.384 0 0 0 .37.39ZM35.115 74.368a.37.37 0 0 0-.364.389c0 .212.171.386.38.386a.385.385 0 0 0 .378-.414.376.376 0 0 0-.394-.361ZM49.887 86.742h-.007a.386.386 0 0 0-.379.422.373.373 0 0 0 .397.358.39.39 0 0 0-.012-.78ZM62.61 31.766a.397.397 0 0 0 .355-.408.39.39 0 0 0-.389-.374h-.004a.379.379 0 0 0-.373.38V31.374a.392.392 0 0 0 .41.393ZM62.682 88.219a.388.388 0 0 0-.397.391.39.39 0 0 0 .385.392.39.39 0 0 0 .384-.392.39.39 0 0 0-.372-.391Z"/></svg>