<svg xmlns="http://www.w3.org/2000/svg" width="124" height="122" fill="none"><path fill="url(#a)" d="M62.058 92.02c17.534-.035 31.705-13.88 31.652-30.923-.053-17.044-14.31-30.834-31.844-30.8-17.534.035-31.705 13.88-31.652 30.923.053 17.044 14.31 30.833 31.844 30.8Z"/><path fill="#fff" d="M61.856 21.258c5.723-.011 10.348-4.53 10.331-10.093-.017-5.563-4.67-10.064-10.393-10.052-5.723.01-10.348 4.53-10.331 10.093.017 5.563 4.67 10.063 10.393 10.052ZM62.124 121.125c5.723-.011 10.348-4.53 10.33-10.093-.016-5.563-4.67-10.063-10.392-10.052-5.723.011-10.349 4.53-10.332 10.093.018 5.563 4.67 10.063 10.394 10.052ZM32.846 33.003c4.038-3.942 4.02-10.317-.038-14.24-4.06-3.923-10.623-3.908-14.66.034-4.039 3.941-4.022 10.317.037 14.24 4.06 3.923 10.623 3.907 14.66-.034ZM105.775 103.464c4.038-3.942 4.021-10.317-.038-14.24s-10.622-3.908-14.66.034c-4.038 3.941-4.021 10.317.038 14.24s10.623 3.907 14.66-.034ZM10.559 71.32c5.722-.011 10.348-4.53 10.33-10.093-.017-5.563-4.67-10.063-10.393-10.052C4.773 51.186.148 55.705.165 61.268.182 66.83 4.835 71.33 10.559 71.32ZM113.432 71.094c5.723-.011 10.349-4.53 10.331-10.093-.017-5.563-4.67-10.064-10.393-10.052-5.723.01-10.348 4.53-10.331 10.092.017 5.563 4.67 10.064 10.393 10.053ZM105.594 32.831c4.038-3.941 4.02-10.317-.038-14.24-4.059-3.923-10.623-3.908-14.661.034-4.038 3.942-4.02 10.317.038 14.24 4.06 3.923 10.623 3.908 14.661-.034ZM33.03 103.722c4.037-3.942 4.02-10.317-.039-14.24-4.059-3.923-10.622-3.908-14.66.034-4.038 3.941-4.021 10.316.038 14.239s10.622 3.908 14.66-.033Z"/><defs><linearGradient id="a" x1="100.536" x2="-.193" y1="11.957" y2="39.938" gradientUnits="userSpaceOnUse"><stop stop-color="#fff"/><stop offset=".524" stop-color="#D795FF"/><stop offset="1" stop-color="#7BC2FE"/></linearGradient></defs></svg>