<svg xmlns="http://www.w3.org/2000/svg" width="201" height="200" fill="none"><g filter="url(#a)"><path fill="#815C98" d="M62.501 117.631h-5.77c-7.953 0-14.422 6.422-14.422 14.318v28.638c0 7.896 6.469 14.318 14.423 14.318h5.77c4.77 0 8.653-3.855 8.653-8.591v-40.092c0-4.736-3.883-8.591-8.654-8.591Z"/></g><g filter="url(#b)"><path fill="#815C98" d="M35.921 129.099h-2.267c-4.78 0-8.654 3.846-8.654 8.591v17.182c0 4.745 3.874 8.592 8.654 8.592h2.276a.714.714 0 0 0 .717-.781 19.573 19.573 0 0 1-.108-2.083c0-26.16-.063-29.19.1-30.712a.717.717 0 0 0-.718-.789Z"/></g><g filter="url(#c)"><path fill="#815C98" d="M99.96 26C58.73 26.021 25 60.17 25 101.101v2.219c0 3.732 2.412 6.916 5.77 8.099v11.384c0 .434.386.77.819.708 1.232-.176 2.296-.153 4.224-.146a.72.72 0 0 0 .725-.716v-10.738h2.885c4.78 0 8.654-3.846 8.654-8.591v-2.364c0-28.493 23.074-51.966 51.774-52.046 28.698-.08 52.072 23.075 52.072 51.547v2.863c0 4.745 3.875 8.591 8.654 8.591h2.885v10.738a.72.72 0 0 0 .726.715c1.839-.007 2.964-.03 4.225.148a.717.717 0 0 0 .817-.708v-11.386c3.357-1.183 5.77-4.366 5.77-8.098v-2.864C175 59.389 141.333 25.979 99.96 26Z"/></g><g filter="url(#d)"><path fill="#815C98" d="M137.5 174.905h5.769c7.954 0 14.423-6.422 14.423-14.318v-28.638c0-7.896-6.469-14.318-14.423-14.318H137.5c-4.771 0-8.654 3.855-8.654 8.591v40.092c0 4.736 3.883 8.591 8.654 8.591Z"/></g><g filter="url(#e)"><path fill="#815C98" d="M166.346 129.099h-2.276a.713.713 0 0 0-.717.78c.073.684.109 1.379.109 2.084 0 26.159.062 29.19-.1 30.711a.717.717 0 0 0 .717.79h2.267c4.78 0 8.654-3.847 8.654-8.592V137.69c0-4.745-3.874-8.591-8.654-8.591Z"/></g><path stroke="#D795FF" stroke-linecap="round" stroke-linejoin="round" stroke-width="3" d="M128 150.496h-9.167l-9.166-21.5-15.278 30.714-9.167-18.428-6.11 9.214H73"/><defs><filter id="a" width="48.879" height="77.307" x="32.293" y="107.615" color-interpolation-filters="sRGB" filterUnits="userSpaceOnUse"><feFlood flood-opacity="0" result="BackgroundImageFix"/><feGaussianBlur in="BackgroundImageFix" stdDeviation="5.008"/><feComposite in2="SourceAlpha" operator="in" result="effect1_backgroundBlur_1_1637"/><feBlend in="SourceGraphic" in2="effect1_backgroundBlur_1_1637" result="shape"/><feColorMatrix in="SourceAlpha" result="hardAlpha" values="0 0 0 0 0 0 0 0 0 0 0 0 0 0 0 0 0 0 127 0"/><feOffset dy="2.504"/><feGaussianBlur stdDeviation="5.008"/><feComposite in2="hardAlpha" k2="-1" k3="1" operator="arithmetic"/><feColorMatrix values="0 0 0 0 1 0 0 0 0 1 0 0 0 0 1 0 0 0 0.3 0"/><feBlend in2="shape" result="effect2_innerShadow_1_1637"/><feColorMatrix in="SourceAlpha" result="hardAlpha" values="0 0 0 0 0 0 0 0 0 0 0 0 0 0 0 0 0 0 127 0"/><feOffset dy="-2.504"/><feGaussianBlur stdDeviation="5.008"/><feComposite in2="hardAlpha" k2="-1" k3="1" operator="arithmetic"/><feColorMatrix values="0 0 0 0 1 0 0 0 0 1 0 0 0 0 1 0 0 0 0.5 0"/><feBlend in2="effect2_innerShadow_1_1637" result="effect3_innerShadow_1_1637"/><feColorMatrix in="SourceAlpha" result="hardAlpha" values="0 0 0 0 0 0 0 0 0 0 0 0 0 0 0 0 0 0 127 0"/><feOffset dy="-2.504"/><feGaussianBlur stdDeviation="1.252"/><feComposite in2="hardAlpha" k2="-1" k3="1" operator="arithmetic"/><feColorMatrix values="0 0 0 0 0.879 0 0 0 0 0.725 0 0 0 0 1 0 0 0 0.5 0"/><feBlend in2="effect3_innerShadow_1_1637" result="effect4_innerShadow_1_1637"/></filter><filter id="b" width="31.684" height="54.397" x="14.984" y="119.083" color-interpolation-filters="sRGB" filterUnits="userSpaceOnUse"><feFlood flood-opacity="0" result="BackgroundImageFix"/><feGaussianBlur in="BackgroundImageFix" stdDeviation="5.008"/><feComposite in2="SourceAlpha" operator="in" result="effect1_backgroundBlur_1_1637"/><feBlend in="SourceGraphic" in2="effect1_backgroundBlur_1_1637" result="shape"/><feColorMatrix in="SourceAlpha" result="hardAlpha" values="0 0 0 0 0 0 0 0 0 0 0 0 0 0 0 0 0 0 127 0"/><feOffset dy="-2.504"/><feGaussianBlur stdDeviation="5.008"/><feComposite in2="hardAlpha" k2="-1" k3="1" operator="arithmetic"/><feColorMatrix values="0 0 0 0 1 0 0 0 0 1 0 0 0 0 1 0 0 0 0.5 0"/><feBlend in2="shape" result="effect2_innerShadow_1_1637"/><feColorMatrix in="SourceAlpha" result="hardAlpha" values="0 0 0 0 0 0 0 0 0 0 0 0 0 0 0 0 0 0 127 0"/><feOffset dy="-2.504"/><feGaussianBlur stdDeviation="2.5"/><feComposite in2="hardAlpha" k2="-1" k3="1" operator="arithmetic"/><feColorMatrix values="0 0 0 0 1 0 0 0 0 1 0 0 0 0 1 0 0 0 0.6 0"/><feBlend in2="effect2_innerShadow_1_1637" result="effect3_innerShadow_1_1637"/></filter><filter id="c" width="170.032" height="117.552" x="14.984" y="15.984" color-interpolation-filters="sRGB" filterUnits="userSpaceOnUse"><feFlood flood-opacity="0" result="BackgroundImageFix"/><feGaussianBlur in="BackgroundImageFix" stdDeviation="5.008"/><feComposite in2="SourceAlpha" operator="in" result="effect1_backgroundBlur_1_1637"/><feBlend in="SourceGraphic" in2="effect1_backgroundBlur_1_1637" result="shape"/><feColorMatrix in="SourceAlpha" result="hardAlpha" values="0 0 0 0 0 0 0 0 0 0 0 0 0 0 0 0 0 0 127 0"/><feOffset dy="2.504"/><feGaussianBlur stdDeviation="5.008"/><feComposite in2="hardAlpha" k2="-1" k3="1" operator="arithmetic"/><feColorMatrix values="0 0 0 0 0.879 0 0 0 0 0.725 0 0 0 0 1 0 0 0 0.3 0"/><feBlend in2="shape" result="effect2_innerShadow_1_1637"/><feColorMatrix in="SourceAlpha" result="hardAlpha" values="0 0 0 0 0 0 0 0 0 0 0 0 0 0 0 0 0 0 127 0"/><feOffset dy="-2.504"/><feGaussianBlur stdDeviation="5.008"/><feComposite in2="hardAlpha" k2="-1" k3="1" operator="arithmetic"/><feColorMatrix values="0 0 0 0 0.918967 0 0 0 0 0.815833 0 0 0 0 1 0 0 0 1 0"/><feBlend in2="effect2_innerShadow_1_1637" result="effect3_innerShadow_1_1637"/><feColorMatrix in="SourceAlpha" result="hardAlpha" values="0 0 0 0 0 0 0 0 0 0 0 0 0 0 0 0 0 0 127 0"/><feOffset dy="2.504"/><feGaussianBlur stdDeviation="1.252"/><feComposite in2="hardAlpha" k2="-1" k3="1" operator="arithmetic"/><feColorMatrix values="0 0 0 0 0.917867 0 0 0 0 0.813333 0 0 0 0 1 0 0 0 1 0"/><feBlend in2="effect3_innerShadow_1_1637" result="effect4_innerShadow_1_1637"/></filter><filter id="d" width="48.879" height="77.307" x="118.83" y="107.615" color-interpolation-filters="sRGB" filterUnits="userSpaceOnUse"><feFlood flood-opacity="0" result="BackgroundImageFix"/><feGaussianBlur in="BackgroundImageFix" stdDeviation="5.008"/><feComposite in2="SourceAlpha" operator="in" result="effect1_backgroundBlur_1_1637"/><feBlend in="SourceGraphic" in2="effect1_backgroundBlur_1_1637" result="shape"/><feColorMatrix in="SourceAlpha" result="hardAlpha" values="0 0 0 0 0 0 0 0 0 0 0 0 0 0 0 0 0 0 127 0"/><feOffset dy="2.504"/><feGaussianBlur stdDeviation="5.008"/><feComposite in2="hardAlpha" k2="-1" k3="1" operator="arithmetic"/><feColorMatrix values="0 0 0 0 1 0 0 0 0 1 0 0 0 0 1 0 0 0 0.3 0"/><feBlend in2="shape" result="effect2_innerShadow_1_1637"/><feColorMatrix in="SourceAlpha" result="hardAlpha" values="0 0 0 0 0 0 0 0 0 0 0 0 0 0 0 0 0 0 127 0"/><feOffset dy="-2.504"/><feGaussianBlur stdDeviation="5.008"/><feComposite in2="hardAlpha" k2="-1" k3="1" operator="arithmetic"/><feColorMatrix values="0 0 0 0 1 0 0 0 0 1 0 0 0 0 1 0 0 0 0.5 0"/><feBlend in2="effect2_innerShadow_1_1637" result="effect3_innerShadow_1_1637"/><feColorMatrix in="SourceAlpha" result="hardAlpha" values="0 0 0 0 0 0 0 0 0 0 0 0 0 0 0 0 0 0 127 0"/><feOffset dy="-2.504"/><feGaussianBlur stdDeviation="1.252"/><feComposite in2="hardAlpha" k2="-1" k3="1" operator="arithmetic"/><feColorMatrix values="0 0 0 0 0.879 0 0 0 0 0.725 0 0 0 0 1 0 0 0 0.5 0"/><feBlend in2="effect3_innerShadow_1_1637" result="effect4_innerShadow_1_1637"/></filter><filter id="e" width="31.684" height="54.397" x="153.333" y="119.083" color-interpolation-filters="sRGB" filterUnits="userSpaceOnUse"><feFlood flood-opacity="0" result="BackgroundImageFix"/><feGaussianBlur in="BackgroundImageFix" stdDeviation="5.008"/><feComposite in2="SourceAlpha" operator="in" result="effect1_backgroundBlur_1_1637"/><feBlend in="SourceGraphic" in2="effect1_backgroundBlur_1_1637" result="shape"/><feColorMatrix in="SourceAlpha" result="hardAlpha" values="0 0 0 0 0 0 0 0 0 0 0 0 0 0 0 0 0 0 127 0"/><feOffset dy="-2.504"/><feGaussianBlur stdDeviation="5.008"/><feComposite in2="hardAlpha" k2="-1" k3="1" operator="arithmetic"/><feColorMatrix values="0 0 0 0 1 0 0 0 0 1 0 0 0 0 1 0 0 0 0.5 0"/><feBlend in2="shape" result="effect2_innerShadow_1_1637"/><feColorMatrix in="SourceAlpha" result="hardAlpha" values="0 0 0 0 0 0 0 0 0 0 0 0 0 0 0 0 0 0 127 0"/><feOffset dy="-2.504"/><feGaussianBlur stdDeviation="2.5"/><feComposite in2="hardAlpha" k2="-1" k3="1" operator="arithmetic"/><feColorMatrix values="0 0 0 0 1 0 0 0 0 1 0 0 0 0 1 0 0 0 0.6 0"/><feBlend in2="effect2_innerShadow_1_1637" result="effect3_innerShadow_1_1637"/></filter></defs></svg>