<svg xmlns="http://www.w3.org/2000/svg" width="702" height="252" fill="none"><path stroke="#B195FF" stroke-miterlimit="10" stroke-opacity=".5" stroke-width=".5" d="M19.123 23.953a200.37 200.37 0 0 1 64.032 50.741c25.987 31.532 24.573 50.85 49.533 68.863 24.26 17.493 57.556 22.313 84.57 15.705 36.861-9.025 38.528-33.586 85.778-72.487 27.788-22.857 79.895-65.77 141.353-61.614 31.049 2.102 61.917 16.044 90.611 28.995 35.169 15.875 40.219 24.03 59.199 27.787 22.543 4.47 57.398 1.292 107.524-38.66"/><path stroke="#B195FF" stroke-miterlimit="10" stroke-opacity=".5" stroke-width=".5" d="M18.434 28.473A201.131 201.131 0 0 1 77.39 72.206a315.97 315.97 0 0 1 4.832 5.4c26.253 30.542 25.214 48.99 49.86 66.556a99.673 99.673 0 0 0 35.786 16.104 107.85 107.85 0 0 0 28.137 2.609 94.171 94.171 0 0 0 20.913-3.201 71.26 71.26 0 0 0 21.408-9.472c12.082-7.973 20.539-18.738 33.551-32.244a244.492 244.492 0 0 1 31.87-27.787c6.041-4.47 13.097-9.858 21.252-15.38 21.819-14.81 49.739-30.903 83.241-36.46a153.023 153.023 0 0 1 34.432-1.933c1.763.096 3.515.241 5.243.41 17.107 1.656 33.405 6.041 50.053 11.864 12.456 4.301 24.236 9.665 35.918 14.703 4.893 2.15 9.267 4.108 13.217 5.944 23.861 11.127 30.059 17.095 46.357 19.704 12.383 1.982 28.403 1.631 48.736-5.424 16.672-5.775 36.413-16.177 59.525-33.38"/><path stroke="#B195FF" stroke-miterlimit="10" stroke-opacity=".5" stroke-width=".5" d="M17.793 33.016A200.552 200.552 0 0 1 76.412 75.3a305.663 305.663 0 0 1 4.833 5.195c26.579 29.562 25.938 47.116 50.246 64.271a100.776 100.776 0 0 0 35.906 16.419 105.267 105.267 0 0 0 28.307 2.512 87.727 87.727 0 0 0 20.877-3.624 77.66 77.66 0 0 0 21.335-9.87c12.565-8.215 21.481-18.629 34.348-31.242a204.453 204.453 0 0 1 32.197-25.54c6.041-3.962 12.939-8.819 21.009-13.627 21.505-12.818 47.722-26.265 80.886-30.65a187.945 187.945 0 0 1 34.589-1.546c1.788.096 3.552.217 5.291.374 17.398 1.522 33.285 5.28 50.271 10.462 12.794 3.915 24.465 9.182 36.244 14.147 4.893 2.054 9.315 3.927 13.362 5.678 23.934 10.402 30.349 15.887 46.586 17.82 12.372 1.474 28.271.665 48.713-6.475 16.696-5.847 36.691-16.056 60.31-32.426"/><path stroke="#B195FF" stroke-miterlimit="10" stroke-opacity=".5" stroke-width=".5" d="M17.032 37.484a200.128 200.128 0 0 1 58.402 40.92 386.92 386.92 0 0 1 4.832 5.013c26.93 28.572 26.628 45.256 50.609 61.952 11.357 7.901 22.544 13.591 36.015 16.745a102.729 102.729 0 0 0 28.5 2.416 82.199 82.199 0 0 0 20.841-4.059 85.406 85.406 0 0 0 21.287-10.269c13.024-8.457 22.387-18.497 35.121-30.203a171.487 171.487 0 0 1 32.535-23.232c6.101-3.456 12.794-7.78 20.768-11.876 21.299-10.946 45.704-21.662 78.529-24.9a243.005 243.005 0 0 1 34.77-1.147c1.801.084 3.625.193 5.316.338a266.805 266.805 0 0 1 50.452 9.073c13.133 3.516 24.707 8.735 36.631 13.567 4.893 1.981 9.351 3.757 13.507 5.425 23.994 9.665 30.639 14.642 46.804 15.935 12.371.99 28.185-.314 48.7-7.539 16.732-5.847 36.945-15.983 61.071-31.58"/><path stroke="#B195FF" stroke-miterlimit="10" stroke-opacity=".5" stroke-width=".5" d="M16.331 41.992a200.478 200.478 0 0 1 58.124 39.506c1.607 1.594 3.238 3.189 4.832 4.832 27.22 27.63 27.341 43.335 50.984 59.657 11.61 7.985 22.423 13.833 36.135 17.058a99.648 99.648 0 0 0 28.67 2.308 76.787 76.787 0 0 0 20.852-4.482 94.878 94.878 0 0 0 21.215-10.595c13.483-8.711 23.353-18.34 35.906-29.249 8.856-7.684 19.33-14.401 32.874-20.924 6.149-2.972 12.697-6.778 20.538-10.149 21.215-9.12 43.686-17.034 76.113-19.124a337.14 337.14 0 0 1 34.927-.761c1.825.072 3.625.169 5.352.29a302.917 302.917 0 0 1 50.742 7.683c13.495 3.117 24.9 8.3 36.945 12.963a584.899 584.899 0 0 0 13.664 5.183c24.042 8.989 30.917 13.398 47.033 14.039 12.372.495 28.078-1.281 48.676-8.578 16.733-5.932 37.187-15.887 61.809-30.686"/><path stroke="#B195FF" stroke-miterlimit="10" stroke-opacity=".5" stroke-width=".5" d="M15.643 46.5a201.226 201.226 0 0 1 57.833 38.092c1.607 1.534 3.238 3.056 4.833 4.627 27.546 26.578 28.041 41.499 51.334 57.361 11.864 8.083 22.302 14.087 36.244 17.385a97.14 97.14 0 0 0 28.863 2.199 72.102 72.102 0 0 0 20.768-4.893 105.892 105.892 0 0 0 21.154-10.982c13.954-8.94 24.344-18.122 36.691-28.233 9.122-7.442 19.826-13.29 33.212-18.63 6.222-2.488 12.625-5.75 20.297-8.456 21.3-7.37 41.705-12.408 73.793-13.374 11.151-.339 23.487-.761 35.097-.363 1.848.06 3.624.145 5.388.242a349.483 349.483 0 0 1 50.923 6.282c13.834 2.718 25.154 7.865 37.332 12.432 4.893 1.836 9.448 3.419 13.809 4.917 24.09 8.372 31.23 12.48 47.238 12.226 12.372-.194 27.981-2.259 48.652-9.665 16.745-6.041 37.453-15.79 62.57-29.78"/><path stroke="#B195FF" stroke-miterlimit="10" stroke-opacity=".5" stroke-width=".5" d="M14.942 50.992a202.51 202.51 0 0 1 57.556 36.69c1.607 1.474 3.25 2.936 4.833 4.434 27.884 25.612 28.754 39.615 51.696 55.066 12.082 8.155 22.17 14.329 36.365 17.711a95.262 95.262 0 0 0 28.996 2.09 68.525 68.525 0 0 0 20.743-5.315 122.434 122.434 0 0 0 21.083-11.357c14.413-9.193 25.371-17.976 37.452-27.243 9.399-7.248 20.345-12.153 33.55-16.321 6.319-2.006 13.193-3.166 20.055-6.657 22.266-.93 39.784-9.665 71.426-7.611 11.175.737 23.703-.29 35.265 0 1.873.06 3.685.12 5.425.205 18.629.882 32.885 1.91 51.152 4.833 14.172 2.307 25.371 7.43 37.682 11.851 4.833 1.764 9.484 3.262 13.954 4.676 24.103 7.635 31.497 10.873 47.48 10.269 12.384-.496 27.896-3.226 48.64-10.692 16.769-6.041 37.694-15.706 63.331-28.886"/><path stroke="#B195FF" stroke-miterlimit="10" stroke-opacity=".5" stroke-width=".5" d="M14.241 55.5A204.368 204.368 0 0 1 71.52 90.765c1.62 1.425 3.262 2.815 4.833 4.24 28.282 24.622 29.515 37.73 52.107 52.783 12.383 8.239 22.048 14.57 36.474 18.037a92.748 92.748 0 0 0 29.249 1.969c7.961-.664 14.498-3.056 20.707-5.738a143.929 143.929 0 0 0 21.034-11.731c14.872-9.435 26.446-17.759 38.25-26.24 9.665-6.971 20.901-10.994 33.828-14.027 6.451-1.51 13.169-1.86 19.825-4.904 22.266 1.715 37.731-3.081 69.058-1.861 11.236.447 23.909.181 35.435.435 1.884 0 3.721.085 5.448.145 18.944.713 32.789 1.075 51.383 3.503 14.497 1.909 25.588 6.995 38.032 11.284 4.832 1.692 9.52 3.093 14.099 4.422 24.163 6.983 31.786 9.665 47.709 8.372 12.384-.978 27.788-4.18 48.616-11.731 16.781-6.04 37.948-15.608 64.092-27.98"/><path stroke="#B195FF" stroke-miterlimit="10" stroke-opacity=".5" stroke-width=".5" d="M13.553 59.992A207.452 207.452 0 0 1 70.54 93.82c1.619 1.378 3.274 2.707 4.905 4.048 28.572 23.63 30.203 35.832 52.409 50.475 12.637 8.324 21.928 14.823 36.595 18.351a90.617 90.617 0 0 0 29.394 1.885c8.07-.737 14.497-3.323 20.671-6.162 7.623-3.503 13.894-7.611 20.961-12.081 15.344-9.665 29.225-15.476 39.047-25.237 11.127-4.748 21.53-13.809 34.203-11.719 6.596 1.087 13.169-.58 19.596-3.165 22.278 4.349 35.773 1.606 66.702 3.902 11.284.833 24.162.64 35.591.821 1.921 0 3.758 0 5.497.109 19.234.544 32.681.205 51.588 2.114 14.872 1.486 25.818 6.548 38.383 10.704 4.832 1.619 9.568 2.936 14.244 4.168 24.163 6.343 32.088 8.384 47.951 6.488 12.395-1.486 27.703-5.159 48.591-12.794 16.806-6.113 38.153-15.512 64.853-27.074"/><path stroke="#B195FF" stroke-miterlimit="10" stroke-opacity=".5" stroke-width=".5" d="M12.852 64.484a210.857 210.857 0 0 1 56.71 32.45c1.62 1.317 3.275 2.525 4.918 3.842 28.995 22.64 30.892 33.936 52.771 48.18 12.903 8.396 21.807 15.065 36.704 18.677a89.13 89.13 0 0 0 29.575 1.776c8.179-.809 14.498-3.624 20.647-6.584 7.479-3.624 13.676-7.925 20.889-12.48 15.803-9.931 30.409-15.053 39.869-24.247 11.513-4.228 22.568-12.709 34.541-9.411 6.548 1.8 13.156.725 19.33-1.413 22.29 6.982 33.828 6.318 64.345 9.664 11.333 1.209 24.308 1.112 35.761 1.209h5.522c19.547.362 32.619-.641 51.817.724 15.222 1.076 26.035 6.126 38.733 10.137 4.832 1.546 9.605 2.766 14.389 3.902 24.163 5.726 32.378 7.14 48.181 4.615 12.395-1.994 27.606-6.137 48.567-13.845 16.817-6.174 38.455-15.416 65.614-26.18"/><path stroke="#B195FF" stroke-miterlimit="10" stroke-opacity=".5" stroke-width=".5" d="M12.15 68.969a216.082 216.082 0 0 1 56.384 31.036c1.631 1.208 3.286 2.416 4.93 3.625 29.309 21.637 31.617 32.027 53.158 45.908 13.169 8.457 21.746 15.307 36.824 18.992a86.983 86.983 0 0 0 29.744 1.679c8.3-.882 14.498-3.854 20.611-7.007 7.334-3.818 13.471-8.228 20.829-12.855 16.273-10.172 31.593-14.63 40.617-23.244 11.913-3.721 22.955-5.05 34.879-7.116 6.839 1.305 13.145 2.018 19.113.339 22.29 9.665 31.847 11.042 61.978 15.403 11.381 1.655 24.525 1.74 35.93 1.607h5.558c19.861-.254 32.499-1.51 52.034-.664 15.585.664 26.253 5.69 39.096 9.568 4.832 1.462 9.665 2.609 14.497 3.624 24.163 5.11 32.62 5.872 48.399 2.718 12.407-2.488 27.509-7.103 48.567-14.896 16.829-6.221 38.66-15.319 66.363-25.286"/><path stroke="#B195FF" stroke-miterlimit="10" stroke-opacity=".5" stroke-width=".5" d="M11.462 73.465a222.296 222.296 0 0 1 56.154 29.623c1.62 1.208 3.287 2.331 4.93 3.467 29.696 20.623 32.342 30.118 53.496 43.577 13.435 8.553 21.565 15.56 36.933 19.33a85.181 85.181 0 0 0 29.998 1.558c8.457-.954 14.558-4.107 20.539-7.418 7.248-3.974 13.289-8.529 20.767-13.289 16.721-10.414 32.777-14.207 41.391-22.241 12.299-3.202 23.511-3.625 35.218-4.833 6.922 1.933 13.132 3.31 18.883 2.078 22.29 12.263 29.877 15.79 59.61 21.166 11.429 2.066 24.73 2.211 36.099 2.006h5.594c20.151-.447 32.402-2.416 52.252-2.066 15.923.254 26.47 5.267 39.446 9 4.832 1.402 9.665 2.417 14.679 3.395 24.162 4.519 32.958 4.615 48.627.834 12.408-2.996 27.413-8.07 48.543-15.947 16.842-6.27 38.963-15.223 67.125-24.38"/><path stroke="#B195FF" stroke-miterlimit="10" stroke-opacity=".5" stroke-width=".5" d="M10.762 77.945a230.165 230.165 0 0 1 55.876 28.222c1.631 1.208 3.298 2.199 4.942 3.274 30.094 19.596 33.078 28.197 53.859 41.281 13.7 8.614 21.444 15.79 37.053 19.644a83.607 83.607 0 0 0 30.107 1.462c8.457-1.039 14.594-4.373 20.539-7.853 7.055-4.132 13.047-8.831 20.707-13.603 17.192-10.668 33.961-13.785 42.176-21.251 12.698-2.694 24.03-2.283 35.556-2.501 6.995 2.549 13.12 4.603 18.642 3.818 22.302 14.908 27.908 20.538 57.253 26.929 11.478 2.489 24.936 2.513 36.245 2.416h5.63c20.465-.64 32.317-2.767 52.481-3.455 16.262-.556 26.688 4.832 39.796 8.457a139.084 139.084 0 0 0 14.824 3.141c24.163 3.938 33.248 3.358 48.858-1.051 12.419-3.504 27.316-9.037 48.519-16.999 16.914-6.318 39.216-15.137 67.885-23.485"/><path stroke="#B195FF" stroke-miterlimit="10" stroke-opacity=".5" stroke-width=".5" d="M10.06 79.84a240.34 240.34 0 0 1 55.6 26.868c1.63 1.088 3.31 2.078 4.965 3.081 30.481 18.569 33.828 26.277 54.209 38.974 13.966 8.698 21.324 16.044 37.162 19.97a82.162 82.162 0 0 0 30.289 1.365c8.626-1.123 14.63-4.627 20.538-8.275 6.874-4.374 12.77-9.206 20.611-14.039 17.651-10.873 35.157-13.374 42.961-20.248 13.085-2.186 24.55-.906 35.894-.205 7.068 3.177 13.097 5.895 18.4 5.569 22.315 17.542 25.951 25.371 54.886 32.619 11.538 2.912 25.154 2.972 36.438 2.791l5.654-.109c20.78-.362 32.221-4.107 52.699-4.832 16.636-.604 26.905 4.41 40.146 7.853a133.132 133.132 0 0 0 14.981 2.887c24.103 3.359 33.538 2.078 49.075-2.948 12.432-4.011 27.232-10.003 48.507-18.049 16.914-6.367 39.47-15.041 68.647-22.58"/><path stroke="#B195FF" stroke-miterlimit="10" stroke-opacity=".5" stroke-width=".5" d="M9.337 80.602a252.501 252.501 0 0 1 55.309 25.37c1.643 1.039 3.322 1.957 4.977 2.887 30.929 17.566 34.565 24.428 54.608 36.703 14.244 8.759 21.203 16.285 37.283 20.296a80.757 80.757 0 0 0 30.47 1.208c8.723-1.208 14.655-4.832 20.478-8.698 6.753-4.434 12.613-9.435 20.538-14.352 18.122-11.151 36.341-12.951 43.747-19.246 13.483-1.679 25.504-1.413 36.244 2.102 7.696 2.525 13.084 7.249 18.122 7.249 22.315 20.176 23.97 30.203 52.518 38.43 11.574 3.359 25.371 3.443 36.595 3.19 2.054 0 3.963-.097 5.69-.145 21.094-.556 32.125-4.99 52.929-6.246 16.974-1.027 27.123 3.986 40.497 7.248a121.43 121.43 0 0 0 15.126 2.634c24.09 2.803 33.828.81 49.304-4.832 12.432-4.531 27.135-10.982 48.483-19.101 16.914-6.415 39.724-14.944 69.408-21.746"/><path stroke="#B195FF" stroke-miterlimit="10" stroke-opacity=".5" stroke-width=".5" d="M8.672 81.34a268.827 268.827 0 0 1 55.03 23.945c1.656.978 3.347 1.824 4.99 2.694 31.315 16.478 35.278 22.422 54.935 34.383 14.497 8.819 21.07 16.527 37.452 20.61a78.927 78.927 0 0 0 30.651 1.208c8.843-1.292 14.691-5.134 20.441-9.109 6.621-4.579 12.408-9.749 20.539-14.739 18.569-11.392 37.512-12.516 44.532-18.242 13.857-1.209 26.12.132 36.558 4.409 7.841 3.214 13.072 8.457 17.929 9.049 22.314 22.821 21.988 35.035 50.162 44.193 11.622 3.805 25.552 3.902 36.764 3.624l5.726-.193c21.397-.737 32.028-5.872 53.159-7.635 17.336-1.462 27.34 3.624 40.859 6.705a113.028 113.028 0 0 0 15.271 2.416c24.066 2.259 34.118-.459 49.534-6.717 12.431-5.038 27.026-11.949 48.458-20.152a411.012 411.012 0 0 1 70.06-20.876"/><path stroke="#B195FF" stroke-miterlimit="10" stroke-opacity=".5" stroke-width=".5" d="M7.97 81.578a290.508 290.508 0 0 1 54.754 22.568c1.667.918 3.358 1.703 5.001 2.501 31.738 15.427 36.015 20.537 55.297 32.087 14.788 8.88 20.949 16.769 37.513 20.937a77.34 77.34 0 0 0 30.832 1.039c8.94-1.378 14.715-5.389 20.405-9.532 6.476-4.724 12.19-10.052 20.442-15.114 19.04-11.634 38.66-12.081 45.317-17.24 14.256-.652 26.712 1.692 36.897 6.705 7.974 3.927 13.06 9.774 17.687 10.801 22.327 25.455 20.007 39.868 47.794 49.955 11.671 4.253 25.77 4.35 36.933 3.975 2.09-.072 4.035-.169 5.763-.241 21.747-.931 31.931-6.742 53.364-9.025 17.675-1.885 27.557 3.153 41.209 6.137a106.062 106.062 0 0 0 15.416 2.126c24.054 1.728 34.408-1.739 49.764-8.601 12.431-5.558 26.929-12.915 48.434-21.215a353.712 353.712 0 0 1 70.93-19.873"/><path stroke="#B195FF" stroke-miterlimit="10" stroke-opacity=".5" stroke-width=".5" d="M7.27 80.89a318.679 318.679 0 0 1 54.476 21.155c1.667.857 3.37 1.582 5.013 2.319 32.173 14.341 36.812 18.545 55.66 29.78 15.065 8.94 20.828 17.023 37.633 21.251a76 76 0 0 0 31.001.942c9.049-1.473 14.751-5.641 20.369-9.954 6.343-4.833 11.985-10.354 20.382-15.488 19.499-11.876 39.868-11.671 46.102-16.238 14.643-.145 27.268 3.262 37.235 9.013 8.071 4.663 13.048 11.066 17.458 12.54 22.326 28.101 18.001 44.7 45.426 55.706 11.695 4.712 25.975 4.833 37.102 4.374 2.102-.085 4.059-.193 5.787-.278 22.025-1.112 31.81-7.635 53.557-10.426 18.025-2.32 27.787 2.73 41.548 5.569a102.577 102.577 0 0 0 15.573 1.873c24.042 1.208 34.686-3.02 49.981-10.487 12.432-6.04 26.845-13.893 48.422-22.265a310.628 310.628 0 0 1 71.691-18.98"/><path stroke="#B195FF" stroke-miterlimit="10" stroke-opacity=".5" stroke-width=".5" d="M6.581 80.203a358.96 358.96 0 0 1 54.185 19.753c1.68.797 3.383 1.437 5.026 2.114 32.62 13.289 37.452 16.612 56.022 27.485 15.331 8.988 20.707 17.264 37.742 21.577a74.43 74.43 0 0 0 31.182.833c9.158-1.582 14.788-5.883 20.345-10.378 6.21-5.013 11.768-10.655 20.309-15.862 19.971-12.081 41.077-11.26 46.888-15.246a70.76 70.76 0 0 1 37.561 11.32c8.155 5.412 13.048 12.359 17.228 14.292 22.339 30.734 15.996 49.532 43.071 61.456 11.719 5.183 26.18 5.28 37.259 4.772 2.138-.096 4.095-.217 5.835-.326 22.314-1.329 31.738-8.457 53.799-11.815 18.351-2.743 28.016 2.307 41.91 5.001 4.833.931 9.931 1.076 15.706 1.607 23.945 2.211 34.976-4.289 50.21-12.371 12.432-6.596 26.748-14.86 48.398-23.316a279.49 279.49 0 0 1 72.489-18.122"/><path stroke="#B195FF" stroke-miterlimit="10" stroke-opacity=".5" stroke-width=".5" d="M5.88 79.516a417.376 417.376 0 0 1 53.908 18.339c1.692.725 3.395 1.317 5.05 1.92 33.03 12.082 38.238 14.679 56.372 25.19 15.621 9.049 20.538 17.506 37.863 21.903a73.3 73.3 0 0 0 31.412.725c9.254-1.691 14.812-6.137 20.309-10.801 6.04-5.158 11.55-10.957 20.236-16.237 20.442-12.371 42.285-10.873 47.673-14.243A69.302 69.302 0 0 1 316.554 120c8.204 6.149 13.036 13.651 16.987 16.031 22.351 33.368 13.978 54.365 40.702 67.22 11.755 5.642 26.386 5.726 37.453 5.158 2.15-.108 4.131-.253 5.859-.362 22.629-1.534 31.641-9.399 54.028-13.217 18.714-3.177 28.198 1.909 42.285 4.434 5.26.732 10.555 1.184 15.863 1.353 23.982 1.559 35.254-5.569 50.44-14.256 12.42-7.115 26.652-15.826 48.326-24.367a253.841 253.841 0 0 1 73.213-17.18"/><path stroke="#B195FF" stroke-miterlimit="10" stroke-opacity=".5" stroke-width=".5" d="M5.18 78.824a511.358 511.358 0 0 1 53.642 16.914c1.692.664 3.395 1.208 5.05 1.727 33.466 11.018 38.987 12.734 56.783 22.955 15.851 9.036 20.369 17.699 37.923 22.169a71.827 71.827 0 0 0 31.545.628c9.363-1.8 14.86-6.391 20.273-11.224 5.944-5.291 11.344-11.259 20.188-16.611 20.888-12.613 43.493-10.414 48.446-13.289a68.521 68.521 0 0 1 38.238 15.971c8.227 6.91 13.012 14.944 16.745 17.771 22.35 36.014 11.948 59.282 38.346 72.982 11.779 6.114 26.579 6.186 37.597 5.558 2.175-.121 4.169-.278 5.896-.411 22.955-1.74 31.545-10.281 54.258-14.606 19.064-3.624 28.415 1.498 42.611 3.866a131.452 131.452 0 0 0 16.008 1.099c24.018.906 35.531-6.85 50.657-16.152 12.432-7.623 26.579-16.793 48.326-25.371a233.535 233.535 0 0 1 73.962-16.273"/><path stroke="#B195FF" stroke-miterlimit="10" stroke-opacity=".5" stroke-width=".5" d="M4.504 78.14c20.695 5.256 39.265 10.608 53.351 15.513 1.716.604 3.42 1.063 5.063 1.546 33.912 9.858 39.735 10.777 57.096 20.538 16.177 9.134 20.345 17.989 38.093 22.544a70.612 70.612 0 0 0 31.714.519c9.472-1.921 14.908-6.632 20.248-11.646 5.799-5.437 11.127-11.562 20.116-16.986 21.36-12.855 44.701-9.991 49.232-12.238a68.265 68.265 0 0 1 38.576 18.218c8.239 7.671 13.519 15.766 16.515 19.523 27.787 34.951 9.894 64.163 35.978 78.733 11.792 6.596 26.797 6.645 37.767 5.956 2.199-.133 4.192-.314 5.932-.459 23.232-1.945 31.411-11.163 54.463-15.983 19.415-4.072 28.633 1.075 42.973 3.274a86.087 86.087 0 0 0 16.153.857c24.03-.821 35.81-8.142 50.887-18.037 12.42-8.155 26.458-17.771 48.326-26.47a217.396 217.396 0 0 1 74.723-15.379"/><path stroke="#B195FF" stroke-miterlimit="10" stroke-opacity=".5" stroke-width=".5" d="M3.791 77.45c20.925 5.097 39.373 9.93 53.074 14.098 1.727.531 3.43.93 5.074 1.353 34.384 8.698 40.485 8.831 57.459 18.279 16.467 9.181 20.224 18.254 38.202 22.882a69.503 69.503 0 0 0 31.907.41c9.568-2.054 14.932-6.886 20.2-12.081 5.678-5.581 10.873-11.864 20.055-17.361 21.819-13.108 45.825-9.568 50.029-11.247 16.6 2.416 29.648 11.066 38.902 20.538 8.228 8.457 13.435 17.191 16.274 21.263 26.881 38.502 7.853 69.044 33.61 84.495 11.804 7.068 27.014 7.092 37.936 6.343 2.223-.157 4.241-.338 5.968-.495 23.547-2.163 31.327-12.082 54.693-17.385 19.753-4.506 28.838.676 43.312 2.706 5.4.732 10.859.93 16.297.592 24.042-1.293 36.1-9.411 51.129-19.922 12.408-8.674 26.362-18.738 48.326-27.521 17.022-6.801 41.765-14.183 75.484-14.497"/><path stroke="#B195FF" stroke-miterlimit="10" stroke-opacity=".5" stroke-width=".5" d="M3.09 76.762c21.142 4.977 39.47 9.23 52.796 12.697 1.74.447 3.443.785 5.086 1.208 34.782 7.454 41.234 6.814 57.822 15.923 16.587 9.109 20.103 18.496 38.322 23.196a68.18 68.18 0 0 0 32.076.314c9.665-2.199 14.981-7.128 20.176-12.492 5.545-5.714 10.704-12.166 19.983-17.735 22.29-13.29 47.021-9.145 50.814-10.245 16.999 2.924 30.059 12.589 39.241 22.834 8.203 9.157 13.289 18.592 16.032 22.954 25.842 41.982 5.787 73.936 31.254 90.246 11.804 7.563 27.208 7.551 38.105 6.741 2.235-.169 4.265-.374 6.041-.543 23.848-2.417 31.23-12.951 54.91-18.775 20.103-4.941 29.068.278 43.674 2.139a80.41 80.41 0 0 0 16.443.338c24.054-1.776 36.365-10.692 51.358-21.806 12.396-9.194 26.265-19.705 48.326-28.572 17.047-6.85 42.019-14.099 76.245-13.58"/><path stroke="#B195FF" stroke-miterlimit="10" stroke-opacity=".5" stroke-width=".5" d="M2.401 76.07c21.348 4.833 39.555 8.53 52.506 11.308 1.752.375 3.456.665 5.099.955 35.205 6.294 41.982 4.893 58.184 13.676 17.047 9.23 19.97 18.725 38.431 23.509a66.84 66.84 0 0 0 32.257.206c9.762-2.356 15.029-7.382 20.152-12.903 5.412-5.871 10.487-12.468 19.922-18.122 22.737-13.59 48.386-10.486 51.588-9.242 16.527 6.391 30.457 14.1 39.578 25.141 8.168 9.895 13.205 19.982 15.803 24.755 24.706 45.364 3.697 78.841 28.887 96.008 11.803 8.046 27.412 7.986 38.261 7.128 2.272-.181 4.301-.398 6.041-.58 24.163-2.585 31.122-13.845 55.128-20.175 20.441-5.388 29.273-.121 44.024 1.57a78.282 78.282 0 0 0 16.588.085c24.066-2.247 36.643-11.972 51.576-23.691 12.395-9.665 26.18-20.683 48.325-29.635 17.059-6.899 42.285-13.99 77.007-12.673"/><path stroke="#B195FF" stroke-miterlimit="10" stroke-opacity=".5" stroke-width=".5" d="M1.701 75.383c21.566 4.748 39.64 7.792 52.228 9.87 1.764.29 3.468.532 5.123.761 35.616 5.099 42.732 2.96 58.534 11.393 17.397 9.302 19.814 18.967 38.552 23.8a65.886 65.886 0 0 0 32.439.096c9.834-2.525 15.065-7.623 20.103-13.289 5.292-6.041 10.281-12.77 19.862-18.484 23.208-13.833 49.401-8.602 52.373-8.252 18.122 2.163 30.844 15.61 39.868 27.449a145.915 145.915 0 0 1 15.561 26.494c23.559 48.663 1.619 83.746 26.579 101.771 11.792 8.53 27.619 8.457 38.431 7.527 2.284-.193 4.338-.435 6.041-.628 24.453-2.839 31.013-14.763 55.357-21.565 20.768-5.847 29.491-.495 44.375 1.003a75.93 75.93 0 0 0 16.733-.182c24.09-2.718 36.897-13.289 51.805-25.575 12.372-10.257 26.072-21.65 48.326-30.674 17.083-6.947 42.526-13.906 77.768-11.78"/><path stroke="#B195FF" stroke-miterlimit="10" stroke-opacity=".5" stroke-width=".5" d="M1 74.695c21.747 4.543 39.712 7.032 51.95 8.457 40.497 4.712 47.915 1.208 64.032 9.665 17.638 9.266 19.729 19.221 38.66 24.162a64.79 64.79 0 0 0 32.62 0c20.273-5.557 20.828-21.287 39.869-32.619 23.667-14.086 50.572-7.889 53.158-7.248 34.456 8.456 50.524 46.282 55.574 57.989 22.387 51.852-.483 88.639 24.163 107.522 14.305 10.958 34.891 8.457 44.702 7.249 24.754-3.02 30.916-15.633 55.574-22.954 27.787-8.264 33.913 3.624 61.615 0 44.194-5.835 51.286-39.143 100.276-59.198 17.095-6.995 42.78-13.809 78.529-10.873"/><path stroke="#B195FF" stroke-miterlimit="10" stroke-opacity=".5" stroke-width=".5" d="M1.652 76.203c21.36 4.543 39.023 7.249 51.262 8.747 39.421 4.977 47.117 1.691 63.137 10.16 17.313 9.182 19.621 18.847 38.081 23.824a65.852 65.852 0 0 0 32.004.411c20.006-4.724 20.78-20.067 39.53-30.964 23.16-13.555 49.256-7.913 52.276-7.418 28.259 4.579 43.844 32.426 51.515 47.286 1.571 3.032 2.707 5.642 3.625 7.526 22.955 49.086 1.28 84.435 25.564 102.267 14.498 10.62 35.254 7.95 45.475 6.802a73.044 73.044 0 0 0 26.736-8.336c8.457-4.241 16.37-9.025 29.382-12.202 3.987-.967 7.539-1.498 10.728-1.957 19.33-2.791 26.785 4.083 50.078-.061a80.8 80.8 0 0 0 25.66-9.169c21.638-12.081 35.169-33.827 68.671-49.702a130.53 130.53 0 0 1 6.162-2.73c17.252-7.177 43.324-14.317 79.616-11.574"/><path stroke="#B195FF" stroke-miterlimit="10" stroke-opacity=".5" stroke-width=".5" d="M2.305 77.715c20.925 4.542 38.334 7.357 50.585 9.025 38.322 5.23 46.26 2.186 62.231 10.68 16.999 8.988 19.511 18.568 37.452 23.461a67.226 67.226 0 0 0 31.412.845c19.705-3.95 20.756-18.798 39.204-29.333 22.665-12.939 48.072-8.77 51.383-7.574 26.144 9.362 43.106 30.504 51.007 44.507 1.607 2.851 2.719 5.351 3.625 7.115 23.486 46.38 3.093 80.207 26.99 97.024 14.618 10.269 35.604 7.442 46.235 6.343a82.233 82.233 0 0 0 27.195-7.672c8.59-3.83 16.624-7.973 29.479-10.426 3.999-.773 7.575-1.063 10.765-1.522 19.27-2.791 26.398 2.634 49.219-2.537a87.174 87.174 0 0 0 25.275-10.197c20.828-12.081 35.036-34.588 69.214-50.994a169.811 169.811 0 0 1 6.234-2.803c17.397-7.357 43.856-14.824 80.704-12.287"/><path stroke="#B195FF" stroke-miterlimit="10" stroke-opacity=".5" stroke-width=".5" d="M2.957 79.227c20.49 4.53 37.634 7.514 49.872 9.362 37.235 5.45 45.438 2.683 61.337 11.175 16.673 8.844 19.403 18.243 36.909 23.112a68.498 68.498 0 0 0 30.784 1.208c19.33-3.202 20.719-17.554 38.866-27.678 22.169-12.371 46.767-9.206 50.5-7.756a107.525 107.525 0 0 1 50.488 41.728c1.643 2.67 2.743 5.062 3.625 6.717 23.993 43.577 4.905 76.015 28.379 91.817 14.787 9.931 35.966 6.923 47.009 5.896a94.525 94.525 0 0 0 27.642-7.02c8.747-3.418 16.914-6.91 29.575-8.662 4.035-.555 7.624-.616 10.813-1.075 19.246-2.803 25.987 1.208 48.326-5.014a96.106 96.106 0 0 0 24.887-11.211c20.019-12.166 34.964-35.313 69.746-52.299a183 183 0 0 1 6.307-2.888c17.542-7.526 44.399-15.319 81.791-12.975"/><path stroke="#B195FF" stroke-miterlimit="10" stroke-opacity=".5" stroke-width=".5" d="M3.61 80.723c20.055 4.542 36.944 7.683 49.207 9.665 36.148 5.666 44.629 3.177 60.407 11.682 16.334 8.711 19.33 17.904 36.305 22.761a70.291 70.291 0 0 0 30.203 1.691c19.053-2.416 20.684-16.309 38.54-26.035 21.674-11.9 45.172-7.164 49.606-7.973 25.552 5.159 41.621 26.578 49.981 38.949 1.679 2.477 2.755 4.748 3.697 6.307 24.525 40.81 6.741 71.774 29.781 86.537 14.981 9.593 36.316 6.415 47.782 5.437a110.49 110.49 0 0 0 28.089-6.355c8.916-3.008 17.18-5.835 29.684-6.898 4.059-.351 7.66-.169 10.873-.629 19.222-2.802 25.577-.253 47.504-7.478 9.291-3.068 16.914-7.466 24.501-12.25 19.234-12.19 34.843-36.111 70.29-53.592 2.014-.991 4.14-1.977 6.379-2.96 17.699-7.72 44.943-15.838 82.879-13.688"/><path stroke="#B195FF" stroke-miterlimit="10" stroke-opacity=".5" stroke-width=".5" d="M4.25 82.234c19.584 4.53 36.256 7.829 48.58 9.883 35.035 5.871 43.734 3.72 59.512 12.178 15.996 8.601 19.174 17.578 35.725 22.41a71.776 71.776 0 0 0 29.551 2.102c18.69-1.788 20.647-15.065 38.202-24.38 21.166-11.223 43.807-6.91 48.736-8.082 24.791 4.688 40.847 24.622 49.461 36.171 1.716 2.296 2.779 4.458 3.746 5.908 25.045 38.019 8.602 67.521 31.182 81.282 15.174 9.254 36.679 5.895 48.543 4.989 12.081-.918 20.599-3.419 28.548-5.69 9.086-2.597 17.543-6.367 29.781-5.146a43.96 43.96 0 0 0 10.873-.182c19.21-2.803 25.154-1.655 46.659-9.955 9-3.467 16.491-8.239 24.163-13.289 18.448-12.178 34.722-36.835 70.821-54.884a176.551 176.551 0 0 1 6.451-3.045c17.845-7.889 45.475-16.334 83.966-14.389"/><path stroke="#B195FF" stroke-miterlimit="10" stroke-opacity=".5" stroke-width=".5" d="M4.902 83.758C24.1 88.288 40.47 91.744 52.745 93.93c33.985 6.04 42.961 4.204 58.667 12.685 15.706 8.481 19.077 17.228 35.133 22.073 13.99 4.216 25.649 3.31 28.995 2.525 17.845-4.229 20.599-13.833 37.863-22.737 20.66-10.656 42.467-6.729 47.855-8.252 24.018 4.229 40.05 22.628 48.954 33.381 1.74 2.114 2.791 4.168 3.769 5.521 25.565 35.228 10.499 63.232 32.62 76.039 15.392 8.915 37.03 5.376 49.316 4.53 12.287-.846 20.901-3.117 28.996-5.038 9.242-2.187 17.989-5.461 29.877-3.371a34.2 34.2 0 0 0 10.873.254c19.186-2.803 24.731-3.056 45.801-12.419 8.723-3.866 16.044-9.025 23.728-14.292 17.675-12.081 34.625-37.573 71.365-56.19a166.97 166.97 0 0 1 6.524-3.117c18.001-8.07 46.018-16.841 85.053-15.101"/><path stroke="#B195FF" stroke-miterlimit="10" stroke-opacity=".5" stroke-width=".5" d="M5.555 85.227c18.762 4.566 34.867 8.19 47.154 10.462 32.897 6.185 42.14 4.699 57.773 13.18 15.343 8.336 18.968 16.914 34.553 21.746 13.603 4.217 24.936 3.697 28.331 2.948 17.493-3.89 20.538-12.588 37.524-21.081 20.152-10.1 41.077-6.536 46.973-8.457 23.257 3.757 39.228 20.538 48.434 30.601a62.272 62.272 0 0 1 3.818 5.111c26.06 32.438 12.408 58.932 33.997 70.795 15.622 8.566 37.392 4.833 50.09 4.072 12.214-.749 21.191-2.815 29.442-4.374 9.412-1.776 18.449-4.47 29.974-1.607a28.314 28.314 0 0 0 10.946.701c19.173-2.815 24.308-4.446 44.955-14.896 8.457-4.265 15.585-9.786 23.329-15.319 16.914-12.081 34.529-38.297 71.909-57.482a159.257 159.257 0 0 1 6.596-3.189c18.122-8.252 46.55-17.349 86.141-15.803"/><path stroke="#B195FF" stroke-miterlimit="10" stroke-opacity=".5" stroke-width=".5" d="M6.207 86.715c18.328 4.542 34.166 8.287 46.477 10.752 31.799 6.355 41.307 5.207 56.928 13.688 15.017 8.203 18.859 16.563 33.961 21.372 13.289 4.216 24.235 4.083 27.727 3.37 17.155-3.515 20.538-11.344 37.186-19.438 19.645-9.532 39.76-6.343 46.091-8.59 22.483 3.286 38.37 18.569 47.927 27.787a54.852 54.852 0 0 1 3.854 4.723c26.579 29.635 14.34 54.595 35.398 65.541 15.851 8.227 37.743 4.325 50.851 3.624 12.323-.677 21.505-2.525 29.901-3.721a106.298 106.298 0 0 1 30.071.157c4.253.544 7.829 1.607 10.982 1.208 19.149-2.827 23.873-5.811 44.097-17.361 8.143-4.651 15.138-10.571 22.955-16.345 16.177-11.985 34.42-39.035 72.489-58.787a173.859 173.859 0 0 1 6.681-3.274c18.291-8.457 47.117-17.856 87.215-16.503"/><path stroke="#B195FF" stroke-miterlimit="10" stroke-opacity=".5" stroke-width=".5" d="M6.92 88.793c17.892 4.53 33.478 8.456 45.789 11.03 30.662 6.487 40.436 5.678 55.912 14.195 14.703 8.07 18.751 16.225 33.381 21.021 12.855 4.217 23.511 4.458 27.099 3.794 16.841-3.105 20.478-10.112 36.872-17.796 19.125-8.964 38.407-6.149 45.197-8.746 21.747 2.814 37.452 16.502 47.407 25.032a49.83 49.83 0 0 1 3.903 4.325c27.002 26.832 16.298 50.245 36.8 60.285 16.104 7.889 38.092 3.817 51.624 3.177 12.407-.592 21.807-2.223 30.348-3.056 9.738-.955 18.811-.145 30.204 1.92 4.313.786 7.877 2.054 11.018 1.595 19.125-2.827 23.45-7.164 43.251-19.837 7.853-5.038 14.679-11.332 22.556-17.373 15.453-11.863 34.324-39.747 72.984-60.079a167.746 167.746 0 0 1 6.754-3.359c18.436-8.602 47.613-18.351 88.303-17.204"/><path stroke="#B195FF" stroke-miterlimit="10" stroke-opacity=".5" stroke-width=".5" d="M7.512 94.026c17.457 4.53 32.777 8.577 45.1 11.32 29.635 6.608 39.675 6.197 55.079 14.654 14.377 7.938 18.641 15.899 32.801 20.671 12.468 4.216 22.785 4.833 26.482 4.216 16.528-2.67 20.43-8.879 36.535-16.152 18.605-8.457 37.053-5.944 44.314-8.916 20.949 2.416 35.338 16.382 46.9 22.266 1.535 1.643 2.864 2.972 3.927 3.914 27.461 24.017 18.291 45.908 38.213 55.042 16.371 7.526 38.455 3.286 52.397 2.718 12.493-.508 22.109-1.921 30.796-2.416 9.907-.544 19.149 1.063 30.264 3.684 4.373 1.027 7.925 2.501 11.054 2.03 19.113-2.827 23.028-8.457 42.394-22.302 7.575-5.4 14.232-12.081 22.169-18.399 14.74-11.731 34.227-40.472 73.528-61.373a199.926 199.926 0 0 1 6.826-3.431c18.593-8.722 48.193-18.798 89.39-17.795"/><path stroke="#B195FF" stroke-miterlimit="10" stroke-opacity=".5" stroke-width=".5" d="M8.128 98.737c17.059 4.53 32.112 8.71 44.447 11.598 28.56 6.717 38.915 6.717 54.186 15.222 14.05 7.792 18.533 15.56 32.209 20.32 12.081 4.205 22.06 5.147 25.878 4.627 16.225-2.21 20.381-7.635 36.244-14.497 18.122-7.853 35.701-5.763 43.433-9.085 20.176 1.885 34.42 14.582 46.381 19.475a44.19 44.19 0 0 0 3.974 3.515c27.884 21.227 20.285 41.475 39.615 49.799 16.649 7.164 38.806 2.754 53.159 2.271 12.588-.435 22.423-1.631 31.242-1.739 10.076-.133 19.5 2.295 30.373 5.448 4.422 1.281 7.974 2.948 11.103 2.416 19.076-2.839 22.604-9.81 41.536-24.778 7.248-5.763 13.784-12.818 21.746-19.415 14.027-11.573 34.118-41.196 74.059-62.677 2.127-1.208 4.434-2.32 6.899-3.503 18.738-8.976 48.688-19.33 90.477-18.617"/><path stroke="#B195FF" stroke-miterlimit="10" stroke-opacity=".5" stroke-width=".5" d="M8.805 103.45c16.612 4.53 31.411 8.843 43.734 11.9 27.486 6.789 38.033 7.188 53.292 15.705 13.724 7.66 18.424 15.235 31.629 19.97 11.719 4.205 21.335 4.555 25.262 5.05 15.887 2.03 20.333-6.403 35.858-12.842 17.578-7.249 34.347-5.569 42.55-9.254 19.415 1.413 33.49 12.794 45.91 16.696a37.66 37.66 0 0 0 4.011 3.117c28.294 18.424 22.29 37.041 41.077 44.543 16.914 6.79 39.155 2.235 53.931 1.812 12.686-.35 22.725-1.317 31.69-1.075 10.245.278 19.825 3.552 30.469 7.249 4.482 1.534 8.01 3.382 11.139 2.923 19.064-2.851 22.206-11.126 40.678-27.255 7.019-6.125 13.35-13.567 21.396-20.441 13.29-11.405 34.022-41.922 74.603-64.03a278.47 278.47 0 0 1 6.971-3.624c18.883-9.158 49.232-19.886 91.565-19.33"/><path stroke="#B195FF" stroke-miterlimit="10" stroke-opacity=".5" stroke-width=".5" d="M9.457 108.174c16.177 4.578 30.699 8.964 43.046 12.177 26.41 6.863 37.21 7.684 52.397 16.213 13.399 7.515 18.316 14.848 31.037 19.681 11.345 4.204 20.635 4.832 24.646 5.472 15.489 2.417 20.285-5.17 35.532-11.199 17.059-6.753 33.006-5.376 41.669-9.423 18.641.954 32.62 10.994 45.353 13.917a31.83 31.83 0 0 0 4.048 2.718c28.681 15.633 24.344 32.62 42.43 39.3 17.24 6.391 39.518 1.692 54.692 1.354 12.782-.278 23.039-1.015 32.149-.411 10.414.688 20.152 4.832 30.566 8.976 4.53 1.812 8.058 3.842 11.175 3.371 19.04-2.851 21.819-12.42 39.869-29.72 6.741-6.487 12.903-14.304 20.997-21.468 12.662-11.223 33.925-42.647 75.147-65.238 2.166-1.2 4.514-2.409 7.043-3.625 19.04-9.326 49.764-20.38 92.653-20.018"/><path stroke="#B195FF" stroke-miterlimit="10" stroke-opacity=".5" stroke-width=".5" d="M10.11 112.885c15.705 4.519 29.998 9.085 42.357 12.468 25.37 6.91 36.389 8.191 51.503 16.708 13.084 7.382 18.207 14.582 30.457 19.33 10.958 4.204 19.922 5.11 24.03 5.896 15.078 2.863 20.236-3.951 35.193-9.557 16.54-6.197 31.654-5.182 40.787-9.592 17.881.483 31.653 9.206 44.846 11.139a27.717 27.717 0 0 0 4.084 2.307c28.995 12.891 26.386 28.113 43.831 34.057 17.446 5.944 39.869 1.208 55.466.906 12.867-.205 23.341-.725 32.62.242 10.571 1.099 20.466 6.04 30.662 10.752 4.579 2.09 8.107 4.277 11.212 3.818 19.016-2.863 21.444-13.7 38.975-32.197 6.487-6.837 12.48-15.028 20.623-22.495 11.984-11.006 33.828-43.359 75.678-66.579 2.174-1.208 4.554-2.416 7.116-3.733 19.161-9.556 50.282-20.937 93.715-20.72"/><path stroke="#B195FF" stroke-miterlimit="10" stroke-opacity=".5" stroke-width=".5" d="M10.762 117.582c15.307 4.519 29.31 9.206 41.68 12.746 24.26 6.959 35.556 8.686 50.598 17.216 12.758 7.248 18.122 14.243 29.865 18.931 10.595 4.204 19.233 5.388 23.426 6.318 14.679 3.25 20.176-2.718 34.867-7.913 16.008-5.654 30.288-4.977 39.868-9.749 17.108 0 30.723 7.405 44.327 8.348a26.272 26.272 0 0 0 4.132 1.921c29.43 10.172 28.464 23.606 45.257 28.825 17.868 5.545 40.219.628 56.239.459 12.951-.145 23.643-.435 33.043.894 10.74 1.51 20.768 7.382 30.759 12.516 4.627 2.417 8.143 4.724 11.248 4.253 19.004-2.851 21.082-14.969 38.129-34.661 6.222-7.188 12.081-15.705 20.224-23.522 11.332-10.788 33.731-44.072 76.222-67.872a193.155 193.155 0 0 1 7.188-3.817c19.33-9.665 50.839-21.384 94.827-21.42"/><path stroke="#B195FF" stroke-miterlimit="10" stroke-opacity=".5" stroke-width=".5" d="M11.414 122.317c14.872 4.519 28.609 9.315 40.992 13.036 23.197 6.983 34.747 9.182 49.703 17.735 12.432 7.092 17.989 13.905 29.286 18.569a137.886 137.886 0 0 0 22.809 6.741c14.281 3.624 20.116-1.498 34.529-6.27 15.476-5.11 28.995-4.832 39.011-9.919 16.334-.447 29.805 5.618 43.819 5.582a24.02 24.02 0 0 0 4.168 1.51c29.696 7.442 30.518 19.052 46.635 23.558 18.206 5.086 40.581.387 57 0 13.048-.302 23.945-.121 33.501 1.559 10.874 1.921 21.07 8.686 30.856 14.28 4.664 2.657 8.192 5.17 11.284 4.699 18.98-2.863 20.732-16.237 37.284-37.137 5.956-7.527 11.634-16.443 19.837-24.549 10.668-10.559 33.623-44.785 76.754-69.165 2.211-1.208 4.627-2.549 7.248-3.89 19.488-9.87 51.383-21.903 95.915-22.133"/><path stroke="#B195FF" stroke-miterlimit="10" stroke-opacity=".5" stroke-width=".5" d="M12.066 127.043c14.498 4.518 27.92 9.411 40.304 13.289 22.133 6.983 33.925 9.665 48.821 18.23 12.081 6.947 17.868 13.58 28.681 18.219a153.354 153.354 0 0 0 22.206 7.249c13.906 3.974 20.055-.29 34.19-4.615 14.945-4.591 27.594-4.603 38.129-10.088 15.573-.93 28.887 3.817 43.3 2.791a23.78 23.78 0 0 0 4.204 1.111c30.035 4.772 32.62 14.497 48.048 18.315 18.557 4.591 40.932-.169 57.774-.459 13.144-.218 24.247.181 33.948 2.223 11.067 2.332 21.348 9.991 30.965 16.044 4.676 2.947 8.227 5.617 11.308 5.146 18.968-2.875 20.394-17.505 36.426-39.614 5.714-7.877 11.235-17.143 19.451-25.564 10.052-10.317 33.538-45.497 77.321-70.469a207.433 207.433 0 0 1 7.333-3.975c19.645-10.04 51.95-22.398 97.002-22.833"/><path stroke="#B195FF" stroke-miterlimit="10" stroke-opacity=".5" stroke-width=".5" d="M12.707 131.77c14.014 4.506 27.244 9.507 39.627 13.603 21.034 6.995 33.115 10.16 47.927 18.738 11.779 6.814 17.76 13.289 28.101 17.868a173.97 173.97 0 0 0 21.578 7.587c13.543 4.313 20.007.93 33.828-2.972 14.425-4.047 26.241-4.398 37.247-10.257 14.8-1.389 27.956 2.03 42.792 0 1.388.37 2.808.608 4.241.713 30.372 2.126 34.686 9.882 49.449 13.059 18.907 4.084 41.282-.724 58.547-.894 13.229-.145 24.549.472 34.395 2.876 11.236 2.742 21.626 11.296 31.062 17.807 4.699 3.25 8.263 6.041 11.344 5.594 18.944-2.875 20.079-18.774 35.58-42.091 5.461-8.215 10.873-17.819 19.052-26.578 9.472-10.064 33.442-46.15 77.877-71.762a190.076 190.076 0 0 1 7.406-4.048c19.789-10.208 52.458-22.905 98.089-23.497"/><path stroke="#B195FF" stroke-miterlimit="10" stroke-opacity=".5" stroke-width=".5" d="M13.36 136.489c13.579 4.518 26.578 9.592 38.938 13.905 20.03 6.971 32.293 10.656 47.033 19.234 11.465 6.668 17.651 12.938 27.509 17.517a196.18 196.18 0 0 0 20.973 8.01c13.181 4.651 19.935 2.138 33.526-1.329 13.894-3.528 24.888-4.204 36.365-10.414 14.039-1.86 27.039.23 42.285-2.766 1.418.189 2.847.29 4.277.302 30.687 1.365 36.776 5.255 50.851 7.816 19.258 3.504 41.645-1.522 59.308-1.353 13.289.133 24.863.773 34.855 3.54 11.404 3.153 21.879 12.613 31.157 19.571 4.724 3.552 8.312 6.5 11.381 6.041 18.932-2.875 19.777-20.019 34.722-44.543 5.219-8.566 10.475-18.509 18.678-27.63 8.819-9.81 33.357-46.911 78.372-73.055a186.335 186.335 0 0 1 7.479-4.12c19.934-10.413 53.001-23.425 99.176-24.246"/><path stroke="#B195FF" stroke-miterlimit="10" stroke-opacity=".5" stroke-width=".5" d="M14.012 141.204c13.145 4.506 25.89 9.665 38.25 14.183 18.992 6.935 31.472 11.139 46.139 19.741 11.139 6.523 17.53 12.612 26.929 17.167 8.699 4.228 15.706 6.645 20.357 8.457 12.831 4.965 19.874 3.334 33.188.326a287.351 287.351 0 0 0 35.483-10.595c12.71-4.47 25.975-8.916 41.765-5.546 1.434.2 2.89.167 4.314-.096 31.097-3.069 38.865.604 52.264 2.573 19.62 2.875 41.995-2.078 60.081-1.812 13.422.193 25.165 1.075 35.302 4.192 11.561 3.624 22.133 13.942 31.254 21.347 4.736 3.854 8.361 6.947 11.429 6.476 18.896-2.887 19.475-21.287 33.828-47.02 4.978-8.916 10.112-19.173 18.279-28.644 8.167-9.472 33.309-47.552 78.916-74.372a275.244 275.244 0 0 1 7.551-4.192c20.091-10.583 53.533-23.92 100.276-24.948"/><path stroke="#B195FF" stroke-miterlimit="10" stroke-opacity=".5" stroke-width=".5" d="M14.664 145.924c12.71 4.506 25.214 9.665 37.573 14.498 17.941 6.898 30.65 11.634 45.233 20.248 10.873 6.378 17.421 12.286 26.338 16.817 8.324 4.24 15.089 6.886 19.753 8.855 12.492 5.279 19.801 4.518 32.849 1.969 12.818-2.501 21.324-5.69 34.601-10.752 11.961-4.567 24.695-5.449 41.258-8.336 1.523-.266 2.984-.242 4.35-.483 31.484-5.654 40.944-4.084 53.665-2.682 19.971 2.186 42.358-2.622 60.842-2.272 13.519.266 25.48 1.378 35.761 4.833 11.731 3.987 22.375 15.246 31.352 23.111 4.748 4.156 8.457 7.394 11.465 6.923 18.871-2.888 19.197-22.556 33.006-49.533 4.748-9.266 9.774-19.813 17.893-29.671 7.647-9.279 33.224-48.265 79.459-75.665a241.586 241.586 0 0 1 7.624-4.276c20.236-10.753 54.076-24.416 101.351-25.649"/><path stroke="#B195FF" stroke-miterlimit="10" stroke-opacity=".5" stroke-width=".5" d="M15.377 150.635c12.275 4.507 24.55 9.762 36.884 14.751 16.914 6.85 29.83 12.082 44.34 20.756 10.498 6.234 17.312 11.96 25.757 16.478 7.937 4.229 14.413 7.092 19.137 9.267 12.166 5.593 19.741 5.702 32.523 3.624 12.275-2.005 20.043-5.255 33.707-10.873 11.248-4.663 23.752-6.85 40.739-11.115 1.51-.374 3.008-.531 4.397-.882 31.895-8.227 43.058-6.56 55.067-7.937a471.06 471.06 0 0 1 61.616-2.706c13.615.326 25.781 1.667 36.244 5.509 11.9 4.397 22.604 16.563 31.412 24.875 4.748 4.458 8.457 7.829 11.501 7.37 18.859-2.9 18.92-23.824 32.161-51.949 4.518-9.605 9.46-20.442 17.506-30.699 7.067-9 33.115-48.989 79.991-76.957 2.307-1.365 4.832-2.827 7.696-4.349 20.393-10.945 54.608-24.935 102.438-26.349"/><path stroke="#B195FF" stroke-miterlimit="10" stroke-opacity=".5" stroke-width=".5" d="M15.969 154.031c11.84 4.506 23.885 9.798 36.244 15.041 15.9 6.778 28.995 12.613 43.493 21.251 10.185 6.041 17.204 11.646 25.178 16.128 7.551 4.241 13.748 7.322 18.508 9.665 11.877 5.896 19.681 6.874 32.197 5.268 11.744-1.51 18.811-4.76 32.826-11.091 10.559-4.772 22.882-8.215 40.231-13.893 1.51-.495 3.008-.822 4.434-1.293 32.33-10.776 45.148-11.791 56.468-13.168a436.804 436.804 0 0 1 62.389-3.178c13.7.399 26.083 1.97 36.643 6.174 12.081 4.832 22.833 17.868 31.556 26.578 4.736 4.76 8.457 8.288 11.538 7.817 18.835-2.912 18.666-25.093 31.303-54.438 4.289-9.967 9.182-21.069 17.119-31.725 6.512-8.735 33.019-49.714 80.535-78.262 2.32-1.389 4.917-2.875 7.768-4.421 20.539-11.127 55.152-25.443 103.526-27.062"/><path stroke="#B195FF" stroke-miterlimit="10" stroke-opacity=".5" stroke-width=".5" d="M16.585 155.858c11.405 4.507 23.245 9.798 35.507 15.319 14.885 6.705 28.222 13.072 42.551 21.746 9.871 5.932 17.083 11.333 24.586 15.778a484.273 484.273 0 0 0 17.904 10.112c11.586 6.198 19.621 8.034 31.859 6.911 11.212-1.027 17.627-4.192 31.943-11.26 9.883-4.832 22.061-9.568 39.712-16.672 1.522-.604 3.032-1.099 4.47-1.691 32.813-13.35 47.19-17.083 57.882-18.424 20.816-2.597 43.421-4.265 63.15-3.624 13.797.447 26.385 2.259 37.102 6.826 12.238 5.219 23.039 19.172 31.653 28.402 4.736 5.074 8.542 8.723 11.574 8.252 18.823-2.9 18.412-26.361 30.457-56.902 4.06-10.318 8.928-21.674 16.721-32.752 5.968-8.457 32.922-50.427 81.078-79.555a239.777 239.777 0 0 1 7.841-4.506c20.696-11.296 55.683-25.938 104.613-27.787"/><path stroke="#B195FF" stroke-miterlimit="10" stroke-opacity=".5" stroke-width=".5" d="M17.262 157.595c10.982 4.494 22.628 9.786 34.83 15.609a450.152 450.152 0 0 1 41.657 22.254c9.557 5.799 16.914 11.03 24.006 15.427 6.778 4.289 12.432 7.744 17.288 10.535 11.309 6.512 19.56 9.194 31.521 8.565 10.692-.555 16.491-3.563 31.061-11.428 9.255-4.99 21.3-10.934 39.204-19.451 1.523-.725 3.045-1.389 4.507-2.09 33.284-15.923 49.111-23.015 59.283-23.679 21.251-1.353 43.771-4.832 63.923-4.071 13.894.495 26.688 2.573 37.549 7.49 12.408 5.63 23.245 20.538 31.75 30.203 4.712 5.376 8.578 9.169 11.61 8.71 18.799-2.923 18.122-27.653 29.6-59.391a154.82 154.82 0 0 1 16.334-33.803c5.436-8.203 32.825-51.151 81.61-80.859a217.798 217.798 0 0 1 7.913-4.579c20.841-11.477 56.227-26.445 105.7-28.463"/><path stroke="#B195FF" stroke-miterlimit="10" stroke-opacity=".5" stroke-width=".5" d="M17.914 159.263a574.415 574.415 0 0 1 74.905 38.66c38.588 23.667 49.135 36.449 71.28 36.243 16.129-.157 19.935-7.019 68.864-33.827 36.8-20.163 55.2-30.203 65.24-31.411 36.075-4.216 75.509-9.435 102.692 3.624 19.596 9.412 35.036 42.381 43.493 41.076 25.069-3.89 15.174-48.928 44.701-96.649 4.918-7.949 32.729-51.864 82.154-82.152C590.428 23.072 628.944 3.525 686.016 1"/></svg>