<svg xmlns="http://www.w3.org/2000/svg" width="336" height="268" fill="none"><g filter="url(#a)"><path fill="url(#b)" d="M35.121 174.693a4.583 4.583 0 0 1-.488-.044l6.349.235c.16.023.322.038.487.044l-6.348-.235Z"/><path fill="url(#c)" d="M30.497 185.733c2.765.078 5.832-.889 9.2-2.903l6.348.236c-3.445 2.059-6.575 3.025-9.39 2.896l-6.158-.229a11.833 11.833 0 0 1-.19-.007l.19.007Z"/><path fill="url(#d)" d="M39.697 182.831c2.614-1.564 4.908-3.411 6.882-5.541l6.348.235c-1.973 2.131-4.267 3.978-6.882 5.541l-6.348-.235Z"/><path fill="url(#e)" d="m61.51 144.097-9.294 5.557c-.18-1.037-.484-1.887-.913-2.551-.429-.665-.975-1.125-1.64-1.382a3.427 3.427 0 0 0-1.108-.22 4.986 4.986 0 0 0-1.213.116c-.873.165-1.83.559-2.87 1.181-1.847 1.104-3.413 2.583-4.698 4.435-1.273 1.846-2.219 3.979-2.838 6.398-.606 2.412-.838 5.032-.696 7.858.147 2.942.63 5.193 1.45 6.753.83 1.538 1.927 2.419 3.291 2.643.16.024.322.039.488.045 1.26.047 2.69-.408 4.29-1.364a14.646 14.646 0 0 0 2.747-2.11 14.52 14.52 0 0 0 2.145-2.642 14.578 14.578 0 0 0 1.473-3.086c.378-1.103.621-2.236.729-3.399l9.297-5.493c-.062 2.058-.455 4.283-1.177 6.675-.71 2.385-1.732 4.786-3.065 7.202-1.335 2.403-2.995 4.673-4.98 6.811-1.974 2.13-4.269 3.977-6.883 5.54-3.445 2.06-6.575 3.026-9.39 2.896-2.803-.151-5.076-1.45-6.82-3.898-1.744-2.447-2.738-6.101-2.982-10.96-.245-4.874.347-9.483 1.775-13.828 1.428-4.344 3.461-8.211 6.1-11.601 2.637-3.389 5.648-6.095 9.03-8.118 2.305-1.378 4.456-2.277 6.451-2.698 1.025-.224 1.993-.319 2.903-.285a8.3 8.3 0 0 1 2.428.44c1.558.524 2.853 1.539 3.886 3.045 1.033 1.507 1.728 3.52 2.084 6.04Z"/><path fill="url(#f)" d="m68.194 169.197-2.225-44.298 15.725-9.402c2.85-1.704 5.34-2.577 7.47-2.617 2.141-.063 3.831.679 5.07 2.226 1.239 1.532 1.934 3.812 2.086 6.84a22.18 22.18 0 0 1-1.335 8.864c-1.045 2.823-2.599 5.43-4.662 7.822-2.063 2.377-4.544 4.433-7.444 6.167l-9.944 5.946-.424-8.436 8.234-4.923c1.388-.83 2.536-1.732 3.445-2.706.92-.996 1.6-2.071 2.04-3.225.438-1.168.624-2.438.555-3.807-.069-1.37-.367-2.358-.896-2.963-.422-.494-.982-.754-1.681-.78a3.574 3.574 0 0 0-.558.025c-.965.102-2.136.564-3.511 1.386l-4.536 2.712 1.792 35.668-9.2 5.501Zm20.415-33.06 10.497 14.577-10.038 6.002-10.31-14.689 9.851-5.89Z"/><path fill="url(#g)" d="m100.626 104.177 11.394-6.813 11.044 21.647.446-.266 8.288-33.206 11.394-6.813 2.226 44.298-8.96 5.357-1.367-27.211-.316.189-7.792 32.398-5.725 3.423-10.506-21.613-.316.189 1.375 27.362-8.96 5.357-2.225-44.298Z"/><path fill="url(#h)" d="M29.891 165.253c-.142-2.827.09-5.446.697-7.858l6.348.235c-.606 2.412-.838 5.032-.697 7.858l-6.348-.235Z"/><path fill="url(#i)" d="M31.34 172.007c-.818-1.56-1.301-3.811-1.449-6.752l6.349.235c.147 2.942.63 5.193 1.45 6.753l-6.35-.236Z"/><path fill="url(#j)" d="M30.587 157.396c.62-2.42 1.565-4.552 2.838-6.398l6.348.236c-1.273 1.845-2.219 3.978-2.837 6.397l-6.349-.235Z"/><path fill="url(#k)" d="M34.633 174.651c-1.364-.224-2.462-1.105-3.292-2.643l6.349.235c.83 1.538 1.927 2.42 3.291 2.644l-6.348-.236Z"/><path fill="url(#l)" d="M33.425 151c1.285-1.853 2.851-3.331 4.698-4.435l6.348.235c-1.846 1.104-3.412 2.583-4.698 4.435L33.425 151Z"/><path fill="url(#m)" d="M38.123 146.563c1.041-.623 1.998-1.017 2.87-1.182l6.349.236c-.873.165-1.83.559-2.87 1.181l-6.349-.235Z"/><path fill="url(#n)" fill-rule="evenodd" d="M43.758 137.557c-3.383 2.023-6.393 4.729-9.03 8.118l-6.349-.236c2.638-3.389 5.648-6.095 9.031-8.118 2.305-1.378 4.455-2.277 6.45-2.698l6.349.236c-1.996.421-4.146 1.32-6.45 2.698Zm-15.38 7.883c-2.638 3.389-4.671 7.256-6.1 11.601l6.349.235c1.428-4.344 3.461-8.211 6.099-11.6l-6.348-.236Zm-7.874 25.43c-.245-4.874.347-9.483 1.775-13.828l6.349.236c-1.428 4.344-2.02 8.953-1.775 13.827l-6.349-.235Zm2.982 10.961c-1.744-2.448-2.738-6.101-2.982-10.961l6.348.236c.244 4.859 1.238 8.513 2.982 10.96l-6.348-.235Zm6.82 3.899c-2.803-.151-5.076-1.45-6.82-3.898l6.348.236c1.744 2.447 4.018 3.747 6.82 3.898l-6.348-.236Z" clip-rule="evenodd"/><path fill="url(#o)" d="M40.993 145.382c.43-.091.835-.13 1.213-.116l6.346.236a4.964 4.964 0 0 0-1.21.115l-6.35-.235Z"/><path fill="url(#p)" d="M42.206 145.268a3.4 3.4 0 0 1 1.109.22l6.348.235a3.427 3.427 0 0 0-1.109-.22l-6.348-.235Z"/><path fill="url(#q)" d="M43.316 145.485c.663.256 1.21.717 1.639 1.381l6.348.236c-.429-.665-.975-1.125-1.64-1.382l-6.347-.235Z"/><path fill="url(#r)" d="M46.764 134.338c-.91-.034-1.878.061-2.903.285l6.348.235c1.026-.223 1.993-.319 2.903-.285l-6.348-.235Z"/><path fill="url(#s)" d="M44.954 146.869c.429.664.733 1.515.913 2.551l6.348.235c-.18-1.036-.484-1.886-.913-2.55l-6.348-.236Z"/><path fill="url(#t)" fill-rule="evenodd" d="M45.776 165.493c.378-1.102.621-2.235.729-3.399l6.348.236a14.555 14.555 0 0 1-.729 3.399h.001a14.601 14.601 0 0 1-1.472 3.086h-.001a14.517 14.517 0 0 1-2.145 2.641l-6.349-.236a14.49 14.49 0 0 0 2.146-2.642 14.545 14.545 0 0 0 1.472-3.085Zm-3.618 5.728a14.645 14.645 0 0 1-2.746 2.11h-.001c-1.599.955-3.028 1.41-4.288 1.364l6.346.235c1.26.047 2.69-.407 4.29-1.363a14.65 14.65 0 0 0 2.747-2.11l-6.348-.236Z" clip-rule="evenodd"/><path fill="url(#u)" d="M49.19 134.777a8.334 8.334 0 0 0-2.421-.44l6.343.235c.86.032 1.67.179 2.427.441l-6.348-.236Z"/><path fill="url(#v)" d="M46.578 177.29c1.986-2.138 3.646-4.408 4.98-6.81l6.349.236c-1.335 2.402-2.995 4.672-4.98 6.81l-6.35-.236Z"/><path fill="url(#w)" d="m45.868 149.419 9.293-5.557 6.349.235-9.294 5.557-6.348-.235Z"/><path fill="url(#x)" d="M53.078 137.822c-1.033-1.506-2.329-2.521-3.887-3.046l6.349.236c1.558.524 2.853 1.539 3.886 3.045l-6.348-.235Z"/><path fill="url(#y)" d="m55.801 156.6-9.297 5.492 6.348.236 9.298-5.492-6.349-.236Z"/><path fill="url(#z)" d="M51.56 170.478c1.333-2.417 2.355-4.818 3.065-7.203l6.348.236c-.71 2.385-1.731 4.786-3.065 7.202l-6.348-.235Z"/><path fill="url(#A)" d="M55.162 143.859c-.356-2.52-1.05-4.533-2.084-6.039l6.349.235c1.033 1.507 1.727 3.52 2.084 6.04l-6.349-.236Z"/><path fill="url(#B)" d="M54.624 163.277c.722-2.393 1.115-4.618 1.177-6.675l6.349.235c-.063 2.058-.455 4.283-1.178 6.675l-6.348-.235Z"/><path fill="url(#C)" d="m61.846 168.961 9.2-5.502 6.35.236-9.202 5.501-6.348-.235Z"/><path fill="url(#D)" d="m59.62 124.665 2.226 44.297 6.348.236L65.97 124.9l-6.349-.235Z"/><path fill="url(#E)" d="m66.162 142.074.424 8.436 6.349.235-.424-8.435-6.349-.236Z"/><path fill="url(#F)" d="m71.046 163.46-1.791-35.668 6.348.236 1.792 35.667-6.349-.235Z"/><path fill="url(#G)" d="m69.255 127.792 4.535-2.712 6.349.236-4.536 2.712-6.348-.236Z"/><path fill="url(#H)" d="m66.586 150.509 9.945-5.946 6.348.235-9.944 5.946-6.349-.235Z"/><path fill="url(#I)" d="M73.79 125.081c1.375-.822 2.546-1.284 3.51-1.386l6.349.235c-.965.102-2.135.564-3.51 1.387l-6.35-.236Z"/><path fill="url(#J)" d="M77.301 123.692c.195-.023.381-.032.559-.025l6.347.235a3.68 3.68 0 0 0-.557.025l-6.349-.235Z"/><path fill="url(#K)" d="m82.261 135.9-9.852 5.89 6.349.236 9.851-5.891-6.348-.235Z"/><path fill="url(#L)" d="m82.72 156.481 10.037-6.001 6.349.235-10.038 6.002-6.348-.236Z"/><path fill="url(#M)" d="m72.41 141.791 10.31 14.689 6.35.235-10.312-14.688-6.348-.236Z"/><path fill="url(#N)" d="M77.86 123.668c.699.026 1.26.286 1.681.78l6.349.236c-.422-.494-.983-.754-1.682-.781l-6.348-.235Z"/><path fill="url(#O)" fill-rule="evenodd" d="M75.344 115.262c2.85-1.704 5.34-2.576 7.47-2.617l6.348.236c-2.13.04-4.62.912-7.47 2.617L65.967 124.9l-6.348-.236 15.725-9.402Z" clip-rule="evenodd"/><path fill="url(#P)" fill-rule="evenodd" d="M79.54 124.45c.528.605.826 1.593.895 2.963l6.348.235c-.068-1.37-.367-2.357-.895-2.962l-6.349-.236Zm-1.7 9.996c.92-.996 1.6-2.071 2.04-3.225l6.348.235c-.44 1.154-1.12 2.229-2.04 3.225l-6.349-.235Zm0 .001c-.909.973-2.057 1.875-3.444 2.705l-8.235 4.923 6.348.235 8.234-4.922c1.388-.83 2.536-1.732 3.445-2.706l-6.349-.235Zm2.04-3.227c.44-1.168.624-2.437.555-3.807l6.349.235c.069 1.37-.117 2.639-.556 3.808l-6.348-.236Z" clip-rule="evenodd"/><path fill="url(#Q)" d="M76.53 144.561c2.9-1.733 5.382-3.789 7.445-6.166l6.348.235c-2.063 2.377-4.544 4.433-7.444 6.167l-6.349-.236Z"/><path fill="url(#R)" d="M82.815 112.642c.37-.011.726.003 1.069.04l5.28.196c2.14-.063 3.831.679 5.07 2.226l-6.348-.236c-1.025-1.279-2.36-2.008-4.002-2.186l-1.069-.04Z"/><path fill="url(#S)" d="M83.975 138.397c2.063-2.392 3.617-5 4.662-7.823l6.348.236c-1.045 2.823-2.599 5.43-4.661 7.822l-6.349-.235Z"/><path fill="url(#T)" d="M92.758 150.478 82.26 135.901l6.348.235 10.497 14.578-6.348-.236Z"/><path fill="url(#U)" d="M89.972 121.713c-.153-3.028-.848-5.309-2.086-6.841l6.348.236c1.239 1.532 1.934 3.812 2.086 6.84l-6.348-.235Z"/><path fill="url(#V)" d="M88.636 130.573a22.178 22.178 0 0 0 1.336-8.864l6.348.236a22.18 22.18 0 0 1-1.335 8.864l-6.349-.236Z"/><path fill="url(#W)" d="m96.503 148.24 8.959-5.357 6.349.235-8.96 5.357-6.348-.235Z"/><path fill="url(#X)" d="m94.278 103.943 2.225 44.298 6.349.236-2.226-44.298-6.348-.236Z"/><path fill="url(#Y)" d="m105.672 97.129-11.394 6.812 6.348.236 11.394-6.813-6.348-.236Z"/><path fill="url(#Z)" d="m104.088 115.522.316-.189 6.348.235-.316.189-6.348-.235Z"/><path fill="url(#aa)" d="m105.462 142.882-1.375-27.362 6.349.236 1.374 27.361-6.348-.235Z"/><path fill="url(#ab)" d="m114.91 136.945 5.725-3.423 6.348.235-5.725 3.423-6.348-.235Z"/><path fill="url(#ac)" d="m104.404 115.333 10.506 21.612 6.348.235-10.506-21.612-6.348-.235Z"/><path fill="url(#ad)" d="m116.715 118.776-11.043-21.647 6.348.235 11.044 21.647-6.349-.235Z"/><path fill="url(#ae)" d="m117.161 118.508-.446.266 6.348.236.447-.267-6.349-.235Z"/><path fill="url(#af)" d="m125.45 85.305-8.288 33.205 6.348.236 8.288-33.206-6.348-.235Z"/><path fill="url(#ag)" d="m120.634 133.521 7.792-32.398 6.348.236-7.792 32.397-6.348-.235Z"/><path fill="url(#ah)" d="m128.427 101.122.316-.189 6.348.236-.316.189-6.348-.236Z"/><path fill="url(#ai)" d="m130.11 128.144 8.959-5.357 6.348.235-8.959 5.357-6.348-.235Z"/><path fill="url(#aj)" d="m128.742 100.933 1.367 27.211 6.349.235-1.367-27.21-6.349-.236Z"/><path fill="url(#ak)" d="m136.844 78.491-11.394 6.813 6.348.236 11.394-6.813-6.348-.236Z"/><path fill="url(#al)" d="m139.069 122.789-2.225-44.298 6.348.236 2.226 44.298-6.349-.236Z"/><path fill="url(#am)" d="m61.535 144.163-9.294 5.557c-.18-1.037-.484-1.887-.913-2.551-.43-.665-.976-1.125-1.64-1.382-.663-.256-1.437-.291-2.321-.104-.873.165-1.83.559-2.87 1.181-1.847 1.104-3.413 2.583-4.698 4.435-1.273 1.846-2.22 3.979-2.838 6.398-.606 2.412-.838 5.032-.697 7.858.148 2.942.631 5.193 1.45 6.753.83 1.538 1.928 2.419 3.292 2.643 1.376.203 2.969-.237 4.778-1.319a14.646 14.646 0 0 0 2.747-2.11 14.515 14.515 0 0 0 2.145-2.642 14.568 14.568 0 0 0 1.473-3.086 14.56 14.56 0 0 0 .729-3.399l9.297-5.492c-.063 2.057-.455 4.282-1.177 6.674-.71 2.385-1.732 4.786-3.066 7.203-1.334 2.402-2.994 4.672-4.98 6.81-1.974 2.13-4.268 3.977-6.882 5.541-3.445 2.059-6.575 3.025-9.39 2.895-2.803-.151-5.076-1.45-6.82-3.898-1.744-2.447-2.738-6.101-2.982-10.96-.245-4.874.346-9.483 1.775-13.828 1.428-4.344 3.461-8.211 6.1-11.601 2.637-3.389 5.647-6.095 9.03-8.118 2.305-1.378 4.455-2.277 6.451-2.698 1.995-.435 3.772-.384 5.33.155 1.559.524 2.854 1.539 3.887 3.045 1.033 1.507 1.728 3.52 2.084 6.04Z"/><path fill="url(#an)" d="m68.22 169.263-2.226-44.298 15.725-9.402c2.85-1.704 5.34-2.577 7.47-2.617 2.14-.063 3.831.679 5.07 2.226 1.239 1.532 1.934 3.812 2.086 6.84a22.18 22.18 0 0 1-1.335 8.864c-1.045 2.823-2.6 5.43-4.662 7.822-2.063 2.377-4.544 4.433-7.444 6.167l-9.945 5.946-.423-8.436 8.234-4.923c1.388-.83 2.536-1.732 3.444-2.706.92-.996 1.6-2.071 2.04-3.225.44-1.168.624-2.438.556-3.807-.07-1.37-.368-2.358-.896-2.963-.529-.619-1.275-.871-2.24-.755-.965.102-2.135.564-3.51 1.386l-4.536 2.712 1.792 35.668-9.2 5.501Zm20.414-33.06L99.13 150.78l-10.038 6.002-10.31-14.689 9.85-5.89Z"/><path fill="url(#ao)" d="m100.651 104.243 11.394-6.813 11.044 21.647.446-.266 8.288-33.206 11.394-6.813 2.225 44.298-8.959 5.357-1.367-27.211-.316.189-7.792 32.398-5.725 3.423-10.506-21.613-.316.189 1.375 27.362-8.96 5.357-2.225-44.298Z"/></g><g filter="url(#ap)"><path fill="#E0B9FF" d="m296.596 130.21-58.179-33.59c-6.207-3.584-12.846-8.1-17.445-15.569-8.189-13.3-5.018-23.42 1.423-25.763 2.532-.921 5.569-.64 8.621 1.12 0-8.989 2.652-13.442 6.421-14.814 7.003-2.548 17.859 5.547 22.71 14.959 18.682-17.496 48.561 21.605 42.826 41.4 16.628 12.954 15.56 33.038 5.692 36.009-3.369 1.014-7.835-1.308-12.069-3.752Z"/><path fill="#E0B9FF" d="M207.972 80.947c-5.302-11.282-2.156-19.626 3.616-21.726l10.805-3.933c-5.402 1.967-8.503 9.404-4.529 19.6 1.295 3.323-.032 7.306-3.384 8.526-2.512.914-5.372-.048-6.508-2.467ZM214.335 90.48c3.497 3.8 7.541 6.64 11.506 9.03a4.306 4.306 0 0 0 3.699.34c3.516-1.279 3.948-6.123.985-8.408-2.449-1.888-4.801-4.061-6.898-6.648-1.684-2.076-4.458-3.087-6.97-2.172-3.352 1.22-4.737 5.233-2.322 7.858Z"/><path fill="#E0B9FF" d="M211.587 59.222c2.532-.921 5.57-.64 8.621 1.121l10.807-3.933c-3.051-1.762-6.089-2.042-8.621-1.121l-10.807 3.933Z"/><path fill="#E0B9FF" d="M220.209 60.342c0-8.99 2.653-13.443 6.421-14.815l10.806-3.933c-3.768 1.372-6.42 5.826-6.42 14.814l-10.807 3.934ZM284.01 133.115l-48.22-27.84c-3.24-1.871-2.82-6.674.696-7.954a4.405 4.405 0 0 1 3.709.324l48.22 27.84c3.24 1.871 2.82 6.674-.696 7.954a4.406 4.406 0 0 1-3.709-.324ZM297.858 137.895c-1.062.32-2.233.308-3.472.066-3.671-.72-3.236-5.769.28-7.049a4.517 4.517 0 0 1 3.718.309c3.675 2.018 7.383 3.614 10.281 2.741l-10.807 3.933Z"/><path fill="#E0B9FF" d="M226.63 45.528c7.003-2.549 17.86 5.546 22.711 14.958l10.806-3.933c-4.851-9.412-15.707-17.507-22.71-14.959l-10.807 3.934Z"/><path fill="#E0B9FF" d="M292.165 101.886c4.668-16.11-14.253-45.007-31.529-45.777-.164.143-.327.291-.49.443l-10.806 3.933c3.478-3.257 7.344-4.552 11.296-4.376 18.709-16.375 48.021 22.22 42.336 41.843l-10.807 3.934ZM298.747 137.572a8.106 8.106 0 0 1-.889.323l.889-.323c9.028-3.881 9.534-23.131-6.581-35.685l10.807-3.934c16.628 12.955 15.56 33.038 5.692 36.009l-9.918 3.61Z"/><path fill="url(#aq)" d="m281.077 131.423-46.525-26.861c-10.795-6.233-24.406-14.466-28.378-28.35-3.83-13.389 5.042-21.061 14.035-15.87 0-25.693 21.67-14.332 29.131.144 18.683-17.495 48.561 21.605 42.826 41.401 14.511 11.304 15.545 28.038 9.016 34.091-4.483 4.156-12.743-.305-20.105-4.555Z"/></g><g filter="url(#ar)"><path fill="url(#as)" fill-rule="evenodd" d="M239.976 49.014c-.652-.705-1.481-1.203-3.136-2.198-1.656-.995-2.483-1.492-3.137-1.572a2.099 2.099 0 0 0-.618.012c-.577.102-1.033.467-1.304 1.061-.166.36-.23.858-.256 1.622-.012.558-.147 1.029-.392 1.368a1.348 1.348 0 0 1-1.012.572c-.425.02-.903-.121-1.39-.41-.487-.29-.966-.719-1.394-1.247-.596-.724-1.028-1.185-1.454-1.507-.934-.704-1.878-.979-2.628-.764-.56.16-.975.743-1.802 1.906-.829 1.162-1.241 1.743-1.335 2.5-.123 1.008.131 2.255.706 3.466.261.552.629 1.104 1.199 1.862.841 1.116 1.38 2.482 1.38 3.63 0 1.147-.539 1.864-1.379 1.969a6.125 6.125 0 0 0-.272.04c-.42.075-.712.184-.93.38-.284.258-.492.622-.613 1.072-.121.45-.151.976-.091 1.549.094.866.506 1.945 1.335 4.103.829 2.159 1.242 3.236 1.802 4.072.748 1.114 1.693 1.974 2.628 2.394.426.19.858.248 1.454.24.428-.014.908.134 1.395.43.487.295.966.729 1.391 1.26.857 1.091 1.365 2.456 1.402 3.626.026.798.09 1.37.256 1.93a8.734 8.734 0 0 0 1.922 3.382c.652.705 1.481 1.203 3.137 2.197 1.655.995 2.484 1.493 3.136 1.572.218.027.425.023.618-.011.577-.102 1.033-.468 1.304-1.062.166-.359.23-.855.256-1.621.035-1.127.545-1.882 1.404-1.94.425-.02.903.12 1.39.41.487.29-.239 3.43.189 3.958.596.724 2.641.357 3.169.255 1.321-.255 1.585-.372 2.118-.695.876-.53.975-.743 1.802-1.906.829-1.162 1.241-1.744 1.335-2.5.06-.5.029-1.064-.092-1.659a7.903 7.903 0 0 0-.614-1.807c-.261-.552-.629-1.105-1.199-1.863-.841-1.116-1.38-2.481-1.38-3.629 0-1.148.539-1.865 1.379-1.97.096-.012.187-.025.272-.04.42-.074.712-.183.93-.38.284-.258.492-.622.613-1.071.121-.45.152-.976.091-1.55-.094-.866-.506-1.945-1.335-4.103-.829-2.158-1.241-3.235-1.802-4.072-.75-1.115-1.694-1.975-2.627-2.393-.427-.19-.859-.249-1.455-.24-.428.014-.908-.134-1.395-.43-.487-.295-.965-.729-1.391-1.261a7.145 7.145 0 0 1-1.01-1.787c-.246-.634-.38-1.267-.392-1.839-.026-.797-.09-1.37-.256-1.929a8.569 8.569 0 0 0-.771-1.8 8.491 8.491 0 0 0-1.151-1.582Zm-3.136 24.545c1.098.66 2.119.89 2.967.74 1.425-.251 2.363-1.571 2.363-3.708 0-3.41-2.388-7.606-5.33-9.375-1.099-.66-2.119-.889-2.968-.74-1.425.252-2.363 1.572-2.363 3.709 0 3.409 2.388 7.606 5.331 9.374Z" clip-rule="evenodd"/><path fill="url(#at)" d="M215.853 65.073c-.061-.572-.03-1.099.091-1.548l4.265-.752c-.121.45-.152.976-.091 1.548l-4.265.752Z"/><path fill="url(#au)" d="M217.188 69.178c-.829-2.158-1.242-3.237-1.335-4.104l4.265-.752c.094.867.506 1.946 1.335 4.104l-4.265.752Z"/><path fill="url(#av)" d="M215.944 63.525c.121-.45.329-.814.613-1.071l4.265-.752c-.284.257-.492.621-.613 1.07l-4.265.753Z"/><path fill="url(#aw)" d="m217.198 69.206-.01-.026 4.266-.752.009.026c.823 2.14 1.234 3.212 1.793 4.046l-4.265.752c-.559-.834-.971-1.905-1.793-4.046Z"/><path fill="url(#ax)" d="M216.557 62.452c.218-.197.509-.306.93-.38l4.26-.751c-.417.074-.708.183-.925.38l-4.265.751Z"/><path fill="url(#ay)" d="M217.487 62.076c.085-.015.176-.029.272-.041l4.265-.752a6.276 6.276 0 0 0-.272.041l-4.265.752Z"/><path fill="url(#az)" d="M216.558 54.572c-.574-1.211-.828-2.458-.705-3.466l4.265-.752c-.123 1.008.131 2.255.706 3.466l-4.266.752Z"/><path fill="url(#aA)" d="M221.617 75.642c-.934-.42-1.879-1.28-2.627-2.393l4.265-.752c.748 1.113 1.693 1.973 2.628 2.393l-4.266.752Z"/><path fill="url(#aB)" d="M217.758 56.438c-.57-.757-.938-1.31-1.199-1.862l4.265-.752c.261.552.629 1.105 1.199 1.863l-4.265.752Z"/><path fill="url(#aC)" d="M217.92 62.001c.747-.172 1.218-.868 1.218-1.94l4.265-.753c0 1.148-.54 1.865-1.379 1.97L217.92 62a1.553 1.553 0 0 1-.161.029l.161-.029Z"/><path fill="url(#aD)" d="M215.853 51.105c.093-.756.506-1.337 1.335-2.5l4.265-.752c-.829 1.163-1.241 1.744-1.335 2.5l-4.265.752Z"/><path fill="url(#aE)" d="M219.139 60.065c0-1.148-.54-2.513-1.381-3.63l4.265-.752c.841 1.117 1.381 2.482 1.381 3.63l-4.265.752Z"/><path fill="url(#aF)" d="M223.072 75.88c-.596.008-1.028-.05-1.454-.24l4.265-.752c.426.19.858.248 1.454.24l-4.265.752Z"/><path fill="url(#aG)" d="M217.188 48.605c.827-1.163 1.242-1.745 1.803-1.906l4.265-.752c-.561.16-.976.743-1.802 1.906l-4.266.752Z"/><path fill="url(#aH)" d="M224.467 76.313c-.487-.295-.967-.443-1.395-.429l4.265-.752c.428-.014.908.134 1.395.43l-4.265.751Z"/><path fill="url(#aI)" d="M225.858 77.574c-.426-.532-.904-.966-1.391-1.261l4.265-.752c.487.295.965.729 1.391 1.26l-4.265.753Z"/><path fill="url(#aJ)" d="M227.261 81.197c-.038-1.17-.545-2.535-1.402-3.626l4.265-.752c.857 1.091 1.365 2.456 1.402 3.626l-4.265.752Z"/><path fill="url(#aK)" d="M227.516 83.127c-.165-.558-.229-1.131-.255-1.929l4.265-.752c.026.798.09 1.37.255 1.93l-4.265.751Z"/><path fill="url(#aL)" d="M229.438 86.512a8.747 8.747 0 0 1-1.922-3.383l4.265-.752a8.747 8.747 0 0 0 1.922 3.383l-4.265.752Z"/><path fill="url(#aM)" d="M232.575 88.713c-1.656-.995-2.485-1.493-3.137-2.198l4.265-.752c.652.705 1.481 1.203 3.137 2.198l-4.265.752Z"/><path fill="url(#aN)" fill-rule="evenodd" d="M219.36 46.639c.678-.051 1.47.237 2.256.83l4.265-.753c-.934-.704-1.878-.979-2.628-.764l-3.893.687Zm-.372.065a1.85 1.85 0 0 1 .372-.065l-.372.065Zm4.083 2.272c-.596-.724-1.028-1.185-1.455-1.508l4.265-.752c.427.323.859.784 1.455 1.508l-4.265.752Zm0 0c.427.529.907.957 1.393 1.247l4.265-.752c-.486-.29-.966-.718-1.393-1.246l-4.265.752Zm2.784 1.657c-.425.02-.904-.12-1.39-.41l4.265-.752c.487.29.965.43 1.39.41l-4.265.752Z" clip-rule="evenodd"/><path fill="url(#aO)" d="M225.856 50.629c.046-.004.092-.01.136-.018l4.264-.752a1.498 1.498 0 0 1-.135.017l-4.265.753Z"/><path fill="url(#aP)" d="M225.992 50.612c.358-.063.657-.252.876-.554l4.265-.752a1.348 1.348 0 0 1-.876.554l-4.265.752Z"/><path fill="url(#aQ)" d="M226.867 50.058c.246-.34.381-.81.393-1.368l4.265-.752c-.012.558-.147 1.029-.393 1.368l-4.265.752Z"/><path fill="url(#aR)" d="M235.711 90.279c-.653-.08-1.481-.578-3.137-1.573l4.265-.752c1.656.995 2.485 1.493 3.137 1.573l-4.265.752Z"/><path fill="url(#aS)" d="M227.261 48.69c.026-.764.09-1.263.255-1.622l4.265-.752c-.165.36-.229.858-.255 1.622l-4.265.752Z"/><path fill="url(#aT)" d="M227.516 47.063c.271-.594.727-.96 1.304-1.061l4.264-.752c-.576.101-1.032.467-1.303 1.06l-4.265.753Z"/><path fill="url(#aU)" d="M236.33 90.268a2.1 2.1 0 0 1-.618.012l4.265-.752c.218.027.424.022.618-.012l-4.265.752Z"/><path fill="url(#aV)" d="M229.608 61.225c.848-.15 1.868.08 2.967.74l4.265-.753c-1.099-.66-2.119-.889-2.967-.74l-4.265.753Z"/><path fill="url(#aW)" fill-rule="evenodd" d="M227.245 64.934c0-2.137.938-3.457 2.363-3.708l4.265-.752c-1.425.252-2.363 1.571-2.363 3.708l-4.265.752Zm5.33 9.378c-2.942-1.768-5.33-5.965-5.33-9.374l4.265-.752c0 3.408 2.387 7.605 5.329 9.373h.002c1.098.66 2.119.89 2.967.74l-4.265.752c-.848.149-1.868-.08-2.966-.739h-.002Z" clip-rule="evenodd"/><path fill="url(#aX)" d="M228.819 46.008c.193-.034.4-.039.618-.012l4.265-.752a2.099 2.099 0 0 0-.618.012l-4.265.752Z"/><path fill="url(#aY)" fill-rule="evenodd" d="M239.293 85.639c-.859.058-1.368.813-1.404 1.94l4.265-.752c.031-.986.425-1.687 1.098-1.886l.306-.054c-.107.007-.21.025-.306.054l-3.959.698Zm-1.403 1.943c-.027.763-.09 1.259-.254 1.617h-.002c-.271.595-.727.96-1.304 1.062l4.265-.752c.575-.101 1.03-.465 1.302-1.057h.002c.166-.36.229-.856.256-1.622l-4.265.752Z" clip-rule="evenodd"/><path fill="url(#aZ)" d="M232.574 61.963c2.943 1.768 5.33 5.965 5.33 9.374l4.265-.752c0-3.409-2.387-7.606-5.33-9.374l-4.265.752Z"/><path fill="url(#ba)" d="M237.904 71.342c0 2.137-.937 3.457-2.362 3.708l4.264-.752c1.425-.25 2.363-1.57 2.363-3.708l-4.265.752Z"/><path fill="url(#bb)" d="M240.682 86.055c-.486-.29-.965-.43-1.39-.41l4.265-.753c.425-.02.904.121 1.39.41l-4.265.753Z"/><path fill="url(#bc)" d="M242.076 87.301c-.428-.528-.907-.956-1.394-1.246l4.265-.752c.487.29.966.718 1.394 1.246l-4.265.752Z"/><path fill="url(#bd)" d="M243.687 88.881c-.427-.322-.859-.783-1.455-1.507l4.265-.752c.596.724.59 1.262 1.017 1.584l-3.827.675Z"/><path fill="url(#be)" fill-rule="evenodd" d="M229.437 45.99c.654.08 1.481.578 3.137 1.573l.005-.001c1.652.992 2.48 1.49 3.132 2.194l4.265-.752c-.652-.705-1.481-1.203-3.137-2.197h-.005c-1.653-.992-2.479-1.488-3.132-1.569l-4.265.752Zm7.425 5.354a8.583 8.583 0 0 0-1.151-1.582l4.265-.752c.429.464.82 1 1.15 1.58h.001c.33.58.592 1.193.771 1.8.165.559.229 1.132.255 1.928l-4.265.753c-.026-.798-.09-1.371-.255-1.93a8.594 8.594 0 0 0-.77-1.797h-.001Zm1.418 5.568c-.246-.635-.381-1.267-.392-1.84l4.265-.751c.012.571.146 1.204.392 1.839l-4.265.752Zm1.01 1.788a7.145 7.145 0 0 1-1.01-1.787l4.265-.752c.245.635.593 1.25 1.01 1.787l-4.265.752Zm0 0c.425.532.904.966 1.391 1.261h.004c.485.294.964.44 1.391.427l4.265-.752c-.428.014-.908-.134-1.395-.43l-.003.001c-.486-.295-.964-.728-1.388-1.26l-4.265.753Z" clip-rule="evenodd"/><path fill="url(#bf)" d="M247.662 74.2a6.125 6.125 0 0 1-.272.04l4.265-.751c.096-.013.187-.026.272-.041l-4.265.752Z"/><path fill="url(#bg)" fill-rule="evenodd" d="M242.076 60.393c.596-.008 1.028.05 1.455.24l4.265-.752c-.427-.19-.859-.248-1.455-.24l-4.265.752Zm1.455.24c.933.419 1.878 1.279 2.627 2.394l4.265-.752c-.749-1.115-1.694-1.975-2.627-2.393l-4.265.752Zm4.134 13.568c.418-.074.708-.183.926-.38h.001c.284-.257.492-.62.613-1.07l4.265-.752c-.121.45-.329.814-.613 1.07l-.001.001c-.219.197-.51.306-.93.38l-4.261.751Zm.285-7.128.01.026 4.265-.752-.009-.026c-.823-2.14-1.234-3.212-1.793-4.046l-4.265.752c.559.834.97 1.905 1.792 4.046Zm.01.029c.829 2.158 1.241 3.237 1.335 4.104h.001c.06.57.028 1.094-.092 1.542l4.265-.752c.121-.45.152-.976.091-1.548h-.001c-.094-.866-.507-1.945-1.334-4.098l-4.265.752Z" clip-rule="evenodd"/><path fill="url(#bh)" fill-rule="evenodd" d="M235.711 49.763c-.652-.705-1.481-1.203-3.137-2.197-1.655-.995-2.482-1.492-3.137-1.573-.868-.105-1.559.28-1.922 1.073-.165.36-.229.858-.255 1.622-.012.558-.147 1.029-.393 1.368-.245.34-.593.537-1.011.572-.425.02-.903-.12-1.39-.41-.487-.29-.966-.719-1.394-1.246-.596-.725-1.028-1.186-1.455-1.508-.933-.704-1.877-.979-2.627-.764-.561.16-.975.743-1.802 1.906-.829 1.162-1.241 1.743-1.335 2.5-.123 1.008.131 2.255.705 3.466.261.552.63 1.105 1.199 1.862.842 1.117 1.381 2.482 1.381 3.63 0 1.148-.539 1.864-1.379 1.969-.571.074-.94.184-1.202.421-.284.258-.492.621-.613 1.071-.121.45-.152.976-.091 1.549.094.867.506 1.946 1.335 4.104.829 2.158 1.241 3.235 1.802 4.072.748 1.113 1.693 1.973 2.627 2.393.427.19.859.248 1.455.24.428-.014.908.134 1.395.43.487.295.965.729 1.391 1.26.857 1.092 1.365 2.456 1.402 3.626.026.798.09 1.371.255 1.93a8.747 8.747 0 0 0 1.922 3.382c.653.705 1.482 1.203 3.137 2.198 1.656.995 2.485 1.492 3.137 1.572.869.106 1.56-.28 1.922-1.073.166-.36.229-.856.256-1.622.035-1.127.545-1.882 1.403-1.94.426-.02.904.121 1.391.41.486.29.966.719 1.394 1.246.596.725 1.028 1.186 1.454 1.508.935.706 1.88.98 2.628.764.56-.16.975-.743 1.802-1.906.828-1.162 1.241-1.743 1.335-2.5.06-.5.029-1.064-.092-1.659a7.952 7.952 0 0 0-.614-1.807c-.261-.552-.629-1.105-1.199-1.862-.841-1.117-1.38-2.482-1.38-3.63 0-1.148.539-1.864 1.378-1.969.572-.074.94-.184 1.203-.421.284-.257.492-.621.613-1.071.121-.45.151-.976.091-1.549-.094-.867-.507-1.946-1.335-4.104-.829-2.158-1.242-3.235-1.802-4.072-.75-1.115-1.694-1.975-2.628-2.393-.426-.19-.858-.248-1.454-.24-.428.014-.908-.134-1.395-.43-.487-.295-.966-.729-1.391-1.26a7.114 7.114 0 0 1-1.01-1.787c-.246-.635-.381-1.268-.392-1.84-.027-.797-.09-1.37-.256-1.928a8.566 8.566 0 0 0-.771-1.8 8.583 8.583 0 0 0-1.151-1.583Zm-3.137 24.545c2.945 1.77 5.331.44 5.331-2.968 0-3.409-2.388-7.606-5.331-9.374-2.944-1.77-5.33-.44-5.33 2.968 0 3.409 2.387 7.606 5.33 9.374Z" clip-rule="evenodd"/></g><g filter="url(#bi)"><path fill="url(#bj)" fill-rule="evenodd" d="M272.426 106.613c-.444-.48-1.009-.82-2.138-1.498-1.128-.678-1.692-1.016-2.138-1.071a1.438 1.438 0 0 0-.421.008c-.393.069-.704.318-.888.723-.113.245-.157.585-.175 1.106-.008.38-.1.701-.267.932a.918.918 0 0 1-.689.39c-.29.013-.616-.083-.948-.28a3.706 3.706 0 0 1-.95-.849c-.406-.494-.7-.808-.991-1.028-.636-.48-1.28-.667-1.791-.52-.382.109-.664.506-1.228 1.299-.565.792-.846 1.188-.91 1.703-.084.687.089 1.537.481 2.363.178.376.429.752.817 1.269.574.761.941 1.691.941 2.473 0 .783-.367 1.271-.939 1.342a5.406 5.406 0 0 0-.186.028c-.287.051-.485.125-.634.259a1.5 1.5 0 0 0-.418.73 2.938 2.938 0 0 0-.062 1.056c.064.591.345 1.326.91 2.797.565 1.47.846 2.204 1.228 2.775.51.759 1.154 1.345 1.791 1.631.291.13.585.169.991.164.292-.01.619.091.951.292.332.202.658.497.948.86.584.743.93 1.673.955 2.471.018.543.062.934.175 1.314a5.965 5.965 0 0 0 1.309 2.306c.445.48 1.01.819 2.138 1.497 1.129.678 1.694 1.018 2.138 1.072.149.018.29.015.421-.008.393-.069.704-.319.889-.723.113-.245.156-.584.174-1.106.024-.768.372-1.282.957-1.322.29-.014.616.083.947.28.332.197.659.489.95.849.407.494.701.808.992 1.028.637.48 1.281.667 1.79.52.382-.109.665-.506 1.228-1.299.565-.792.846-1.188.91-1.703a3.6 3.6 0 0 0-.062-1.131 5.438 5.438 0 0 0-.419-1.232c-.177-.376-.429-.753-.817-1.269-.573-.761-.941-1.691-.941-2.473 0-.783.368-1.271.94-1.343.066-.008.128-.017.186-.028.286-.05.485-.124.634-.259.193-.175.335-.423.417-.729.083-.307.104-.666.062-1.056-.064-.591-.345-1.326-.91-2.797-.564-1.471-.846-2.205-1.228-2.775-.511-.76-1.154-1.346-1.79-1.631-.291-.13-.585-.169-.992-.164-.291.01-.618-.091-.95-.292a3.724 3.724 0 0 1-.948-.86 4.836 4.836 0 0 1-.689-1.218 3.749 3.749 0 0 1-.267-1.253c-.018-.543-.061-.934-.174-1.315a5.874 5.874 0 0 0-.525-1.226 5.867 5.867 0 0 0-.785-1.079Zm-2.138 16.728c.749.45 1.444.606 2.022.504.972-.171 1.611-1.07 1.611-2.527 0-2.323-1.627-5.183-3.633-6.389-.748-.449-1.444-.605-2.022-.504-.971.172-1.61 1.071-1.61 2.528 0 2.323 1.627 5.183 3.632 6.388Z" clip-rule="evenodd"/><path fill="url(#bk)" d="M255.986 117.561a2.893 2.893 0 0 1 .062-1.056l2.906-.512a2.93 2.93 0 0 0-.062 1.055l-2.906.513Z"/><path fill="url(#bl)" d="M256.896 120.357c-.565-1.471-.846-2.207-.91-2.797l2.907-.513c.064.591.345 1.326.91 2.797l-2.907.513Z"/><path fill="url(#bm)" d="M256.048 116.505c.082-.307.224-.555.418-.73l2.906-.513a1.491 1.491 0 0 0-.417.73l-2.907.513Z"/><path fill="url(#bn)" d="m256.903 120.375-.007-.018 2.907-.512.007.017c.56 1.46.84 2.19 1.221 2.758l-2.907.512c-.38-.568-.661-1.298-1.221-2.757Z"/><path fill="url(#bo)" d="M256.465 115.776c.149-.134.348-.209.634-.259l2.904-.512c-.285.05-.483.125-.631.259l-2.907.512Z"/><path fill="url(#bp)" d="M257.099 115.516c.058-.01.12-.019.186-.028l2.906-.512a2.906 2.906 0 0 0-.185.028l-2.907.512Z"/><path fill="url(#bq)" d="M256.467 110.404c-.392-.825-.565-1.675-.481-2.362l2.907-.513c-.085.687.089 1.537.48 2.363l-2.906.512Z"/><path fill="url(#br)" d="M259.914 124.764c-.637-.286-1.281-.872-1.79-1.631l2.906-.513c.51.759 1.154 1.345 1.791 1.631l-2.907.513Z"/><path fill="url(#bs)" d="M257.284 111.673c-.389-.516-.64-.893-.818-1.269l2.907-.512c.178.376.429.753.817 1.269l-2.906.512Z"/><path fill="url(#bt)" d="M257.395 115.47c.509-.117.83-.592.83-1.323l2.906-.512c0 .782-.367 1.27-.939 1.342l-2.797.493a.97.97 0 0 1-.11.019l.11-.019Z"/><path fill="url(#bu)" d="M255.986 108.041c.064-.515.345-.911.91-1.703l2.907-.513c-.565.792-.846 1.188-.91 1.704l-2.907.512Z"/><path fill="url(#bv)" d="M258.225 114.147c0-.783-.368-1.713-.941-2.474l2.907-.512c.573.761.941 1.691.941 2.473l-2.907.513Z"/><path fill="url(#bw)" d="M260.906 124.928c-.406.006-.701-.034-.991-.164l2.906-.512c.291.13.586.169.992.164l-2.907.512Z"/><path fill="url(#bx)" d="M256.896 106.337c.564-.793.846-1.189 1.228-1.299l2.907-.513c-.382.11-.665.507-1.228 1.3l-2.907.512Z"/><path fill="url(#by)" d="M261.857 125.221c-.332-.202-.659-.302-.951-.293l2.907-.512c.291-.01.618.091.95.292l-2.906.513Z"/><path fill="url(#bz)" d="M262.804 126.08a3.719 3.719 0 0 0-.948-.859l2.907-.513c.332.201.658.497.948.86l-2.907.512Z"/><path fill="url(#bA)" d="M263.76 128.552c-.025-.798-.371-1.728-.955-2.471l2.906-.513c.584.744.931 1.674.956 2.471l-2.907.513Z"/><path fill="url(#bB)" d="M263.935 129.865c-.113-.38-.157-.771-.175-1.314l2.907-.513c.018.544.061.934.174 1.315l-2.906.512Z"/><path fill="url(#bC)" d="M265.244 132.172a5.963 5.963 0 0 1-1.31-2.305l2.907-.513a5.954 5.954 0 0 0 1.31 2.306l-2.907.512Z"/><path fill="url(#bD)" d="M267.382 133.669c-1.128-.678-1.693-1.017-2.138-1.497l2.907-.513c.445.48 1.01.82 2.138 1.498l-2.907.512Z"/><path fill="url(#bE)" fill-rule="evenodd" d="M258.375 104.993c.463-.035 1.003.162 1.538.565l2.907-.512c-.637-.48-1.28-.667-1.791-.521l-2.654.468Zm-.253.044c.082-.023.166-.038.253-.044l-.253.044Zm2.783 1.549c-.406-.494-.701-.808-.992-1.028l2.907-.512c.291.219.585.534.991 1.027.292.359.618.651.949.848h.002c.331.198.657.294.947.28l-2.907.512c-.289.014-.614-.082-.946-.278h-.001a3.655 3.655 0 0 1-.95-.849Z" clip-rule="evenodd"/><path fill="url(#bF)" d="M262.803 107.716c.032-.003.062-.007.093-.012l2.906-.513c-.03.005-.061.009-.092.012l-2.907.513Z"/><path fill="url(#bG)" d="M262.896 107.704a.914.914 0 0 0 .596-.378l2.907-.513a.918.918 0 0 1-.596.378l-2.907.513Z"/><path fill="url(#bH)" d="M263.492 107.326c.168-.231.26-.552.268-.933l2.906-.512c-.008.38-.1.701-.267.932l-2.907.513Z"/><path fill="url(#bI)" d="M269.519 134.741c-.444-.054-1.009-.394-2.138-1.072l2.907-.512c1.129.678 1.693 1.017 2.138 1.071l-2.907.513Z"/><path fill="url(#bJ)" d="M263.76 106.395c.018-.521.062-.861.175-1.105l2.906-.513c-.113.245-.156.585-.174 1.105l-2.907.513Z"/><path fill="url(#bK)" d="M263.934 105.289c.185-.405.496-.654.889-.724l2.906-.512c-.393.069-.703.318-.888.723l-2.907.513Z"/><path fill="url(#bL)" d="M269.941 134.732a1.437 1.437 0 0 1-.421.008l2.907-.512c.148.018.289.015.421-.009l-2.907.513Z"/><path fill="url(#bM)" d="M265.36 114.938c.578-.101 1.274.054 2.022.504l2.907-.512c-.749-.45-1.444-.606-2.022-.504l-2.907.512Z"/><path fill="url(#bN)" fill-rule="evenodd" d="M263.75 117.462c0-1.456.639-2.356 1.611-2.527l2.906-.512c-.971.171-1.61 1.07-1.61 2.527l-2.907.512Zm3.633 6.389c-2.006-1.205-3.633-4.065-3.633-6.388l2.907-.513c0 2.323 1.626 5.182 3.631 6.388h.002c.748.45 1.444.606 2.022.504l-2.907.512c-.577.102-1.273-.054-2.021-.503h-.001Z" clip-rule="evenodd"/><path fill="url(#bO)" d="M264.823 104.565a1.37 1.37 0 0 1 .421-.008l2.906-.513a1.438 1.438 0 0 0-.421.008l-2.906.513Z"/><path fill="url(#bP)" fill-rule="evenodd" d="M271.961 131.58c-.585.04-.932.555-.956 1.323l2.907-.513c.021-.672.289-1.15.748-1.285l.208-.037a.923.923 0 0 0-.208.037l-2.699.475Zm-.956 1.323c-.018.522-.061.86-.174 1.105l2.907-.512c.113-.245.156-.584.174-1.105l-2.907.512Zm-.174 1.106c-.185.405-.496.654-.889.723l2.907-.512c.393-.07.703-.319.888-.724l-2.906.513Z" clip-rule="evenodd"/><path fill="url(#bQ)" d="M267.381 115.443c2.006 1.205 3.633 4.066 3.633 6.389l2.907-.513c0-2.323-1.627-5.184-3.633-6.389l-2.907.513Z"/><path fill="url(#bR)" d="M271.014 121.833c0 1.456-.639 2.355-1.61 2.527l2.906-.513c.972-.171 1.611-1.07 1.611-2.527l-2.907.513Z"/><path fill="url(#bS)" d="M272.907 131.863c-.331-.198-.657-.294-.947-.28l2.907-.513c.289-.014.615.083.947.28l-2.907.513Z"/><path fill="url(#bT)" d="M273.857 132.711a3.655 3.655 0 0 0-.95-.849l2.907-.513c.332.198.658.49.95.85l-2.907.512Z"/><path fill="url(#bU)" d="M274.85 133.738c-.291-.22-.585-.534-.992-1.028l2.907-.512c.406.493.701.807.992 1.027l-2.907.513Z"/><path fill="url(#bV)" fill-rule="evenodd" d="M265.243 104.556c.446.055 1.01.394 2.138 1.072h.001c1.128.677 1.693 1.017 2.137 1.497l2.907-.513c-.445-.48-1.009-.819-2.138-1.497h-.001c-1.128-.678-1.691-1.016-2.137-1.071l-2.907.512Zm5.06 3.648a5.817 5.817 0 0 0-.784-1.079l2.907-.512c.293.316.559.683.784 1.078l-2.907.513Zm.001 0c.224.396.403.813.525 1.227h.001c.112.38.155.77.173 1.313l2.907-.512c-.018-.544-.061-.934-.174-1.315h-.001c-.122-.414-.3-.83-.525-1.225l-2.906.512Zm.966 3.795a3.749 3.749 0 0 1-.267-1.253l2.907-.512c.008.389.099.82.266 1.252h.001c.167.432.404.851.688 1.217.291.363.617.659.949.86l-2.907.512a3.7 3.7 0 0 1-.948-.859 4.878 4.878 0 0 1-.689-1.217Zm2.587 2.37c-.292.009-.619-.091-.951-.293l2.907-.512c.332.201.659.302.951.292l-2.907.513Z" clip-rule="evenodd"/><path fill="url(#bW)" d="M277.664 123.78c-.058.011-.12.02-.186.028l2.907-.512c.066-.009.128-.018.186-.028l-2.907.512Z"/><path fill="url(#bX)" fill-rule="evenodd" d="M273.858 114.37c.406-.006.7.034.991.164l2.907-.513c-.291-.13-.585-.169-.991-.164l-2.907.513Zm.991.165c.636.284 1.28.871 1.791 1.631l.001-.001c.38.568.661 1.299 1.221 2.757l.006.018 2.907-.513-.007-.018c-.56-1.459-.841-2.189-1.221-2.757h-.001c-.511-.759-1.154-1.345-1.79-1.63l-2.907.513Zm2.818 9.246c.285-.051.483-.125.631-.259l2.907-.512c-.149.134-.348.208-.634.259l-2.904.512Zm.631-.26c.194-.175.336-.423.418-.729.082-.306.103-.664.062-1.054h-.001c-.063-.59-.344-1.326-.909-2.796l2.906-.513c.565 1.47.846 2.205.91 2.796.042.39.021.749-.062 1.055a1.483 1.483 0 0 1-.417.729l-2.907.512Z" clip-rule="evenodd"/><path fill="url(#bY)" fill-rule="evenodd" d="M274.849 133.735c.637.481 1.281.668 1.791.521l2.651-.467c.088-.007.173-.022.255-.045l-.255.045c-.461.034-1.001-.163-1.535-.566l-2.907.512Z" clip-rule="evenodd"/><path fill="url(#bZ)" fill-rule="evenodd" d="M269.52 107.126c-.445-.48-1.01-.819-2.138-1.497-1.129-.678-1.692-1.017-2.138-1.072-.592-.072-1.063.191-1.31.732-.113.244-.156.584-.174 1.105-.008.38-.1.701-.268.932a.919.919 0 0 1-.689.39c-.29.014-.616-.082-.947-.28a3.655 3.655 0 0 1-.95-.849c-.406-.494-.701-.808-.992-1.027-.636-.48-1.279-.667-1.79-.521-.382.11-.665.506-1.228 1.299-.565.792-.846 1.188-.91 1.704-.084.687.089 1.536.481 2.362.177.376.429.753.817 1.269.573.761.941 1.691.941 2.474 0 .782-.368 1.27-.94 1.342-.389.05-.641.125-.82.287-.193.175-.335.423-.417.73a2.886 2.886 0 0 0-.062 1.055c.064.591.345 1.326.91 2.797.564 1.471.846 2.205 1.228 2.775.509.759 1.153 1.345 1.79 1.631.291.13.586.17.992.164.291-.01.618.091.95.292.332.202.658.498.948.86.584.744.931 1.674.956 2.471.018.544.061.934.174 1.315a5.95 5.95 0 0 0 1.31 2.305c.445.48 1.009.82 2.138 1.498 1.128.678 1.693 1.017 2.138 1.071.591.072 1.063-.191 1.309-.731.113-.245.157-.583.175-1.105.024-.768.371-1.283.956-1.322.29-.014.616.082.948.279.331.198.658.49.95.849.406.494.7.808.991 1.028.637.481 1.281.667 1.791.521.382-.11.664-.507 1.228-1.3.565-.792.846-1.188.91-1.703.041-.341.02-.725-.063-1.131a5.434 5.434 0 0 0-.418-1.232c-.178-.376-.429-.752-.817-1.269-.573-.76-.941-1.691-.941-2.473 0-.782.368-1.271.94-1.342.389-.051.64-.126.819-.287a1.5 1.5 0 0 0 .418-.73c.082-.307.103-.665.062-1.056-.064-.59-.345-1.326-.91-2.797-.565-1.47-.846-2.204-1.228-2.775-.511-.76-1.155-1.346-1.791-1.631-.291-.13-.585-.169-.991-.164-.292.01-.619-.091-.951-.292a3.705 3.705 0 0 1-.948-.86 4.875 4.875 0 0 1-.688-1.217 3.734 3.734 0 0 1-.267-1.254c-.018-.543-.062-.934-.175-1.314a5.807 5.807 0 0 0-.525-1.227 5.863 5.863 0 0 0-.784-1.079Zm-2.138 16.729c2.007 1.206 3.632.3 3.632-2.023 0-2.324-1.627-5.184-3.632-6.389-2.007-1.206-3.633-.3-3.633 2.023s1.627 5.184 3.633 6.389Z" clip-rule="evenodd"/></g><path fill="url(#ca)" d="M54.228 200.745v-6.338l70.513 42.519c7.606 4.226 13.557 2.113 15.581.529l125.445-71.306c5.282-1.69 6.444-4.225 6.972-6.074l-.105 4.754c.211 2.535-1.057 4.225-2.905 5.546-40.759 23.592-123.702 71.622-129.407 75.002-5.704 3.381-12.764.705-15.581-1.056-20.687-12.06-62.96-36.709-66.552-38.822-3.592-2.113-4.137-4.049-3.961-4.754Z"/><rect width="14.261" height="1.726" fill="#8161FF" rx=".863" transform="matrix(-.85077 -.52554 .02974 -.99956 99.643 227.968)"/><rect width="2.641" height="2.641" fill="#8161FF" rx="1.32" transform="matrix(-.85077 -.52554 .02974 -.99956 119.329 239.633)"/><path fill="#F3E4FF" d="M178.617 120.722 56.87 190.971c-6.604 3.697 1.32 8.576 4.225 10.299l65.495 38.294c2.535 1.901 11.357 1.584 13.469 0l128.086-73.947c8.239-4.859 3.697-10.123 0-12.148-18.223-10.828-58.206-33.539-66.024-36.709-7.817-3.169-18.926 1.321-23.504 3.962Z"/><mask id="cb" width="219" height="126" x="54" y="115" maskUnits="userSpaceOnUse" style="mask-type:alpha"><path fill="#F3E4FF" d="M178.617 120.72 56.869 190.969c-6.604 3.697 1.32 8.577 4.225 10.3l65.495 38.293c2.536 1.902 11.357 1.585 13.47 0l128.085-73.946c8.24-4.86 3.697-10.124 0-12.149-18.223-10.827-58.206-33.539-66.023-36.708-7.817-3.169-18.927 1.32-23.504 3.961Z"/></mask><g mask="url(#cb)"><path fill="#B195FF" fill-opacity=".4" d="M91.463 227.678V160.07l-39.085 34.332 39.085 33.276ZM128.701 246.957V144.752l13.469-8.979 1.848 113.561-15.317-2.377ZM212.419 117.287v86.622h14.261l-1.057-80.284-13.204-6.338ZM242.525 126.53l-1.584 66.023 16.11 8.451 1.32-63.118-15.846-11.356Z"/><path fill="#F2EEFF" fill-opacity=".2" d="M76.381 233.983v-67.608l-39.086 34.332 39.086 33.276ZM119.165 252.998V148.153h9.771v107.486l-9.771-2.641ZM241.968 208.366v-70.513l-16.109-11.092v72.098l16.109 9.507Z"/></g><mask id="cc" width="219" height="126" x="54" y="115" maskUnits="userSpaceOnUse" style="mask-type:alpha"><path fill="#F3E4FF" d="M178.617 120.72 56.869 190.969c-6.604 3.697 1.32 8.577 4.225 10.3l65.495 38.293c2.536 1.902 11.357 1.585 13.47 0l128.085-73.946c8.24-4.86 3.697-10.124 0-12.149-18.223-10.827-58.206-33.539-66.023-36.708-7.817-3.169-18.927 1.32-23.504 3.961Z"/></mask><g mask="url(#cc)"><path fill="#B195FF" fill-rule="evenodd" d="m175.181 119.135 11.884-6.867 88.472 49.48-13.82 8.357-86.536-50.97ZM56.869 190.968l8.977-5.018 83.718 48.33-9.506 5.281c-3.435 1.849-10.039 2.378-13.206.529l-65.758-38.823c-2.905-1.723-10.83-6.602-4.225-10.299Z" clip-rule="evenodd"/></g><rect width="16.768" height="1.826" fill="#8161FF" rx=".913" transform="matrix(.86618 .49974 .86587 -.50026 219.55 135.104)"/><g filter="url(#cd)"><rect width="23.24" height="7.923" fill="#845BF7" rx="3.961" transform="matrix(.86933 .49423 -.86268 .50575 92.224 206.024)"/></g><path fill="url(#ce)" fill-rule="evenodd" d="M219.676 83.76h-47.685v24.207a2.29 2.29 0 0 0 0 .287v49.891a2.29 2.29 0 0 0 0 .287v.066h.005c.087.895.729 1.769 1.924 2.435l17.528 9.778c2.548 1.421 6.643 1.361 9.148-.135l17.232-10.291c1.319-.788 1.933-1.816 1.848-2.821v-49.809c.01-.123.01-.247 0-.37V83.76Z" clip-rule="evenodd"/><rect width="30.635" height="30.635" fill="#CA3DEC" rx="5" transform="matrix(-.85855 .51273 .87331 .48716 195.646 68.668)"/><path fill="url(#cf)" fill-rule="evenodd" d="M158.327 113.669c2.504-1.496 6.6-1.556 9.147-.135l17.529 9.778c1.078.601 1.706 1.372 1.882 2.174h.043v.285a2.09 2.09 0 0 1 0 .371v49.808c.086 1.005-.528 2.034-1.847 2.821l-17.233 10.291c-2.504 1.496-6.599 1.556-9.147.135l-17.528-9.777c-1.195-.667-1.837-1.541-1.924-2.436l-.005.001v-.067a1.964 1.964 0 0 1 0-.287V126.74a1.95 1.95 0 0 1 0-.286v-.704l.162-.001c.26-.65.822-1.271 1.689-1.789l17.232-10.291Z" clip-rule="evenodd"/><rect width="30.635" height="30.635" fill="#7554E9" rx="5" transform="matrix(-.85855 .51273 .87331 .48716 162.898 109.866)"/><path fill="url(#cg)" fill-rule="evenodd" d="M126.634 153.286c2.505-1.496 6.6-1.556 9.148-.135l17.528 9.778c1.37.764 2.014 1.801 1.926 2.829v29.209c.086 1.005-.529 2.034-1.848 2.822l-17.232 10.291c-2.504 1.496-6.6 1.556-9.147.135l-17.529-9.778c-1.194-.666-1.837-1.54-1.923-2.435h-.006v-.066a2.29 2.29 0 0 1 0-.287v-29.292a2.29 2.29 0 0 1 0-.287v-.175h.019c.123-.838.733-1.662 1.832-2.318l17.232-10.291Z" clip-rule="evenodd"/><rect width="30.635" height="30.635" fill="#EBA4FF" rx="5" transform="matrix(-.85855 .51273 .87331 .48716 131.207 150.009)"/><path fill="url(#ch)" d="m127.617 165.851-5.018-3.697 10.564-7.395 9.771 2.905-15.317 8.187Z"/><path fill="url(#ci)" d="m165.118 134.688-5.546-3.169 9.772-7.923 9.771 2.905-13.997 8.187Z"/><path fill="url(#cj)" d="m200.505 85.036-5.546-3.96-6.865 3.962 1.849 7.923 10.562-7.925Z"/><path fill="#AEB0FD" d="m122.334 162.024 5.284 3.827 6.039-3.827 15.599-44.652 10.316 14.288 5.536 3.062 23.148-69.657 6.793 16.33 5.535 3.827 2.299-16.03 15.566-46.228h-4.781l15.096-19.137L223.229 0l-15.096 19.392 4.025 2.551-14.09 37.763-7.799-17.35-5.536-3.572-24.154 74.505-10.316-13.523-5.535-3.828-22.394 66.086Z"/><path fill="#EBE3FF" d="m134.412 162.278-6.796 3.573 22.647-66.086 14.845 19.647 25.161-77.057 11.574 25.516 16.606-44.908h-4.781l15.097-19.392v19.392h-5.032l-23.227 62.34-10.237-24.832-25.161 74.217-14.845-20.124-15.851 47.714Z"/><defs><linearGradient id="b" x1="31.372" x2="31.455" y1="173.991" y2="175.469" gradientUnits="userSpaceOnUse"><stop stop-color="#B195FF"/><stop offset="1" stop-color="#D795FF"/></linearGradient><linearGradient id="c" x1="22.494" x2="22.941" y1="179.704" y2="186.885" gradientUnits="userSpaceOnUse"><stop stop-color="#B195FF"/><stop offset="1" stop-color="#D795FF"/></linearGradient><linearGradient id="d" x1="32.686" x2="33.734" y1="170.414" y2="184.025" gradientUnits="userSpaceOnUse"><stop stop-color="#B195FF"/><stop offset="1" stop-color="#D795FF"/></linearGradient><linearGradient id="e" x1="-41.317" x2="-16.476" y1="-46.275" y2="194.221" gradientUnits="userSpaceOnUse"><stop stop-color="#B195FF"/><stop offset="1" stop-color="#D795FF"/></linearGradient><linearGradient id="f" x1="-41.317" x2="-16.476" y1="-46.275" y2="194.221" gradientUnits="userSpaceOnUse"><stop stop-color="#B195FF"/><stop offset="1" stop-color="#D795FF"/></linearGradient><linearGradient id="g" x1="-41.317" x2="-16.476" y1="-46.275" y2="194.221" gradientUnits="userSpaceOnUse"><stop stop-color="#B195FF"/><stop offset="1" stop-color="#D795FF"/></linearGradient><linearGradient id="h" x1="25.44" x2="27.831" y1="146.618" y2="166.322" gradientUnits="userSpaceOnUse"><stop stop-color="#B195FF"/><stop offset="1" stop-color="#D795FF"/></linearGradient><linearGradient id="i" x1="25.889" x2="27.848" y1="155.734" y2="173.12" gradientUnits="userSpaceOnUse"><stop stop-color="#B195FF"/><stop offset="1" stop-color="#D795FF"/></linearGradient><linearGradient id="j" x1="25.342" x2="26.876" y1="142.434" y2="158.519" gradientUnits="userSpaceOnUse"><stop stop-color="#B195FF"/><stop offset="1" stop-color="#D795FF"/></linearGradient><linearGradient id="k" x1="26.637" x2="27.214" y1="167.814" y2="175.779" gradientUnits="userSpaceOnUse"><stop stop-color="#B195FF"/><stop offset="1" stop-color="#D795FF"/></linearGradient><linearGradient id="l" x1="27.587" x2="28.451" y1="140.832" y2="152.086" gradientUnits="userSpaceOnUse"><stop stop-color="#B195FF"/><stop offset="1" stop-color="#D795FF"/></linearGradient><linearGradient id="m" x1="33.593" x2="33.823" y1="143.657" y2="147.43" gradientUnits="userSpaceOnUse"><stop stop-color="#B195FF"/><stop offset="1" stop-color="#D795FF"/></linearGradient><linearGradient id="n" x1="30.998" x2="31.445" y1="131.411" y2="138.353" gradientUnits="userSpaceOnUse"><stop stop-color="#B195FF"/><stop offset="1" stop-color="#D795FF"/></linearGradient><linearGradient id="o" x1="37.382" x2="37.464" y1="144.669" y2="146.151" gradientUnits="userSpaceOnUse"><stop stop-color="#B195FF"/><stop offset="1" stop-color="#D795FF"/></linearGradient><linearGradient id="p" x1="38.642" x2="38.755" y1="144.354" y2="146.322" gradientUnits="userSpaceOnUse"><stop stop-color="#B195FF"/><stop offset="1" stop-color="#D795FF"/></linearGradient><linearGradient id="q" x1="39.45" x2="39.767" y1="143.02" y2="147.803" gradientUnits="userSpaceOnUse"><stop stop-color="#B195FF"/><stop offset="1" stop-color="#D795FF"/></linearGradient><linearGradient id="r" x1="39.436" x2="39.532" y1="133.705" y2="135.439" gradientUnits="userSpaceOnUse"><stop stop-color="#B195FF"/><stop offset="1" stop-color="#D795FF"/></linearGradient><linearGradient id="s" x1="41.384" x2="41.967" y1="142.898" y2="150.357" gradientUnits="userSpaceOnUse"><stop stop-color="#B195FF"/><stop offset="1" stop-color="#D795FF"/></linearGradient><linearGradient id="t" x1="41.932" x2="42.713" y1="157.165" y2="166.43" gradientUnits="userSpaceOnUse"><stop stop-color="#B195FF"/><stop offset="1" stop-color="#D795FF"/></linearGradient><linearGradient id="u" x1="42.563" x2="42.718" y1="133.077" y2="135.725" gradientUnits="userSpaceOnUse"><stop stop-color="#B195FF"/><stop offset="1" stop-color="#D795FF"/></linearGradient><linearGradient id="v" x1="40.276" x2="41.767" y1="161.676" y2="178.495" gradientUnits="userSpaceOnUse"><stop stop-color="#B195FF"/><stop offset="1" stop-color="#D795FF"/></linearGradient><linearGradient id="w" x1="37.73" x2="38.7" y1="137.302" y2="150.671" gradientUnits="userSpaceOnUse"><stop stop-color="#B195FF"/><stop offset="1" stop-color="#D795FF"/></linearGradient><linearGradient id="x" x1="44.187" x2="44.852" y1="130.029" y2="139.016" gradientUnits="userSpaceOnUse"><stop stop-color="#B195FF"/><stop offset="1" stop-color="#D795FF"/></linearGradient><linearGradient id="y" x1="38.374" x2="39.329" y1="150.126" y2="163.341" gradientUnits="userSpaceOnUse"><stop stop-color="#B195FF"/><stop offset="1" stop-color="#D795FF"/></linearGradient><linearGradient id="z" x1="46.096" x2="47.877" y1="153.69" y2="171.638" gradientUnits="userSpaceOnUse"><stop stop-color="#B195FF"/><stop offset="1" stop-color="#D795FF"/></linearGradient><linearGradient id="A" x1="48.805" x2="50.42" y1="129.211" y2="145.018" gradientUnits="userSpaceOnUse"><stop stop-color="#B195FF"/><stop offset="1" stop-color="#D795FF"/></linearGradient><linearGradient id="B" x1="50.114" x2="51.936" y1="147.443" y2="164.348" gradientUnits="userSpaceOnUse"><stop stop-color="#B195FF"/><stop offset="1" stop-color="#D795FF"/></linearGradient><linearGradient id="C" x1="53.76" x2="54.72" y1="156.96" y2="170.208" gradientUnits="userSpaceOnUse"><stop stop-color="#B195FF"/><stop offset="1" stop-color="#D795FF"/></linearGradient><linearGradient id="D" x1="53.661" x2="97.727" y1="65.735" y2="152.812" gradientUnits="userSpaceOnUse"><stop stop-color="#B195FF"/><stop offset="1" stop-color="#D795FF"/></linearGradient><linearGradient id="E" x1="62.577" x2="65.531" y1="130.384" y2="151.498" gradientUnits="userSpaceOnUse"><stop stop-color="#B195FF"/><stop offset="1" stop-color="#D795FF"/></linearGradient><linearGradient id="F" x1="63.867" x2="95.093" y1="80.231" y2="155.162" gradientUnits="userSpaceOnUse"><stop stop-color="#B195FF"/><stop offset="1" stop-color="#D795FF"/></linearGradient><linearGradient id="G" x1="63.734" x2="64.22" y1="121.583" y2="128.783" gradientUnits="userSpaceOnUse"><stop stop-color="#B195FF"/><stop offset="1" stop-color="#D795FF"/></linearGradient><linearGradient id="H" x1="58.091" x2="59.129" y1="137.585" y2="151.796" gradientUnits="userSpaceOnUse"><stop stop-color="#B195FF"/><stop offset="1" stop-color="#D795FF"/></linearGradient><linearGradient id="I" x1="68.932" x2="69.189" y1="121.792" y2="125.974" gradientUnits="userSpaceOnUse"><stop stop-color="#B195FF"/><stop offset="1" stop-color="#D795FF"/></linearGradient><linearGradient id="J" x1="74.008" x2="74.083" y1="123.101" y2="124.445" gradientUnits="userSpaceOnUse"><stop stop-color="#B195FF"/><stop offset="1" stop-color="#D795FF"/></linearGradient><linearGradient id="K" x1="63.965" x2="64.993" y1="128.982" y2="143.073" gradientUnits="userSpaceOnUse"><stop stop-color="#B195FF"/><stop offset="1" stop-color="#D795FF"/></linearGradient><linearGradient id="L" x1="74.174" x2="75.221" y1="143.442" y2="157.774" gradientUnits="userSpaceOnUse"><stop stop-color="#B195FF"/><stop offset="1" stop-color="#D795FF"/></linearGradient><linearGradient id="M" x1="63.86" x2="68.042" y1="121.46" y2="158.589" gradientUnits="userSpaceOnUse"><stop stop-color="#B195FF"/><stop offset="1" stop-color="#D795FF"/></linearGradient><linearGradient id="N" x1="74" x2="74.207" y1="121.992" y2="125.357" gradientUnits="userSpaceOnUse"><stop stop-color="#B195FF"/><stop offset="1" stop-color="#D795FF"/></linearGradient><linearGradient id="O" x1="68.467" x2="68.885" y1="109.673" y2="116.311" gradientUnits="userSpaceOnUse"><stop stop-color="#B195FF"/><stop offset="1" stop-color="#D795FF"/></linearGradient><linearGradient id="P" x1="76.061" x2="76.97" y1="121.925" y2="132.172" gradientUnits="userSpaceOnUse"><stop stop-color="#B195FF"/><stop offset="1" stop-color="#D795FF"/></linearGradient><linearGradient id="Q" x1="69.17" x2="70.35" y1="130.778" y2="145.801" gradientUnits="userSpaceOnUse"><stop stop-color="#B195FF"/><stop offset="1" stop-color="#D795FF"/></linearGradient><linearGradient id="R" x1="77.283" x2="77.766" y1="108.922" y2="116.114" gradientUnits="userSpaceOnUse"><stop stop-color="#B195FF"/><stop offset="1" stop-color="#D795FF"/></linearGradient><linearGradient id="S" x1="77.681" x2="79.513" y1="120.399" y2="139.633" gradientUnits="userSpaceOnUse"><stop stop-color="#B195FF"/><stop offset="1" stop-color="#D795FF"/></linearGradient><linearGradient id="T" x1="73.627" x2="77.741" y1="115.708" y2="152.604" gradientUnits="userSpaceOnUse"><stop stop-color="#B195FF"/><stop offset="1" stop-color="#D795FF"/></linearGradient><linearGradient id="U" x1="83.577" x2="85.499" y1="105.21" y2="122.889" gradientUnits="userSpaceOnUse"><stop stop-color="#B195FF"/><stop offset="1" stop-color="#D795FF"/></linearGradient><linearGradient id="V" x1="83.747" x2="86.448" y1="109.705" y2="131.692" gradientUnits="userSpaceOnUse"><stop stop-color="#B195FF"/><stop offset="1" stop-color="#D795FF"/></linearGradient><linearGradient id="W" x1="88.55" x2="89.485" y1="136.539" y2="149.473" gradientUnits="userSpaceOnUse"><stop stop-color="#B195FF"/><stop offset="1" stop-color="#D795FF"/></linearGradient><linearGradient id="X" x1="88.319" x2="132.385" y1="45.014" y2="132.091" gradientUnits="userSpaceOnUse"><stop stop-color="#B195FF"/><stop offset="1" stop-color="#D795FF"/></linearGradient><linearGradient id="Y" x1="84.986" x2="86.174" y1="89.217" y2="105.308" gradientUnits="userSpaceOnUse"><stop stop-color="#B195FF"/><stop offset="1" stop-color="#D795FF"/></linearGradient><linearGradient id="Z" x1="100.886" x2="100.985" y1="114.551" y2="116.276" gradientUnits="userSpaceOnUse"><stop stop-color="#B195FF"/><stop offset="1" stop-color="#D795FF"/></linearGradient><linearGradient id="aa" x1="99.249" x2="119.408" y1="78.9" y2="139.71" gradientUnits="userSpaceOnUse"><stop stop-color="#B195FF"/><stop offset="1" stop-color="#D795FF"/></linearGradient><linearGradient id="ab" x1="108.734" x2="109.339" y1="129.259" y2="138.001" gradientUnits="userSpaceOnUse"><stop stop-color="#B195FF"/><stop offset="1" stop-color="#D795FF"/></linearGradient><linearGradient id="ac" x1="95.469" x2="102.97" y1="85.887" y2="139.047" gradientUnits="userSpaceOnUse"><stop stop-color="#B195FF"/><stop offset="1" stop-color="#D795FF"/></linearGradient><linearGradient id="ad" x1="96.479" x2="103.858" y1="67.615" y2="120.952" gradientUnits="userSpaceOnUse"><stop stop-color="#B195FF"/><stop offset="1" stop-color="#D795FF"/></linearGradient><linearGradient id="ae" x1="113.442" x2="113.551" y1="117.642" y2="119.536" gradientUnits="userSpaceOnUse"><stop stop-color="#B195FF"/><stop offset="1" stop-color="#D795FF"/></linearGradient><linearGradient id="af" x1="105.627" x2="119.514" y1="42.378" y2="119.697" gradientUnits="userSpaceOnUse"><stop stop-color="#B195FF"/><stop offset="1" stop-color="#D795FF"/></linearGradient><linearGradient id="ag" x1="109.443" x2="123.093" y1="59.188" y2="134.66" gradientUnits="userSpaceOnUse"><stop stop-color="#B195FF"/><stop offset="1" stop-color="#D795FF"/></linearGradient><linearGradient id="ah" x1="125.226" x2="125.324" y1="100.152" y2="101.877" gradientUnits="userSpaceOnUse"><stop stop-color="#B195FF"/><stop offset="1" stop-color="#D795FF"/></linearGradient><linearGradient id="ai" x1="122.156" x2="123.091" y1="116.443" y2="129.377" gradientUnits="userSpaceOnUse"><stop stop-color="#B195FF"/><stop offset="1" stop-color="#D795FF"/></linearGradient><linearGradient id="aj" x1="123.914" x2="143.887" y1="64.513" y2="125.044" gradientUnits="userSpaceOnUse"><stop stop-color="#B195FF"/><stop offset="1" stop-color="#D795FF"/></linearGradient><linearGradient id="ak" x1="116.157" x2="117.346" y1="70.58" y2="86.671" gradientUnits="userSpaceOnUse"><stop stop-color="#B195FF"/><stop offset="1" stop-color="#D795FF"/></linearGradient><linearGradient id="al" x1="130.885" x2="174.95" y1="19.562" y2="106.639" gradientUnits="userSpaceOnUse"><stop stop-color="#B195FF"/><stop offset="1" stop-color="#D795FF"/></linearGradient><linearGradient id="am" x1="-41.292" x2="-16.451" y1="-46.209" y2="194.288" gradientUnits="userSpaceOnUse"><stop stop-color="#B195FF"/><stop offset="1" stop-color="#E9C6FF"/></linearGradient><linearGradient id="an" x1="-41.292" x2="-16.451" y1="-46.209" y2="194.288" gradientUnits="userSpaceOnUse"><stop stop-color="#B195FF"/><stop offset="1" stop-color="#E9C6FF"/></linearGradient><linearGradient id="ao" x1="-41.292" x2="-16.451" y1="-46.209" y2="194.288" gradientUnits="userSpaceOnUse"><stop stop-color="#B195FF"/><stop offset="1" stop-color="#E9C6FF"/></linearGradient><linearGradient id="aq" x1="158.048" x2="92.703" y1="-92.537" y2="29.396" gradientUnits="userSpaceOnUse"><stop stop-color="#B195FF"/><stop offset="1" stop-color="#D795FF"/></linearGradient><linearGradient id="as" x1="250.799" x2="218.89" y1="45.227" y2="86.886" gradientUnits="userSpaceOnUse"><stop stop-color="#00D700"/><stop offset=".493" stop-color="#01C9C8"/><stop offset=".884" stop-color="#7069EF"/></linearGradient><linearGradient id="at" x1="219.843" x2="218.895" y1="62.773" y2="65.905" gradientUnits="userSpaceOnUse"><stop stop-color="#00D700"/><stop offset=".493" stop-color="#01C9C8"/><stop offset=".884" stop-color="#7069EF"/></linearGradient><linearGradient id="au" x1="220.986" x2="218.098" y1="64.322" y2="70.094" gradientUnits="userSpaceOnUse"><stop stop-color="#00D700"/><stop offset=".493" stop-color="#01C9C8"/><stop offset=".884" stop-color="#7069EF"/></linearGradient><linearGradient id="av" x1="220.416" x2="219.857" y1="61.702" y2="64.291" gradientUnits="userSpaceOnUse"><stop stop-color="#00D700"/><stop offset=".493" stop-color="#01C9C8"/><stop offset=".884" stop-color="#7069EF"/></linearGradient><linearGradient id="aw" x1="222.75" x2="220.033" y1="68.428" y2="74.351" gradientUnits="userSpaceOnUse"><stop stop-color="#00D700"/><stop offset=".493" stop-color="#01C9C8"/><stop offset=".884" stop-color="#7069EF"/></linearGradient><linearGradient id="ax" x1="221.319" x2="221.111" y1="61.32" y2="62.977" gradientUnits="userSpaceOnUse"><stop stop-color="#00D700"/><stop offset=".493" stop-color="#01C9C8"/><stop offset=".884" stop-color="#7069EF"/></linearGradient><linearGradient id="ay" x1="221.646" x2="221.528" y1="61.283" y2="62.45" gradientUnits="userSpaceOnUse"><stop stop-color="#00D700"/><stop offset=".493" stop-color="#01C9C8"/><stop offset=".884" stop-color="#7069EF"/></linearGradient><linearGradient id="az" x1="220.407" x2="217.94" y1="50.354" y2="55.423" gradientUnits="userSpaceOnUse"><stop stop-color="#00D700"/><stop offset=".493" stop-color="#01C9C8"/><stop offset=".884" stop-color="#7069EF"/></linearGradient><linearGradient id="aA" x1="225.308" x2="224.157" y1="72.497" y2="76.868" gradientUnits="userSpaceOnUse"><stop stop-color="#00D700"/><stop offset=".493" stop-color="#01C9C8"/><stop offset=".884" stop-color="#7069EF"/></linearGradient><linearGradient id="aB" x1="221.567" x2="220.571" y1="53.824" y2="57.434" gradientUnits="userSpaceOnUse"><stop stop-color="#00D700"/><stop offset=".493" stop-color="#01C9C8"/><stop offset=".884" stop-color="#7069EF"/></linearGradient><linearGradient id="aC" x1="222.933" x2="221.888" y1="59.308" y2="63.062" gradientUnits="userSpaceOnUse"><stop stop-color="#00D700"/><stop offset=".493" stop-color="#01C9C8"/><stop offset=".884" stop-color="#7069EF"/></linearGradient><linearGradient id="aD" x1="220.986" x2="219.53" y1="47.853" y2="52.198" gradientUnits="userSpaceOnUse"><stop stop-color="#00D700"/><stop offset=".493" stop-color="#01C9C8"/><stop offset=".884" stop-color="#7069EF"/></linearGradient><linearGradient id="aE" x1="222.933" x2="220.504" y1="55.683" y2="61.107" gradientUnits="userSpaceOnUse"><stop stop-color="#00D700"/><stop offset=".493" stop-color="#01C9C8"/><stop offset=".884" stop-color="#7069EF"/></linearGradient><linearGradient id="aF" x1="226.861" x2="226.714" y1="74.888" y2="76.349" gradientUnits="userSpaceOnUse"><stop stop-color="#00D700"/><stop offset=".493" stop-color="#01C9C8"/><stop offset=".884" stop-color="#7069EF"/></linearGradient><linearGradient id="aG" x1="222.75" x2="221.811" y1="45.947" y2="49.66" gradientUnits="userSpaceOnUse"><stop stop-color="#00D700"/><stop offset=".493" stop-color="#01C9C8"/><stop offset=".884" stop-color="#7069EF"/></linearGradient><linearGradient id="aH" x1="228.261" x2="228.052" y1="75.131" y2="76.863" gradientUnits="userSpaceOnUse"><stop stop-color="#00D700"/><stop offset=".493" stop-color="#01C9C8"/><stop offset=".884" stop-color="#7069EF"/></linearGradient><linearGradient id="aI" x1="229.651" x2="229.062" y1="75.561" y2="78.432" gradientUnits="userSpaceOnUse"><stop stop-color="#00D700"/><stop offset=".493" stop-color="#01C9C8"/><stop offset=".884" stop-color="#7069EF"/></linearGradient><linearGradient id="aJ" x1="231.053" x2="228.634" y1="76.819" y2="82.247" gradientUnits="userSpaceOnUse"><stop stop-color="#00D700"/><stop offset=".493" stop-color="#01C9C8"/><stop offset=".884" stop-color="#7069EF"/></linearGradient><linearGradient id="aK" x1="231.405" x2="230.184" y1="80.446" y2="84.013" gradientUnits="userSpaceOnUse"><stop stop-color="#00D700"/><stop offset=".493" stop-color="#01C9C8"/><stop offset=".884" stop-color="#7069EF"/></linearGradient><linearGradient id="aL" x1="233.187" x2="231.125" y1="82.377" y2="87.727" gradientUnits="userSpaceOnUse"><stop stop-color="#00D700"/><stop offset=".493" stop-color="#01C9C8"/><stop offset=".884" stop-color="#7069EF"/></linearGradient><linearGradient id="aM" x1="236.223" x2="235.266" y1="85.763" y2="89.927" gradientUnits="userSpaceOnUse"><stop stop-color="#00D700"/><stop offset=".493" stop-color="#01C9C8"/><stop offset=".884" stop-color="#7069EF"/></linearGradient><linearGradient id="aN" x1="213.497" x2="232.07" y1="41.768" y2="37.996" gradientUnits="userSpaceOnUse"><stop stop-color="#00D700"/><stop offset=".493" stop-color="#01C9C8"/><stop offset=".884" stop-color="#7069EF"/></linearGradient><linearGradient id="aO" x1="229.89" x2="229.776" y1="49.859" y2="50.991" gradientUnits="userSpaceOnUse"><stop stop-color="#00D700"/><stop offset=".493" stop-color="#01C9C8"/><stop offset=".884" stop-color="#7069EF"/></linearGradient><linearGradient id="aP" x1="230.704" x2="230.426" y1="49.306" y2="51.206" gradientUnits="userSpaceOnUse"><stop stop-color="#00D700"/><stop offset=".493" stop-color="#01C9C8"/><stop offset=".884" stop-color="#7069EF"/></linearGradient><linearGradient id="aQ" x1="231.136" x2="230.362" y1="47.938" y2="50.886" gradientUnits="userSpaceOnUse"><stop stop-color="#00D700"/><stop offset=".493" stop-color="#01C9C8"/><stop offset=".884" stop-color="#7069EF"/></linearGradient><linearGradient id="aR" x1="239.359" x2="238.753" y1="87.954" y2="91.299" gradientUnits="userSpaceOnUse"><stop stop-color="#00D700"/><stop offset=".493" stop-color="#01C9C8"/><stop offset=".884" stop-color="#7069EF"/></linearGradient><linearGradient id="aS" x1="231.405" x2="230.426" y1="46.316" y2="49.547" gradientUnits="userSpaceOnUse"><stop stop-color="#00D700"/><stop offset=".493" stop-color="#01C9C8"/><stop offset=".884" stop-color="#7069EF"/></linearGradient><linearGradient id="aT" x1="232.621" x2="232.132" y1="45.249" y2="47.852" gradientUnits="userSpaceOnUse"><stop stop-color="#00D700"/><stop offset=".493" stop-color="#01C9C8"/><stop offset=".884" stop-color="#7069EF"/></linearGradient><linearGradient id="aU" x1="240.188" x2="240.082" y1="89.516" y2="90.667" gradientUnits="userSpaceOnUse"><stop stop-color="#00D700"/><stop offset=".493" stop-color="#01C9C8"/><stop offset=".884" stop-color="#7069EF"/></linearGradient><linearGradient id="aV" x1="236.237" x2="235.962" y1="60.429" y2="62.677" gradientUnits="userSpaceOnUse"><stop stop-color="#00D700"/><stop offset=".493" stop-color="#01C9C8"/><stop offset=".884" stop-color="#7069EF"/></linearGradient><linearGradient id="aW" x1="238.761" x2="228.705" y1="60.474" y2="75.451" gradientUnits="userSpaceOnUse"><stop stop-color="#00D700"/><stop offset=".493" stop-color="#01C9C8"/><stop offset=".884" stop-color="#7069EF"/></linearGradient><linearGradient id="aX" x1="233.295" x2="233.189" y1="45.227" y2="46.378" gradientUnits="userSpaceOnUse"><stop stop-color="#00D700"/><stop offset=".493" stop-color="#01C9C8"/><stop offset=".884" stop-color="#7069EF"/></linearGradient><linearGradient id="aY" x1="244.732" x2="239.644" y1="82.338" y2="93.464" gradientUnits="userSpaceOnUse"><stop stop-color="#00D700"/><stop offset=".493" stop-color="#01C9C8"/><stop offset=".884" stop-color="#7069EF"/></linearGradient><linearGradient id="aZ" x1="241.37" x2="234.685" y1="61.211" y2="72.19" gradientUnits="userSpaceOnUse"><stop stop-color="#00D700"/><stop offset=".493" stop-color="#01C9C8"/><stop offset=".884" stop-color="#7069EF"/></linearGradient><linearGradient id="ba" x1="241.617" x2="239.381" y1="70.59" y2="76.351" gradientUnits="userSpaceOnUse"><stop stop-color="#00D700"/><stop offset=".493" stop-color="#01C9C8"/><stop offset=".884" stop-color="#7069EF"/></linearGradient><linearGradient id="bb" x1="244.476" x2="244.273" y1="84.891" y2="86.597" gradientUnits="userSpaceOnUse"><stop stop-color="#00D700"/><stop offset=".493" stop-color="#01C9C8"/><stop offset=".884" stop-color="#7069EF"/></linearGradient><linearGradient id="bc" x1="245.869" x2="245.289" y1="85.303" y2="88.154" gradientUnits="userSpaceOnUse"><stop stop-color="#00D700"/><stop offset=".493" stop-color="#01C9C8"/><stop offset=".884" stop-color="#7069EF"/></linearGradient><linearGradient id="bd" x1="247.074" x2="246.292" y1="86.622" y2="89.787" gradientUnits="userSpaceOnUse"><stop stop-color="#00D700"/><stop offset=".493" stop-color="#01C9C8"/><stop offset=".884" stop-color="#7069EF"/></linearGradient><linearGradient id="be" x1="222.798" x2="248.179" y1="37.893" y2="60.28" gradientUnits="userSpaceOnUse"><stop stop-color="#00D700"/><stop offset=".493" stop-color="#01C9C8"/><stop offset=".884" stop-color="#7069EF"/></linearGradient><linearGradient id="bf" x1="251.549" x2="251.431" y1="73.448" y2="74.615" gradientUnits="userSpaceOnUse"><stop stop-color="#00D700"/><stop offset=".493" stop-color="#01C9C8"/><stop offset=".884" stop-color="#7069EF"/></linearGradient><linearGradient id="bg" x1="237.135" x2="245.466" y1="47.58" y2="78.739" gradientUnits="userSpaceOnUse"><stop stop-color="#00D700"/><stop offset=".493" stop-color="#01C9C8"/><stop offset=".661" stop-color="#09C2CB"/><stop offset=".884" stop-color="#7069EF"/></linearGradient><linearGradient id="bh" x1="276.82" x2="217.874" y1="67.493" y2="61.676" gradientUnits="userSpaceOnUse"><stop stop-color="#00D700"/><stop offset=".493" stop-color="#01C9C8"/><stop offset=".884" stop-color="#7069EF"/></linearGradient><linearGradient id="bj" x1="279.802" x2="258.151" y1="104.032" y2="132.398" gradientUnits="userSpaceOnUse"><stop stop-color="#00D700"/><stop offset=".493" stop-color="#01C9C8"/><stop offset=".884" stop-color="#7069EF"/></linearGradient><linearGradient id="bk" x1="258.705" x2="258.059" y1="115.993" y2="118.128" gradientUnits="userSpaceOnUse"><stop stop-color="#00D700"/><stop offset=".493" stop-color="#01C9C8"/><stop offset=".884" stop-color="#7069EF"/></linearGradient><linearGradient id="bl" x1="259.485" x2="257.517" y1="117.047" y2="120.981" gradientUnits="userSpaceOnUse"><stop stop-color="#00D700"/><stop offset=".493" stop-color="#01C9C8"/><stop offset=".884" stop-color="#7069EF"/></linearGradient><linearGradient id="bm" x1="259.095" x2="258.715" y1="115.262" y2="117.027" gradientUnits="userSpaceOnUse"><stop stop-color="#00D700"/><stop offset=".493" stop-color="#01C9C8"/><stop offset=".884" stop-color="#7069EF"/></linearGradient><linearGradient id="bn" x1="260.686" x2="258.835" y1="119.845" y2="123.881" gradientUnits="userSpaceOnUse"><stop stop-color="#00D700"/><stop offset=".493" stop-color="#01C9C8"/><stop offset=".884" stop-color="#7069EF"/></linearGradient><linearGradient id="bo" x1="259.711" x2="259.569" y1="115.005" y2="116.133" gradientUnits="userSpaceOnUse"><stop stop-color="#00D700"/><stop offset=".493" stop-color="#01C9C8"/><stop offset=".884" stop-color="#7069EF"/></linearGradient><linearGradient id="bp" x1="259.934" x2="259.853" y1="114.976" y2="115.771" gradientUnits="userSpaceOnUse"><stop stop-color="#00D700"/><stop offset=".493" stop-color="#01C9C8"/><stop offset=".884" stop-color="#7069EF"/></linearGradient><linearGradient id="bq" x1="259.089" x2="257.408" y1="107.529" y2="110.984" gradientUnits="userSpaceOnUse"><stop stop-color="#00D700"/><stop offset=".493" stop-color="#01C9C8"/><stop offset=".884" stop-color="#7069EF"/></linearGradient><linearGradient id="br" x1="262.43" x2="261.645" y1="122.62" y2="125.599" gradientUnits="userSpaceOnUse"><stop stop-color="#00D700"/><stop offset=".493" stop-color="#01C9C8"/><stop offset=".884" stop-color="#7069EF"/></linearGradient><linearGradient id="bs" x1="259.88" x2="259.201" y1="109.892" y2="112.352" gradientUnits="userSpaceOnUse"><stop stop-color="#00D700"/><stop offset=".493" stop-color="#01C9C8"/><stop offset=".884" stop-color="#7069EF"/></linearGradient><linearGradient id="bt" x1="260.811" x2="260.099" y1="113.635" y2="116.193" gradientUnits="userSpaceOnUse"><stop stop-color="#00D700"/><stop offset=".493" stop-color="#01C9C8"/><stop offset=".884" stop-color="#7069EF"/></linearGradient><linearGradient id="bu" x1="259.485" x2="258.492" y1="105.825" y2="108.786" gradientUnits="userSpaceOnUse"><stop stop-color="#00D700"/><stop offset=".493" stop-color="#01C9C8"/><stop offset=".884" stop-color="#7069EF"/></linearGradient><linearGradient id="bv" x1="260.811" x2="259.156" y1="111.161" y2="114.857" gradientUnits="userSpaceOnUse"><stop stop-color="#00D700"/><stop offset=".493" stop-color="#01C9C8"/><stop offset=".884" stop-color="#7069EF"/></linearGradient><linearGradient id="bw" x1="263.488" x2="263.388" y1="124.252" y2="125.248" gradientUnits="userSpaceOnUse"><stop stop-color="#00D700"/><stop offset=".493" stop-color="#01C9C8"/><stop offset=".884" stop-color="#7069EF"/></linearGradient><linearGradient id="bx" x1="260.686" x2="260.047" y1="104.525" y2="107.056" gradientUnits="userSpaceOnUse"><stop stop-color="#00D700"/><stop offset=".493" stop-color="#01C9C8"/><stop offset=".884" stop-color="#7069EF"/></linearGradient><linearGradient id="by" x1="264.442" x2="264.3" y1="124.415" y2="125.595" gradientUnits="userSpaceOnUse"><stop stop-color="#00D700"/><stop offset=".493" stop-color="#01C9C8"/><stop offset=".884" stop-color="#7069EF"/></linearGradient><linearGradient id="bz" x1="265.39" x2="264.988" y1="124.708" y2="126.665" gradientUnits="userSpaceOnUse"><stop stop-color="#00D700"/><stop offset=".493" stop-color="#01C9C8"/><stop offset=".884" stop-color="#7069EF"/></linearGradient><linearGradient id="bA" x1="266.345" x2="264.696" y1="125.568" y2="129.267" gradientUnits="userSpaceOnUse"><stop stop-color="#00D700"/><stop offset=".493" stop-color="#01C9C8"/><stop offset=".884" stop-color="#7069EF"/></linearGradient><linearGradient id="bB" x1="266.585" x2="265.753" y1="128.038" y2="130.469" gradientUnits="userSpaceOnUse"><stop stop-color="#00D700"/><stop offset=".493" stop-color="#01C9C8"/><stop offset=".884" stop-color="#7069EF"/></linearGradient><linearGradient id="bC" x1="267.8" x2="266.394" y1="129.354" y2="133" gradientUnits="userSpaceOnUse"><stop stop-color="#00D700"/><stop offset=".493" stop-color="#01C9C8"/><stop offset=".884" stop-color="#7069EF"/></linearGradient><linearGradient id="bD" x1="269.869" x2="269.216" y1="131.659" y2="134.497" gradientUnits="userSpaceOnUse"><stop stop-color="#00D700"/><stop offset=".493" stop-color="#01C9C8"/><stop offset=".884" stop-color="#7069EF"/></linearGradient><linearGradient id="bE" x1="254.38" x2="267.037" y1="101.675" y2="99.103" gradientUnits="userSpaceOnUse"><stop stop-color="#00D700"/><stop offset=".493" stop-color="#01C9C8"/><stop offset=".884" stop-color="#7069EF"/></linearGradient><linearGradient id="bF" x1="265.553" x2="265.475" y1="107.191" y2="107.963" gradientUnits="userSpaceOnUse"><stop stop-color="#00D700"/><stop offset=".493" stop-color="#01C9C8"/><stop offset=".884" stop-color="#7069EF"/></linearGradient><linearGradient id="bG" x1="266.107" x2="265.917" y1="106.813" y2="108.109" gradientUnits="userSpaceOnUse"><stop stop-color="#00D700"/><stop offset=".493" stop-color="#01C9C8"/><stop offset=".884" stop-color="#7069EF"/></linearGradient><linearGradient id="bH" x1="266.402" x2="265.874" y1="105.881" y2="107.89" gradientUnits="userSpaceOnUse"><stop stop-color="#00D700"/><stop offset=".493" stop-color="#01C9C8"/><stop offset=".884" stop-color="#7069EF"/></linearGradient><linearGradient id="bI" x1="272.006" x2="271.593" y1="133.157" y2="135.436" gradientUnits="userSpaceOnUse"><stop stop-color="#00D700"/><stop offset=".493" stop-color="#01C9C8"/><stop offset=".884" stop-color="#7069EF"/></linearGradient><linearGradient id="bJ" x1="266.585" x2="265.918" y1="104.777" y2="106.979" gradientUnits="userSpaceOnUse"><stop stop-color="#00D700"/><stop offset=".493" stop-color="#01C9C8"/><stop offset=".884" stop-color="#7069EF"/></linearGradient><linearGradient id="bK" x1="267.413" x2="267.08" y1="104.053" y2="105.827" gradientUnits="userSpaceOnUse"><stop stop-color="#00D700"/><stop offset=".493" stop-color="#01C9C8"/><stop offset=".884" stop-color="#7069EF"/></linearGradient><linearGradient id="bL" x1="272.571" x2="272.498" y1="134.219" y2="135.004" gradientUnits="userSpaceOnUse"><stop stop-color="#00D700"/><stop offset=".493" stop-color="#01C9C8"/><stop offset=".884" stop-color="#7069EF"/></linearGradient><linearGradient id="bM" x1="269.878" x2="269.69" y1="114.396" y2="115.928" gradientUnits="userSpaceOnUse"><stop stop-color="#00D700"/><stop offset=".493" stop-color="#01C9C8"/><stop offset=".884" stop-color="#7069EF"/></linearGradient><linearGradient id="bN" x1="271.598" x2="264.747" y1="114.422" y2="124.628" gradientUnits="userSpaceOnUse"><stop stop-color="#00D700"/><stop offset=".493" stop-color="#01C9C8"/><stop offset=".884" stop-color="#7069EF"/></linearGradient><linearGradient id="bO" x1="267.873" x2="267.801" y1="104.032" y2="104.817" gradientUnits="userSpaceOnUse"><stop stop-color="#00D700"/><stop offset=".493" stop-color="#01C9C8"/><stop offset=".884" stop-color="#7069EF"/></linearGradient><linearGradient id="bP" x1="275.669" x2="272.199" y1="129.33" y2="136.915" gradientUnits="userSpaceOnUse"><stop stop-color="#00D700"/><stop offset=".493" stop-color="#01C9C8"/><stop offset=".884" stop-color="#7069EF"/></linearGradient><linearGradient id="bQ" x1="273.376" x2="268.82" y1="114.93" y2="122.413" gradientUnits="userSpaceOnUse"><stop stop-color="#00D700"/><stop offset=".493" stop-color="#01C9C8"/><stop offset=".884" stop-color="#7069EF"/></linearGradient><linearGradient id="bR" x1="273.544" x2="272.02" y1="121.32" y2="125.246" gradientUnits="userSpaceOnUse"><stop stop-color="#00D700"/><stop offset=".493" stop-color="#01C9C8"/><stop offset=".884" stop-color="#7069EF"/></linearGradient><linearGradient id="bS" x1="275.493" x2="275.355" y1="131.069" y2="132.232" gradientUnits="userSpaceOnUse"><stop stop-color="#00D700"/><stop offset=".493" stop-color="#01C9C8"/><stop offset=".884" stop-color="#7069EF"/></linearGradient><linearGradient id="bT" x1="276.443" x2="276.047" y1="131.349" y2="133.293" gradientUnits="userSpaceOnUse"><stop stop-color="#00D700"/><stop offset=".493" stop-color="#01C9C8"/><stop offset=".884" stop-color="#7069EF"/></linearGradient><linearGradient id="bU" x1="277.432" x2="276.936" y1="132.198" y2="134.373" gradientUnits="userSpaceOnUse"><stop stop-color="#00D700"/><stop offset=".493" stop-color="#01C9C8"/><stop offset=".884" stop-color="#7069EF"/></linearGradient><linearGradient id="bV" x1="260.719" x2="278.017" y1="99.038" y2="114.295" gradientUnits="userSpaceOnUse"><stop stop-color="#00D700"/><stop offset=".493" stop-color="#01C9C8"/><stop offset=".884" stop-color="#7069EF"/></linearGradient><linearGradient id="bW" x1="280.313" x2="280.233" y1="123.268" y2="124.063" gradientUnits="userSpaceOnUse"><stop stop-color="#00D700"/><stop offset=".493" stop-color="#01C9C8"/><stop offset=".884" stop-color="#7069EF"/></linearGradient><linearGradient id="bX" x1="270.491" x2="276.168" y1="105.637" y2="126.873" gradientUnits="userSpaceOnUse"><stop stop-color="#00D700"/><stop offset=".493" stop-color="#01C9C8"/><stop offset=".661" stop-color="#09C2CB"/><stop offset=".884" stop-color="#7069EF"/></linearGradient><linearGradient id="bY" x1="275.846" x2="275.812" y1="132.733" y2="134.456" gradientUnits="userSpaceOnUse"><stop stop-color="#00D700"/><stop offset=".517" stop-color="#01C9C8"/><stop offset="1" stop-color="#7069EF"/></linearGradient><linearGradient id="bZ" x1="297.536" x2="257.363" y1="119.21" y2="115.245" gradientUnits="userSpaceOnUse"><stop stop-color="#00D700"/><stop offset=".493" stop-color="#01C9C8"/><stop offset=".884" stop-color="#7069EF"/></linearGradient><linearGradient id="ca" x1="272.869" x2="245.847" y1="167.701" y2="135.205" gradientUnits="userSpaceOnUse"><stop stop-color="#896BDF"/><stop offset="1" stop-color="#D795FF"/></linearGradient><linearGradient id="ce" x1="192.585" x2="196.811" y1="132.337" y2="132.337" gradientUnits="userSpaceOnUse"><stop stop-color="#8C02AF"/><stop offset="1" stop-color="#AB21CE"/></linearGradient><linearGradient id="cf" x1="159.838" x2="164.064" y1="155.418" y2="155.419" gradientUnits="userSpaceOnUse"><stop stop-color="#4505B3"/><stop offset="1" stop-color="#5F35D7"/></linearGradient><linearGradient id="cg" x1="128.146" x2="132.371" y1="178.533" y2="178.533" gradientUnits="userSpaceOnUse"><stop stop-color="#B630DD"/><stop offset="1" stop-color="#DC70F9"/></linearGradient><linearGradient id="ch" x1="125.24" x2="136.596" y1="164.003" y2="156.08" gradientUnits="userSpaceOnUse"><stop stop-color="#121599"/><stop offset="1" stop-color="#666" stop-opacity="0"/></linearGradient><linearGradient id="ci" x1="161.421" x2="171.192" y1="132.839" y2="125.973" gradientUnits="userSpaceOnUse"><stop stop-color="#121599"/><stop offset="1" stop-color="#666" stop-opacity="0"/></linearGradient><linearGradient id="cj" x1="201.044" x2="192.595" y1="80.011" y2="88.451" gradientUnits="userSpaceOnUse"><stop stop-color="#121599"/><stop offset="1" stop-color="#666" stop-opacity="0"/></linearGradient><filter id="a" width="164.992" height="147.547" x=".451" y="58.491" color-interpolation-filters="sRGB" filterUnits="userSpaceOnUse"><feFlood flood-opacity="0" result="BackgroundImageFix"/><feColorMatrix in="SourceAlpha" result="hardAlpha" values="0 0 0 0 0 0 0 0 0 0 0 0 0 0 0 0 0 0 127 0"/><feOffset/><feGaussianBlur stdDeviation="10"/><feComposite in2="hardAlpha" operator="out"/><feColorMatrix values="0 0 0 0 0.8423 0 0 0 0 0.585 0 0 0 0 1 0 0 0 1 0"/><feBlend in2="BackgroundImageFix" result="effect1_dropShadow_1_234"/><feColorMatrix in="SourceAlpha" result="hardAlpha" values="0 0 0 0 0 0 0 0 0 0 0 0 0 0 0 0 0 0 127 0"/><feOffset/><feGaussianBlur stdDeviation="2"/><feComposite in2="hardAlpha" operator="out"/><feColorMatrix values="0 0 0 0 0.8423 0 0 0 0 0.585 0 0 0 0 1 0 0 0 1 0"/><feBlend in2="effect1_dropShadow_1_234" result="effect2_dropShadow_1_234"/><feBlend in="SourceGraphic" in2="effect2_dropShadow_1_234" result="shape"/></filter><filter id="ap" width="150.573" height="137.02" x="185.259" y="21.119" color-interpolation-filters="sRGB" filterUnits="userSpaceOnUse"><feFlood flood-opacity="0" result="BackgroundImageFix"/><feColorMatrix in="SourceAlpha" result="hardAlpha" values="0 0 0 0 0 0 0 0 0 0 0 0 0 0 0 0 0 0 127 0"/><feOffset/><feGaussianBlur stdDeviation="10"/><feComposite in2="hardAlpha" operator="out"/><feColorMatrix values="0 0 0 0 0.8423 0 0 0 0 0.585 0 0 0 0 1 0 0 0 1 0"/><feBlend in2="BackgroundImageFix" result="effect1_dropShadow_1_234"/><feColorMatrix in="SourceAlpha" result="hardAlpha" values="0 0 0 0 0 0 0 0 0 0 0 0 0 0 0 0 0 0 127 0"/><feOffset/><feGaussianBlur stdDeviation="2"/><feComposite in2="hardAlpha" operator="out"/><feColorMatrix values="0 0 0 0 0.8423 0 0 0 0 0.585 0 0 0 0 1 0 0 0 1 0"/><feBlend in2="effect1_dropShadow_1_234" result="effect2_dropShadow_1_234"/><feBlend in="SourceGraphic" in2="effect2_dropShadow_1_234" result="shape"/></filter><filter id="ar" width="237.768" height="245.071" x="115.823" y="-54.773" color-interpolation-filters="sRGB" filterUnits="userSpaceOnUse"><feFlood flood-opacity="0" result="BackgroundImageFix"/><feGaussianBlur in="BackgroundImageFix" stdDeviation="50"/><feComposite in2="SourceAlpha" operator="in" result="effect1_backgroundBlur_1_234"/><feColorMatrix in="SourceAlpha" result="hardAlpha" values="0 0 0 0 0 0 0 0 0 0 0 0 0 0 0 0 0 0 127 0"/><feOffset/><feGaussianBlur stdDeviation="10"/><feComposite in2="hardAlpha" operator="out"/><feColorMatrix values="0 0 0 0 0.544167 0 0 0 0 1 0 0 0 0 1 0 0 0 1 0"/><feBlend in2="effect1_backgroundBlur_1_234" result="effect2_dropShadow_1_234"/><feBlend in="SourceGraphic" in2="effect2_dropShadow_1_234" result="shape"/></filter><filter id="bi" width="225.74" height="230.72" x="155.965" y="4.032" color-interpolation-filters="sRGB" filterUnits="userSpaceOnUse"><feFlood flood-opacity="0" result="BackgroundImageFix"/><feGaussianBlur in="BackgroundImageFix" stdDeviation="50"/><feComposite in2="SourceAlpha" operator="in" result="effect1_backgroundBlur_1_234"/><feColorMatrix in="SourceAlpha" result="hardAlpha" values="0 0 0 0 0 0 0 0 0 0 0 0 0 0 0 0 0 0 127 0"/><feOffset/><feGaussianBlur stdDeviation="10"/><feComposite in2="hardAlpha" operator="out"/><feColorMatrix values="0 0 0 0 0.544167 0 0 0 0 1 0 0 0 0 1 0 0 0 1 0"/><feBlend in2="effect1_backgroundBlur_1_234" result="effect2_dropShadow_1_234"/><feBlend in="SourceGraphic" in2="effect2_dropShadow_1_234" result="shape"/></filter><filter id="cd" width="116.723" height="106.877" x="40.547" y="160.332" color-interpolation-filters="sRGB" filterUnits="userSpaceOnUse"><feFlood flood-opacity="0" result="BackgroundImageFix"/><feColorMatrix in="SourceAlpha" result="hardAlpha" values="0 0 0 0 0 0 0 0 0 0 0 0 0 0 0 0 0 0 127 0"/><feOffset/><feGaussianBlur stdDeviation="1.574"/><feColorMatrix values="0 0 0 0 0.635294 0 0 0 0 0.176471 0 0 0 0 0.968627 0 0 0 0.1 0"/><feBlend in2="BackgroundImageFix" result="effect1_dropShadow_1_234"/><feColorMatrix in="SourceAlpha" result="hardAlpha" values="0 0 0 0 0 0 0 0 0 0 0 0 0 0 0 0 0 0 127 0"/><feOffset/><feGaussianBlur stdDeviation="3.259"/><feColorMatrix values="0 0 0 0 0.635294 0 0 0 0 0.176471 0 0 0 0 0.968627 0 0 0 0.1 0"/><feBlend in2="effect1_dropShadow_1_234" result="effect2_dropShadow_1_234"/><feColorMatrix in="SourceAlpha" result="hardAlpha" values="0 0 0 0 0 0 0 0 0 0 0 0 0 0 0 0 0 0 127 0"/><feOffset/><feGaussianBlur stdDeviation="6.5"/><feColorMatrix values="0 0 0 0 0.635294 0 0 0 0 0.176471 0 0 0 0 0.968627 0 0 0 0.1 0"/><feBlend in2="effect2_dropShadow_1_234" result="effect3_dropShadow_1_234"/><feColorMatrix in="SourceAlpha" result="hardAlpha" values="0 0 0 0 0 0 0 0 0 0 0 0 0 0 0 0 0 0 127 0"/><feOffset/><feGaussianBlur stdDeviation="12.741"/><feColorMatrix values="0 0 0 0 0.635294 0 0 0 0 0.176471 0 0 0 0 0.968627 0 0 0 0.1 0"/><feBlend in2="effect3_dropShadow_1_234" result="effect4_dropShadow_1_234"/><feColorMatrix in="SourceAlpha" result="hardAlpha" values="0 0 0 0 0 0 0 0 0 0 0 0 0 0 0 0 0 0 127 0"/><feOffset/><feGaussianBlur stdDeviation="23.426"/><feColorMatrix values="0 0 0 0 0.635294 0 0 0 0 0.176471 0 0 0 0 0.968627 0 0 0 0.1 0"/><feBlend in2="effect4_dropShadow_1_234" result="effect5_dropShadow_1_234"/><feColorMatrix in="SourceAlpha" result="hardAlpha" values="0 0 0 0 0 0 0 0 0 0 0 0 0 0 0 0 0 0 127 0"/><feMorphology in="SourceAlpha" operator="dilate" radius="9" result="effect6_dropShadow_1_234"/><feOffset/><feGaussianBlur stdDeviation="9.5"/><feComposite in2="hardAlpha" operator="out"/><feColorMatrix values="0 0 0 0 0.635294 0 0 0 0 0.176471 0 0 0 0 0.968627 0 0 0 0.1 0"/><feBlend in2="effect5_dropShadow_1_234" result="effect6_dropShadow_1_234"/><feBlend in="SourceGraphic" in2="effect6_dropShadow_1_234" result="shape"/></filter></defs></svg>