<svg xmlns="http://www.w3.org/2000/svg" width="201" height="200" fill="none"><g filter="url(#a)"><path fill="#815C98" d="M43 40.7v117.6a14.8 14.8 0 0 0 4.247 10.394A14.4 14.4 0 0 0 57.5 173h87a14.4 14.4 0 0 0 10.253-4.306A14.802 14.802 0 0 0 159 158.3V72.614c0-1.959-.386-3.897-1.136-5.702a14.708 14.708 0 0 0-3.228-4.809l-32.19-31.914A14.399 14.399 0 0 0 112.31 26H57.5a14.4 14.4 0 0 0-10.253 4.305A14.803 14.803 0 0 0 43 40.7Z"/></g><path fill="#D795FF" d="M100.139 134.996c-9.253 0-17.32-2.902-24.2-8.706-6.584-5.554-10.512-12.487-11.785-20.799a.978.978 0 0 1 .976-1.12h2.628c.49 0 .906.355.997.836 1.36 7.154 4.882 13.131 10.565 17.933 5.902 4.987 12.842 7.481 20.819 7.481 8.886 0 16.422-2.971 22.61-8.912 6.188-5.941 9.284-13.179 9.287-21.713.003-8.534-3.093-15.772-9.287-21.713-6.194-5.941-13.73-8.912-22.61-8.912-4.718 0-9.15.957-13.296 2.87a35.23 35.23 0 0 0-9.333 6.26c-.642.599-.203 1.637.674 1.637h7.982a1 1 0 0 1 1 1v2.375a1 1 0 0 1-1 1H69.242a1 1 0 0 1-1-1V67.348a1 1 0 0 1 1-1H71.8a1 1 0 0 1 1 1v6.941c0 .904 1.12 1.36 1.783.745 3.112-2.879 6.646-5.185 10.602-6.919 4.733-2.073 9.718-3.113 14.955-3.119 5.052 0 9.788.913 14.208 2.739 4.42 1.826 8.281 4.325 11.583 7.499 3.302 3.173 5.905 6.88 7.81 11.12 1.905 4.242 2.856 8.789 2.853 13.642-.003 4.853-.954 9.401-2.853 13.641-1.899 4.241-4.502 7.948-7.81 11.122-3.308 3.173-7.169 5.673-11.583 7.498-4.414 1.826-9.15 2.739-14.208 2.739Zm15.292-18.804a1 1 0 0 1-1.385 0l-15.618-14.991a.998.998 0 0 1-.307-.721V79.121a1 1 0 0 1 1-1h2.556a1 1 0 0 1 1 1V98.66c0 .272.111.533.308.721l14.225 13.658a1 1 0 0 1 0 1.442l-1.779 1.711Z"/><defs><filter id="a" width="136.033" height="167.033" x="32.984" y="15.984" color-interpolation-filters="sRGB" filterUnits="userSpaceOnUse"><feFlood flood-opacity="0" result="BackgroundImageFix"/><feGaussianBlur in="BackgroundImageFix" stdDeviation="5.008"/><feComposite in2="SourceAlpha" operator="in" result="effect1_backgroundBlur_1_1680"/><feBlend in="SourceGraphic" in2="effect1_backgroundBlur_1_1680" result="shape"/><feColorMatrix in="SourceAlpha" result="hardAlpha" values="0 0 0 0 0 0 0 0 0 0 0 0 0 0 0 0 0 0 127 0"/><feOffset dy="2.504"/><feGaussianBlur stdDeviation="5.008"/><feComposite in2="hardAlpha" k2="-1" k3="1" operator="arithmetic"/><feColorMatrix values="0 0 0 0 1 0 0 0 0 1 0 0 0 0 1 0 0 0 0.3 0"/><feBlend in2="shape" result="effect2_innerShadow_1_1680"/><feColorMatrix in="SourceAlpha" result="hardAlpha" values="0 0 0 0 0 0 0 0 0 0 0 0 0 0 0 0 0 0 127 0"/><feOffset dy="-2.504"/><feGaussianBlur stdDeviation="5.008"/><feComposite in2="hardAlpha" k2="-1" k3="1" operator="arithmetic"/><feColorMatrix values="0 0 0 0 1 0 0 0 0 1 0 0 0 0 1 0 0 0 0.5 0"/><feBlend in2="effect2_innerShadow_1_1680" result="effect3_innerShadow_1_1680"/><feColorMatrix in="SourceAlpha" result="hardAlpha" values="0 0 0 0 0 0 0 0 0 0 0 0 0 0 0 0 0 0 127 0"/><feOffset dy="-2.504"/><feGaussianBlur stdDeviation="1.252"/><feComposite in2="hardAlpha" k2="-1" k3="1" operator="arithmetic"/><feColorMatrix values="0 0 0 0 0.879 0 0 0 0 0.725 0 0 0 0 1 0 0 0 0.5 0"/><feBlend in2="effect3_innerShadow_1_1680" result="effect4_innerShadow_1_1680"/></filter></defs></svg>