<svg xmlns="http://www.w3.org/2000/svg" width="102" height="17" fill="none"><g clip-path="url(#a)"><path fill="#fff" d="M27.114 6.972H24.81l-.45 1.547h-1.824l2.366-7.043h2.192L29.46 8.52h-1.903l-.444-1.547Zm-1.957-1.289h1.605l-.78-2.713h-.04l-.785 2.713ZM31.794 1.124h-1.728v7.394h1.728V1.124ZM36.104 3.009c.686 0 1.22.244 1.6.732.385.488.577 1.173.577 2.054 0 .882-.19 1.567-.571 2.055-.378.491-.907.737-1.587.737-.816 0-1.371-.333-1.664-1h-.034v2.582h-1.728V3.082h1.718v.952h.034a1.59 1.59 0 0 1 .64-.752c.29-.182.628-.273 1.015-.273Zm-.64 4.217a.897.897 0 0 0 .762-.386c.188-.26.283-.609.283-1.045 0-.432-.095-.777-.283-1.034a.901.901 0 0 0-.761-.39.9.9 0 0 0-.762.39c-.189.26-.283.607-.283 1.04 0 .435.094.782.283 1.04a.897.897 0 0 0 .761.385ZM39.008 1.124h1.694v2.982h.034c.293-.742.876-1.113 1.752-1.113.605 0 1.08.18 1.425.542.345.364.517.867.517 1.508v3.475h-1.732V5.414c0-.312-.085-.56-.254-.742-.172-.18-.407-.269-.703-.269a.953.953 0 0 0-.722.293c-.189.199-.283.453-.283.762v3.06h-1.728V1.124ZM47.505 7.387c.287 0 .527-.077.722-.23a.723.723 0 0 0 .308-.6v-.376l-1 .069c-.508.036-.762.227-.762.576 0 .172.067.309.2.41.13.1.308.15.532.15Zm-.61 1.2c-.517 0-.95-.153-1.298-.458a1.497 1.497 0 0 1-.537-1.186c0-1.019.734-1.573 2.201-1.664l1.274-.079v-.312c0-.218-.073-.387-.22-.507-.142-.118-.338-.176-.585-.176a.96.96 0 0 0-.576.166.618.618 0 0 0-.259.42h-1.557c.023-.55.258-.991.703-1.323.45-.335 1.04-.503 1.772-.503.722 0 1.304.168 1.747.503.442.338.664.78.664 1.327v3.72h-1.68v-.782h-.033a1.497 1.497 0 0 1-.67.63c-.292.15-.607.224-.946.224ZM53.109 3.086h1.679V4.13h.034c.107-.348.3-.624.58-.83a1.6 1.6 0 0 1 .972-.307c.404 0 .737.1 1 .298.264.202.435.486.513.854h.034c.108-.351.313-.631.615-.84.306-.208.66-.312 1.064-.312.53 0 .96.17 1.288.508.329.342.493.787.493 1.337v3.68h-1.728v-3.24c0-.586-.26-.88-.78-.88a.734.734 0 0 0-.58.245c-.147.162-.22.38-.22.654v3.22h-1.65V5.254c0-.273-.069-.485-.205-.635-.134-.146-.326-.22-.576-.22a.75.75 0 0 0-.586.25c-.146.165-.22.385-.22.659v3.21H53.11V3.087ZM64.456 7.387c.287 0 .528-.077.723-.23a.723.723 0 0 0 .307-.6v-.376l-1 .069c-.508.036-.762.227-.762.576 0 .172.067.309.2.41.13.1.308.15.532.15Zm-.61 1.2c-.517 0-.95-.153-1.298-.458a1.497 1.497 0 0 1-.537-1.186c0-1.019.734-1.573 2.201-1.664l1.274-.079v-.312c0-.218-.073-.387-.22-.507-.142-.118-.338-.176-.585-.176a.96.96 0 0 0-.576.166.62.62 0 0 0-.259.42H62.29c.023-.55.258-.991.703-1.323.45-.335 1.04-.503 1.772-.503.722 0 1.305.168 1.747.503.442.338.664.78.664 1.327v3.72h-1.68v-.782h-.033a1.497 1.497 0 0 1-.669.63c-.293.15-.608.224-.947.224ZM68.039 3.082h1.679v1.02h.034c.198-.729.626-1.093 1.284-1.093.156 0 .302.022.439.068v1.484a1.398 1.398 0 0 0-.557-.098c-.37 0-.655.101-.854.303-.198.205-.297.498-.297.878v2.87h-1.728V3.082ZM75.41 3.086h1.933L75.39 5.414l2.064 3.104h-1.99l-1.352-2.07-.332.386v1.684h-1.728V1.124h1.728v4.04h.034l1.596-2.078Z"/><path fill="#fff" d="M80.08 4.195a.958.958 0 0 0-.698.278 1.08 1.08 0 0 0-.317.713h2.02c-.016-.3-.115-.54-.297-.722a.979.979 0 0 0-.708-.269Zm2.606 2.61a1.923 1.923 0 0 1-.82 1.328c-.465.332-1.049.498-1.752.498-.859 0-1.532-.248-2.02-.746-.489-.498-.733-1.185-.733-2.06s.243-1.572.728-2.089c.484-.514 1.14-.77 1.966-.77.81 0 1.458.245 1.943.736.482.495.722 1.155.722 1.982v.492h-3.675v.108c0 .332.101.6.303.805.202.208.465.313.79.313.518 0 .846-.199.986-.596h1.562ZM85.576 1.889v1.2h.98v1.279h-.98v2.318c0 .38.21.57.63.57.12 0 .237-.007.35-.023v1.23a3.487 3.487 0 0 1-.76.067c-.697 0-1.196-.117-1.499-.351-.3-.23-.449-.613-.449-1.147V4.368h-.727v-1.28h.727v-1.2h1.728ZM87.314 3.087h1.733v5.432h-1.733V3.087Zm.864-.45a.866.866 0 0 1-.625-.243.797.797 0 0 1-.263-.61c0-.241.087-.445.263-.61a.865.865 0 0 1 .625-.245c.247 0 .457.082.63.245.175.165.263.369.263.61a.797.797 0 0 1-.264.61.874.874 0 0 1-.63.244ZM89.926 3.086h1.679v1.02h.034c.3-.742.877-1.113 1.733-1.113.605 0 1.08.18 1.425.542.341.36.512.862.512 1.503v3.48h-1.732v-3.11c0-.314-.082-.56-.245-.736-.165-.18-.396-.269-.693-.269a.93.93 0 0 0-.712.293c-.182.196-.273.448-.273.757v3.065h-1.728V3.086ZM98.794 7.177c.325 0 .58-.12.766-.361.189-.244.283-.585.283-1.02 0-.436-.094-.783-.283-1.04a.902.902 0 0 0-.766-.386.893.893 0 0 0-.762.381c-.188.257-.283.604-.283 1.04 0 .439.093.78.279 1.025.185.24.44.36.766.36Zm-.03 3.353c-.767 0-1.39-.15-1.869-.45-.485-.302-.738-.705-.761-1.21h1.678c.037.153.147.277.333.37.182.092.398.138.649.138.315 0 .568-.075.756-.225a.757.757 0 0 0 .283-.62v-1.03H99.8c-.11.29-.314.521-.61.694-.3.175-.647.263-1.044.263-.654 0-1.177-.236-1.567-.708-.397-.481-.595-1.138-.595-1.971 0-.862.195-1.54.585-2.03.39-.495.926-.742 1.606-.742.384 0 .724.094 1.02.283.286.185.493.433.62.742h.029v-.952h1.723v5.324c0 .645-.256 1.159-.767 1.543-.51.387-1.189.58-2.034.58ZM24.858 13.047H23.33l-.403 1.115h-.366l1.362-3.64h.343l1.36 3.64h-.363l-.404-1.115Zm-1.425-.297h1.322l-.653-1.801h-.016l-.653 1.8ZM28.155 14.165h-.442l-1.331-1.33h-.016v1.33h-.33v-2.716h.33v1.222h.016l1.298-1.223h.424L26.72 12.74l1.435 1.425ZM30.475 11.728h-.928v2.437h-.33v-2.437h-.929v-.28h2.187v.28ZM31.11 15.11a.675.675 0 0 1-.166-.02v-.285c.05.012.105.018.164.018a.42.42 0 0 0 .3-.109c.076-.07.144-.191.205-.363l.06-.169-1.021-2.734h.358l.832 2.379h.008l.834-2.379h.354l-1.06 2.848c-.117.32-.237.535-.358.645-.12.113-.289.17-.51.17ZM34.251 13.905a.88.88 0 0 0 .61-.22.69.69 0 0 0 .248-.54v-.3l-.795.056c-.466.03-.698.2-.698.512a.43.43 0 0 0 .176.356c.118.09.271.136.46.136Zm-.065.292c-.271 0-.49-.072-.659-.216a.72.72 0 0 1-.252-.57c0-.473.333-.733 1-.78l.834-.055v-.232c0-.199-.06-.353-.18-.462-.12-.11-.29-.164-.509-.164a.78.78 0 0 0-.471.136.594.594 0 0 0-.233.381h-.32a.769.769 0 0 1 .31-.585c.192-.153.43-.23.717-.23.31 0 .559.081.744.243.183.161.275.379.275.653v1.851h-.318v-.52h-.008a.878.878 0 0 1-.363.399c-.17.101-.359.151-.567.151ZM36.677 12.997c-.03.39-.092.676-.186.858a.57.57 0 0 1-.69.307v-.305c.041.014.087.02.137.02.133 0 .234-.082.303-.247.059-.141.099-.356.121-.646.038-.403.074-.915.106-1.536h1.737v2.717h-.33v-2.437h-1.107c-.027.518-.057.941-.09 1.269ZM39.184 12.654v1.23h.588a.665.665 0 0 0 .476-.168.584.584 0 0 0 .177-.447.583.583 0 0 0-.179-.449.663.663 0 0 0-.474-.166h-.588Zm-.33-1.206h.33v.923h.588c.3 0 .538.081.716.243.18.162.27.381.27.655 0 .273-.09.49-.27.654-.178.161-.417.242-.716.242h-.918v-2.716ZM43.114 12.894H41.59v1.27h-.33v-2.716h.33v1.166h1.524v-1.166h.33v2.717h-.33v-1.271ZM46.403 11.448h.33v2.717h-.33v-2.716Zm-1.978 1.206v1.23h.588a.665.665 0 0 0 .477-.168.584.584 0 0 0 .176-.447.583.583 0 0 0-.179-.449.663.663 0 0 0-.474-.166h-.588Zm-.33-1.206h.33v.923h.588c.3 0 .538.081.717.243.18.162.27.381.27.655 0 .273-.09.49-.27.654-.179.161-.418.242-.717.242h-.918v-2.716ZM48.014 10.316c0 .151.046.274.137.368a.489.489 0 0 0 .368.144.48.48 0 0 0 .366-.144.51.51 0 0 0 .136-.368h.254c0 .216-.069.39-.206.522a.765.765 0 0 1-.55.2c-.229 0-.412-.067-.55-.2a.683.683 0 0 1-.21-.522h.255Zm-.63 3.859v-2.717h.33v2.197h.016l1.543-2.197h.33v2.717h-.33v-2.197h-.018l-1.54 2.197h-.331ZM51.397 14.165v-2.716h.395l1.075 2.274h.015l1.072-2.275h.383v2.717h-.333v-2.111h-.015l-.994 2.058h-.26l-.993-2.058h-.015v2.11h-.33ZM55.853 13.905a.88.88 0 0 0 .61-.22.688.688 0 0 0 .248-.54v-.3l-.795.056c-.465.03-.698.2-.698.512 0 .146.058.265.176.356a.73.73 0 0 0 .46.136Zm-.065.292c-.27 0-.49-.072-.658-.216a.72.72 0 0 1-.253-.57c0-.473.333-.733.999-.78l.835-.055v-.232c0-.199-.06-.353-.18-.462-.12-.11-.29-.164-.509-.164a.78.78 0 0 0-.471.136.592.592 0 0 0-.232.381h-.32a.768.768 0 0 1 .31-.585c.191-.153.43-.23.716-.23.311 0 .559.081.744.243.183.161.275.379.275.653v1.851h-.318v-.52h-.008a.878.878 0 0 1-.363.399 1.09 1.09 0 0 1-.567.151ZM58.926 11.42c.343 0 .621.129.837.384.213.256.32.59.32 1.004 0 .414-.107.749-.32 1.006-.212.256-.49.383-.833.383-.213 0-.403-.054-.57-.163a.936.936 0 0 1-.358-.427h-.007v1.45h-.333v-3.606h.315v.562h.008a.917.917 0 0 1 .363-.426c.173-.111.366-.166.578-.166Zm-.059 2.477a.78.78 0 0 0 .636-.297c.16-.2.24-.464.24-.79s-.08-.59-.24-.792a.776.776 0 0 0-.636-.3.77.77 0 0 0-.63.303c-.163.203-.245.465-.245.787s.082.585.245.787a.77.77 0 0 0 .63.302ZM62.716 14.165h-.441l-1.332-1.33h-.015v1.33h-.33v-2.716h.33v1.222h.015l1.299-1.223h.423l-1.384 1.292 1.435 1.425ZM64.109 11.716a.787.787 0 0 0-.6.25c-.159.164-.245.382-.26.652h1.69c-.004-.27-.081-.488-.233-.653a.774.774 0 0 0-.597-.25Zm1.142 1.682a.872.872 0 0 1-.368.573 1.234 1.234 0 0 1-.75.226c-.376 0-.675-.123-.897-.37-.222-.25-.333-.586-.333-1.012 0-.422.11-.76.33-1.014.223-.253.516-.38.88-.38.357 0 .642.119.856.358.212.24.318.562.318.966v.146h-2.039v.018c0 .306.082.548.245.726.162.178.378.267.648.267a.9.9 0 0 0 .512-.14.611.611 0 0 0 .268-.364h.33ZM67.712 11.728h-.928v2.437h-.33v-2.437h-.929v-.28h2.187v.28ZM68.139 14.165v-2.716h.33v2.196h.015l1.544-2.197h.33v2.717h-.33v-2.197h-.018l-1.54 2.197h-.331ZM72.86 12.894h-1.523v1.27h-.33v-2.716h.33v1.166h1.524v-1.166h.33v2.717h-.33v-1.271ZM74.172 11.728v2.437h-.33v-2.716h1.722v.28h-1.392ZM77.197 14.165v-2.716h.33v2.196h.015l1.543-2.197h.331v2.717h-.33v-2.197h-.018l-1.541 2.197h-.33ZM83.037 11.728H81.54v2.437h-.33v-2.716h2.158v2.716h-.33v-2.437ZM85.282 11.42c.343 0 .622.129.838.384.213.256.32.59.32 1.004 0 .414-.107.749-.32 1.006a1.03 1.03 0 0 1-.833.383c-.213 0-.403-.054-.57-.163a.935.935 0 0 1-.358-.427h-.007v1.45h-.333v-3.606h.315v.562h.007a.917.917 0 0 1 .364-.426c.173-.111.365-.166.577-.166Zm-.058 2.477a.78.78 0 0 0 .636-.297c.16-.2.24-.464.24-.79s-.08-.59-.24-.792a.776.776 0 0 0-.636-.3.77.77 0 0 0-.63.303c-.163.203-.245.465-.245.787s.082.585.245.787a.77.77 0 0 0 .63.302ZM88.051 14.197c-.373 0-.671-.126-.895-.378-.225-.25-.338-.588-.338-1.011 0-.422.113-.76.338-1.012.224-.25.522-.375.895-.375.375 0 .675.125.898.375.226.252.338.59.338 1.012 0 .422-.112.759-.338 1.01-.223.253-.523.38-.898.38Zm0-.3c.278 0 .496-.097.656-.29.16-.195.24-.461.24-.8 0-.337-.08-.604-.24-.799-.16-.193-.378-.29-.656-.29-.275 0-.493.097-.653.29-.16.195-.24.462-.24.8s.08.604.24.8c.16.192.378.29.653.29ZM91.659 11.728h-1.18c-.026.481-.057.904-.094 1.269-.036.425-.117.716-.245.872v.016h1.519v-2.157Zm-2.135 3.156v-1h.22c.182-.117.292-.417.33-.9.05-.622.086-1.134.106-1.536h1.811v2.437h.439v.999h-.313v-.72h-2.28v.72h-.313ZM93.706 13.905a.879.879 0 0 0 .61-.22.688.688 0 0 0 .247-.54v-.3l-.794.056c-.466.03-.699.2-.699.512a.43.43 0 0 0 .177.356c.118.09.27.136.459.136Zm-.065.292c-.271 0-.49-.072-.659-.216a.72.72 0 0 1-.252-.57c0-.473.333-.733.999-.78l.834-.055v-.232c0-.199-.059-.353-.179-.462-.12-.11-.29-.164-.51-.164a.78.78 0 0 0-.47.136.594.594 0 0 0-.233.381h-.32a.769.769 0 0 1 .31-.585c.192-.153.43-.23.717-.23.31 0 .559.081.743.243.184.161.275.379.275.653v1.851h-.317v-.52h-.008a.878.878 0 0 1-.363.399c-.17.101-.36.151-.567.151ZM98.92 14.165h-.44l-1.218-1.33h-.015v1.33h-.33v-1.33h-.015l-1.218 1.33h-.43l1.315-1.418-1.274-1.299h.421l1.186 1.223h.015v-1.223h.33v1.223h.016l1.185-1.223h.419l-1.27 1.292 1.323 1.425ZM99.31 14.165v-2.716h.331v2.196h.016l1.543-2.197h.331v2.717h-.331v-2.197h-.018l-1.54 2.197h-.331Z"/><path fill="url(#b)" fill-rule="evenodd" d="m12.887 9.559.039-.157 1.14 3.5-.137.197v-.02l-.04.079c-3.283 4.365-10.245 3.52-12.82-.925C-1.666 7.513 1.107 1.28 6.455.16A9.661 9.661 0 0 1 8.148.002c2.536 0 5.21 1.101 6.568 3.323l1.061-2.89h3.304l-2.497 6.941 1.612 4.484c.177.452.669.708 1.12.59l.139-.04.884 2.97-1.061.275c-1.515.374-3.068-.393-3.638-1.848a5.27 5.27 0 0 1-.374-.826l-.59-1.554-.04-.059v-.02L13.32 7.357c-.727-2.203-2.084-3.265-3.166-3.697a4.636 4.636 0 0 0-1.966-.413c-2.733 0-4.936 2.183-4.936 4.857 0 2.674 2.203 4.857 4.936 4.857a4.932 4.932 0 0 0 4.7-3.402Z" clip-rule="evenodd"/></g><defs xmlns="http://www.w3.org/2000/svg"><linearGradient id="b" x1="0%" x2="100%" y1="0%" y2="0" gradientUnits="userSpaceOnUse"><stop offset="0%" stop-color="#7A5FFF"><animate attributeName="stop-color" values="#7A5FFF; #00e824; #7A5FFF" dur="4s" repeatCount="indefinite"/></stop><stop offset="100%" stop-color="#00e824"><animate attributeName="stop-color" values="#00e824; #7A5FFF; #00e824" dur="3s" repeatCount="indefinite"/></stop></linearGradient><clipPath id="a"><path fill="#fff" d="M0 0h101.523v16.03H0z"/></clipPath></defs></svg>