<svg xmlns="http://www.w3.org/2000/svg" width="13" height="23" fill="none"><path fill="#F8EDFF" d="M6.251 15.737c-.497 0-.917-.172-1.259-.515-.341-.343-.492-.746-.451-1.21.062-.848.27-1.584.622-2.21.352-.625.912-1.27 1.68-1.936.85-.727 1.497-1.357 1.943-1.892a2.773 2.773 0 0 0 .669-1.83c0-.828-.285-1.514-.855-2.058-.57-.545-1.363-.818-2.38-.818-.663 0-1.229.137-1.696.41-.466.272-.845.61-1.134 1.013-.29.403-.648.676-1.072.817a1.718 1.718 0 0 1-1.23-.03C.612 5.276.285 4.943.11 4.479c-.175-.464-.14-.898.109-1.301.6-.908 1.41-1.665 2.425-2.27C3.66.303 4.852 0 6.22 0c2.177 0 3.852.59 5.023 1.77C12.415 2.95 13.001 4.367 13 6.022c0 1.01-.223 1.872-.668 2.588-.445.717-1.145 1.529-2.1 2.436-.705.646-1.203 1.17-1.493 1.574a3.52 3.52 0 0 0-.59 1.392c-.084.504-.301.918-.654 1.24a1.782 1.782 0 0 1-1.244.485ZM6.221 23a2.43 2.43 0 0 1-1.759-.712c-.487-.474-.73-1.044-.73-1.71 0-.665.244-1.235.731-1.71a2.424 2.424 0 0 1 1.757-.71c.684 0 1.27.237 1.758.712.488.474.73 1.044.73 1.709 0 .666-.244 1.236-.731 1.71A2.425 2.425 0 0 1 6.22 23Z"/></svg>