<svg xmlns="http://www.w3.org/2000/svg" width="201" height="200" fill="none"><g fill="#815C98" filter="url(#a)"><path d="M172.368 28.968a1.536 1.536 0 0 0-1.15-1.186c-18.974-4.64-62.816 11.892-86.568 35.635a102.694 102.694 0 0 0-11.543 13.639c-7.325-.648-14.65-.107-20.892 2.614-17.614 7.753-22.742 27.981-24.17 36.682a3.123 3.123 0 0 0 3.417 3.628l28.285-3.119c.02 2.132.149 4.262.385 6.382a6.324 6.324 0 0 0 1.847 3.887l10.953 10.927a6.345 6.345 0 0 0 3.888 1.847 62.89 62.89 0 0 0 6.346.385l-3.104 28.25a3.124 3.124 0 0 0 3.629 3.417c8.685-1.393 28.949-6.521 36.656-24.135 2.721-6.242 3.278-13.531 2.65-20.82a103.034 103.034 0 0 0 13.674-11.546c23.827-23.707 40.265-66.57 35.697-86.487Zm-59.469 58.205a15.55 15.55 0 1 1 21.984 0 15.54 15.54 0 0 1-16.942 3.373 15.525 15.525 0 0 1-5.042-3.373Z"/><path d="M71.774 145.618c-1.776 1.779-4.623 2.472-8.05 3.065-7.701 1.312-14.501-5.342-13.118-13.127.528-2.951 2.09-7.088 3.062-8.06a1.414 1.414 0 0 0-1.183-2.413 19.438 19.438 0 0 0-11.38 5.546c-7.617 7.623-8.336 35.907-8.336 35.907s28.301-.719 35.917-8.342a19.337 19.337 0 0 0 5.55-11.39c.12-1.354-1.53-2.161-2.462-1.186Z"/></g><defs><filter id="a" width="165.164" height="165.033" x="17.984" y="16.984" color-interpolation-filters="sRGB" filterUnits="userSpaceOnUse"><feFlood flood-opacity="0" result="BackgroundImageFix"/><feGaussianBlur in="BackgroundImageFix" stdDeviation="5.008"/><feComposite in2="SourceAlpha" operator="in" result="effect1_backgroundBlur_1_1671"/><feBlend in="SourceGraphic" in2="effect1_backgroundBlur_1_1671" result="shape"/><feColorMatrix in="SourceAlpha" result="hardAlpha" values="0 0 0 0 0 0 0 0 0 0 0 0 0 0 0 0 0 0 127 0"/><feOffset dy="2.504"/><feGaussianBlur stdDeviation="5.008"/><feComposite in2="hardAlpha" k2="-1" k3="1" operator="arithmetic"/><feColorMatrix values="0 0 0 0 1 0 0 0 0 1 0 0 0 0 1 0 0 0 0.3 0"/><feBlend in2="shape" result="effect2_innerShadow_1_1671"/><feColorMatrix in="SourceAlpha" result="hardAlpha" values="0 0 0 0 0 0 0 0 0 0 0 0 0 0 0 0 0 0 127 0"/><feOffset dy="-2.504"/><feGaussianBlur stdDeviation="5.008"/><feComposite in2="hardAlpha" k2="-1" k3="1" operator="arithmetic"/><feColorMatrix values="0 0 0 0 1 0 0 0 0 1 0 0 0 0 1 0 0 0 0.5 0"/><feBlend in2="effect2_innerShadow_1_1671" result="effect3_innerShadow_1_1671"/><feColorMatrix in="SourceAlpha" result="hardAlpha" values="0 0 0 0 0 0 0 0 0 0 0 0 0 0 0 0 0 0 127 0"/><feOffset dy="-2.504"/><feGaussianBlur stdDeviation="1.252"/><feComposite in2="hardAlpha" k2="-1" k3="1" operator="arithmetic"/><feColorMatrix values="0 0 0 0 0.879 0 0 0 0 0.725 0 0 0 0 1 0 0 0 0.5 0"/><feBlend in2="effect3_innerShadow_1_1671" result="effect4_innerShadow_1_1671"/></filter></defs></svg>