<svg xmlns="http://www.w3.org/2000/svg" width="25" height="24" fill="none"><path fill="#fff" d="m20.267 21-6.3-6.3a6.096 6.096 0 0 1-3.8 1.3c-1.817 0-3.354-.63-4.612-1.888-1.258-1.259-1.888-2.796-1.888-4.612 0-1.817.63-3.354 1.888-4.612S8.35 3.001 10.167 3c1.816 0 3.354.63 4.612 1.888 1.258 1.259 1.887 2.796 1.888 4.612a6.094 6.094 0 0 1-1.3 3.8l6.3 6.3-1.4 1.4Zm-10.1-7c1.25 0 2.312-.438 3.188-1.313.875-.875 1.312-1.938 1.312-3.187 0-1.25-.438-2.313-1.313-3.188-.876-.875-1.938-1.313-3.187-1.312-1.25 0-2.313.438-3.188 1.313-.876.875-1.313 1.938-1.312 3.187 0 1.25.437 2.313 1.313 3.188.875.875 1.937 1.313 3.187 1.312Z"/></svg>