<svg xmlns="http://www.w3.org/2000/svg" width="201" height="200" fill="none"><g fill="#815C98" fill-rule="evenodd" clip-rule="evenodd" filter="url(#a)"><path d="M165.441 153.158c.439.059.877.118 1.315.18l2.203.309c9.592 1.346 18.173-5.965 18.173-15.482v-7.263c0-6.807-4.356-12.878-10.881-15.167a100.82 100.82 0 0 0-23.177-5.166 32.078 32.078 0 0 1 13.28 25.995v9.017c0 2.62-.317 5.157-.913 7.577Zm-33.233-52.253A27.789 27.789 0 0 0 142.833 103c15.153 0 27.437-12.066 27.437-26.95 0-14.885-12.284-26.951-27.437-26.951-.449 0-.895.01-1.338.032a45.365 45.365 0 0 1 4.294 19.33c0 12.7-5.197 24.184-13.581 32.444ZM34.691 153.158c-.438.059-.877.118-1.315.18l-2.203.309C21.58 154.993 13 147.682 13 138.165v-7.263c0-6.807 4.356-12.878 10.882-15.167a100.805 100.805 0 0 1 23.176-5.166 32.08 32.08 0 0 0-13.28 25.995v9.017c0 2.62.318 5.157.913 7.577Zm33.233-52.253A27.785 27.785 0 0 1 57.3 103c-15.153 0-27.437-12.066-27.437-26.95 0-14.885 12.284-26.951 27.437-26.951.448 0 .894.01 1.337.032a45.367 45.367 0 0 0-4.294 19.33c0 12.7 5.197 24.184 13.581 32.444ZM133.707 68.46c0-18.48-14.981-33.46-33.461-33.46-18.48 0-33.46 14.98-33.46 33.46s14.98 33.461 33.46 33.461 33.461-14.981 33.461-33.46ZM59.492 117.731a121.175 121.175 0 0 1 81.509 0 19.996 19.996 0 0 1 13.27 18.831v9.018c0 11.816-10.465 20.892-22.162 19.221l-2.687-.384a206.35 206.35 0 0 0-58.352 0l-2.686.384c-11.697 1.671-22.163-7.405-22.163-19.221v-9.018c0-8.45 5.313-15.989 13.271-18.831Z"/></g><g filter="url(#b)"><path fill="#E9DEFF" d="m67.748 114.365-40.556 36.052a36.06 36.06 0 0 0-14.357-15.899l-3.212-1.907c-3.049-1.811-2.243-6.376 1.247-7.062l56.878-11.184Z"/></g><g filter="url(#c)"><path fill="#D795FF" d="m68.076 114.69-38.079 40.342c6.054 1.793 11.312 5.561 14.91 10.688l4.937 7.031c2.143 3.053 6.957 2.034 7.642-1.618l10.59-56.443Z"/></g><path fill="#D795FF" d="M169.062 28C151.051 28 138 42.716 138 59.047c0 5.215 1.519 10.587 4.185 15.492.496.807.558 1.832.217 2.794l-2.077 6.954c-.465 1.677.961 2.919 2.542 2.422l6.262-1.863c1.705-.559 3.038.155 4.622 1.118C158.277 88.634 163.916 90 169 90c15.376 0 31-11.89 31-31.047C200 42.437 186.67 28 169.062 28Z"/><path fill="#fff" d="M181.755 63.654c-2.605 0-4.697-2.128-4.697-4.697a4.683 4.683 0 0 1 4.697-4.697 4.682 4.682 0 0 1 4.697 4.697c0 2.569-2.091 4.697-4.697 4.697ZM168.604 63.654c-2.606-.037-4.697-2.128-4.697-4.734 0-2.568 2.128-4.696 4.697-4.66a4.683 4.683 0 0 1 4.697 4.697c0 2.569-2.092 4.697-4.697 4.697ZM155.452 63.654c-2.605-.037-4.697-2.128-4.697-4.734 0-2.568 2.128-4.696 4.697-4.66a4.683 4.683 0 0 1 4.697 4.697c0 2.569-2.092 4.697-4.697 4.697Z"/><defs><filter id="a" width="194.165" height="150.033" x="2.984" y="24.984" color-interpolation-filters="sRGB" filterUnits="userSpaceOnUse"><feFlood flood-opacity="0" result="BackgroundImageFix"/><feGaussianBlur in="BackgroundImageFix" stdDeviation="5.008"/><feComposite in2="SourceAlpha" operator="in" result="effect1_backgroundBlur_1_1649"/><feBlend in="SourceGraphic" in2="effect1_backgroundBlur_1_1649" result="shape"/><feColorMatrix in="SourceAlpha" result="hardAlpha" values="0 0 0 0 0 0 0 0 0 0 0 0 0 0 0 0 0 0 127 0"/><feOffset dy="2.504"/><feGaussianBlur stdDeviation="5.008"/><feComposite in2="hardAlpha" k2="-1" k3="1" operator="arithmetic"/><feColorMatrix values="0 0 0 0 1 0 0 0 0 1 0 0 0 0 1 0 0 0 0.3 0"/><feBlend in2="shape" result="effect2_innerShadow_1_1649"/><feColorMatrix in="SourceAlpha" result="hardAlpha" values="0 0 0 0 0 0 0 0 0 0 0 0 0 0 0 0 0 0 127 0"/><feOffset dy="-2.504"/><feGaussianBlur stdDeviation="5.008"/><feComposite in2="hardAlpha" k2="-1" k3="1" operator="arithmetic"/><feColorMatrix values="0 0 0 0 1 0 0 0 0 1 0 0 0 0 1 0 0 0 0.5 0"/><feBlend in2="effect2_innerShadow_1_1649" result="effect3_innerShadow_1_1649"/><feColorMatrix in="SourceAlpha" result="hardAlpha" values="0 0 0 0 0 0 0 0 0 0 0 0 0 0 0 0 0 0 127 0"/><feOffset dy="-2.504"/><feGaussianBlur stdDeviation="1.252"/><feComposite in2="hardAlpha" k2="-1" k3="1" operator="arithmetic"/><feColorMatrix values="0 0 0 0 0.879 0 0 0 0 0.725 0 0 0 0 1 0 0 0 0.5 0"/><feBlend in2="effect3_innerShadow_1_1649" result="effect4_innerShadow_1_1649"/></filter><filter id="b" width="113.4" height="89.439" x="-18.959" y="87.672" color-interpolation-filters="sRGB" filterUnits="userSpaceOnUse"><feFlood flood-opacity="0" result="BackgroundImageFix"/><feGaussianBlur in="BackgroundImageFix" stdDeviation="13.347"/><feComposite in2="SourceAlpha" operator="in" result="effect1_backgroundBlur_1_1649"/><feBlend in="SourceGraphic" in2="effect1_backgroundBlur_1_1649" result="shape"/><feColorMatrix in="SourceAlpha" result="hardAlpha" values="0 0 0 0 0 0 0 0 0 0 0 0 0 0 0 0 0 0 127 0"/><feOffset dy="1.242"/><feGaussianBlur stdDeviation=".621"/><feComposite in2="hardAlpha" k2="-1" k3="1" operator="arithmetic"/><feColorMatrix values="0 0 0 0 1 0 0 0 0 1 0 0 0 0 1 0 0 0 0.15 0"/><feBlend in2="shape" result="effect2_innerShadow_1_1649"/><feColorMatrix in="SourceAlpha" result="hardAlpha" values="0 0 0 0 0 0 0 0 0 0 0 0 0 0 0 0 0 0 127 0"/><feOffset/><feGaussianBlur stdDeviation="10.553"/><feComposite in2="hardAlpha" k2="-1" k3="1" operator="arithmetic"/><feColorMatrix values="0 0 0 0 1 0 0 0 0 1 0 0 0 0 1 0 0 0 0.05 0"/><feBlend in2="effect2_innerShadow_1_1649" result="effect3_innerShadow_1_1649"/></filter><filter id="c" width="96.431" height="118.215" x=".821" y="85.514" color-interpolation-filters="sRGB" filterUnits="userSpaceOnUse"><feFlood flood-opacity="0" result="BackgroundImageFix"/><feGaussianBlur in="BackgroundImageFix" stdDeviation="14.588"/><feComposite in2="SourceAlpha" operator="in" result="effect1_backgroundBlur_1_1649"/><feBlend in="SourceGraphic" in2="effect1_backgroundBlur_1_1649" result="shape"/><feColorMatrix in="SourceAlpha" result="hardAlpha" values="0 0 0 0 0 0 0 0 0 0 0 0 0 0 0 0 0 0 127 0"/><feOffset/><feGaussianBlur stdDeviation="10.553"/><feComposite in2="hardAlpha" k2="-1" k3="1" operator="arithmetic"/><feColorMatrix values="0 0 0 0 1 0 0 0 0 1 0 0 0 0 1 0 0 0 0.05 0"/><feBlend in2="shape" result="effect2_innerShadow_1_1649"/></filter></defs></svg>