<svg xmlns="http://www.w3.org/2000/svg" width="27" height="21" fill="none"><path fill="#fff" d="M26.373 1.369c.182-.781 0-1.354-.859-1.354H22.67c-.724 0-1.055.495-1.237 1.04 0 0-1.447 4.569-3.497 7.531-.661.862-.964 1.135-1.324 1.135-.18 0-.443-.273-.443-1.054V1.369c0-.938-.209-1.354-.812-1.354h-4.471c-.452 0-.724.433-.724.847 0 .887 1.025 1.092 1.13 3.592V9.88c0 1.188-.165 1.404-.528 1.404-.964 0-3.31-4.585-4.702-9.835C5.789.428 5.516.016 4.789.016H1.945c-.814 0-.976.496-.976 1.04 0 .978.964 5.818 4.49 12.219 2.352 4.37 5.662 6.74 8.677 6.74 1.808 0 2.03-.526 2.03-1.434v-3.303c0-1.052.174-1.264.746-1.264.42 0 1.144.276 2.832 2.381 1.928 2.497 2.247 3.618 3.33 3.618h2.845c.812 0 1.218-.526.985-1.565-.256-1.033-1.177-2.537-2.4-4.316-.664-1.015-1.656-2.108-1.959-2.654-.421-.704-.3-1.015 0-1.64.002.002 3.467-6.32 3.828-8.469Z"/></svg>